<?xml version="1.0" encoding="utf-8"?>
<!-- Generator: Adobe Illustrator 19.0.0, SVG Export Plug-In . SVG Version: 6.00 Build 0)  -->
<svg version="1.1" id="Layer_1" xmlns="http://www.w3.org/2000/svg" xmlns:xlink="http://www.w3.org/1999/xlink" x="0px" y="0px"
	 viewBox="0 0 1920 1080" style="enable-background:new 0 0 1920 1080;" xml:space="preserve">
<style type="text/css">
	.st0{fill:#E6E6E6;}
    .st0
    {
        -webkit-animation: shake-br 10s cubic-bezier(0.455, 0.030, 0.515, 0.955) infinite both;
        animation: shake-br 10s cubic-bezier(0.455, 0.030, 0.515, 0.955) infinite both;
    }


    
/**
 * ----------------------------------------
 * animation shake-br
 * ----------------------------------------
 */
@-webkit-keyframes shake-br {
  0%,
  100% {
    -webkit-transform: rotate(0deg);
            transform: rotate(0deg);
    -webkit-transform-origin: 100% 100%;
            transform-origin: 100% 100%;
  }
  10% {
    -webkit-transform: rotate(2deg);
            transform: rotate(2deg);
  }
  20%,
  40%,
  60% {
    -webkit-transform: rotate(-4deg);
            transform: rotate(-4deg);
  }
  30%,
  50%,
  70% {
    -webkit-transform: rotate(4deg);
            transform: rotate(4deg);
  }
  80% {
    -webkit-transform: rotate(-2deg);
            transform: rotate(-2deg);
  }
  90% {
    -webkit-transform: rotate(2deg);
            transform: rotate(2deg);
  }
}
@keyframes shake-br {
  0%,
  100% {
    -webkit-transform: rotate(0deg);
            transform: rotate(0deg);
    -webkit-transform-origin: 100% 100%;
            transform-origin: 100% 100%;
  }
  10% {
    -webkit-transform: rotate(2deg);
            transform: rotate(2deg);
  }
  20%,
  40%,
  60% {
    -webkit-transform: rotate(-4deg);
            transform: rotate(-4deg);
  }
  30%,
  50%,
  70% {
    -webkit-transform: rotate(4deg);
            transform: rotate(4deg);
  }
  80% {
    -webkit-transform: rotate(-2deg);
            transform: rotate(-2deg);
  }
  90% {
    -webkit-transform: rotate(2deg);
            transform: rotate(2deg);
  }
}

</style>
<g>
	<g>
		<path class="st0" d="M539.8,937.7c-12.1,0-24.2-4.6-33.4-13.8c-18.4-18.4-18.4-48.3,0-66.7L1242.6,121c18.4-18.4,48.3-18.4,66.7,0
			c18.4,18.4,18.4,48.3,0,66.7L573.1,923.9C563.9,933.1,551.8,937.7,539.8,937.7z"/>
	</g>
	<g>
		<path class="st0" d="M95.4,578.7c-12.1,0-24.2-4.6-33.4-13.8c-18.4-18.4-18.4-48.3,0-66.7L798.2-238c18.4-18.4,48.3-18.4,66.7,0
			c18.4,18.4,18.4,48.3,0,66.7L128.8,564.8C119.5,574.1,107.4,578.7,95.4,578.7z"/>
	</g>
	<g>
		<path class="st0" d="M1060.3,814.8c-12.1,0-24.2-4.6-33.4-13.8c-18.4-18.4-18.4-48.3,0-66.7L1763.1-1.9
			c18.4-18.4,48.3-18.4,66.7,0c18.4,18.4,18.4,48.3,0,66.7L1093.6,801C1084.4,810.2,1072.3,814.8,1060.3,814.8z"/>
	</g>
	<g>
		<path class="st0" d="M-84.8,1156.4c-12.1,0-24.2-4.6-33.4-13.8c-18.4-18.4-18.4-48.3,0-66.7L618,339.7c18.4-18.4,48.3-18.4,66.7,0
			c18.4,18.4,18.4,48.3,0,66.7l-736.2,736.2C-60.7,1151.8-72.7,1156.4-84.8,1156.4z"/>
	</g>
	<g>
		<path class="st0" d="M608.6,1664c-12.1,0-24.2-4.6-33.4-13.8c-18.4-18.4-18.4-48.3,0-66.7l736.2-736.2c18.4-18.4,48.3-18.4,66.7,0
			c18.4,18.4,18.4,48.3,0,66.7L642,1650.2C632.8,1659.4,620.7,1664,608.6,1664z"/>
	</g>
	<g>
		<path class="st0" d="M1190.4,1479.8c-12.1,0-24.2-4.6-33.4-13.8c-18.4-18.4-18.4-48.3,0-66.7l736.2-736.2
			c18.4-18.4,48.3-18.4,66.7,0c18.4,18.4,18.4,48.3,0,66.7l-736.2,736.2C1214.6,1475.2,1202.5,1479.8,1190.4,1479.8z"/>
	</g>
</g>
</svg>
