<?xml version="1.0" encoding="utf-8"?>
<!-- Generator: Adobe Illustrator 19.0.0, SVG Export Plug-In . SVG Version: 6.00 Build 0)  -->
<svg version="1.1" id="Layer_1" xmlns="http://www.w3.org/2000/svg" xmlns:xlink="http://www.w3.org/1999/xlink" x="0px" y="0px"
	 viewBox="0 0 866 867.3" style="enable-background:new 0 0 866 867.3;" xml:space="preserve">
<style type="text/css">
	.st0{fill:none;}
	.st1{fill:#929399;}
	.st2{font-family:'Lato-Semibold';}
	.st3{font-size:33.2883px;}
	.st4{fill:#EDEDEE;}
	.st5{font-family:'Lato-Thin';}
	.st6{fill:#F05B78;}
	.st7{fill:#6D7078;}
	.st8{fill:none;stroke:#64676F;stroke-width:2;stroke-miterlimit:10;}
	.st9{fill:#64676F;}
	.st10{fill:none;stroke:#A4A5AA;stroke-width:5;stroke-linecap:round;stroke-miterlimit:10;}
     #verticalLines
    {
        -webkit-animation: slide-in-blurred-tr 1s cubic-bezier(0.230, 1.000, 0.320, 1.000) 0.3s both;
        animation: slide-in-blurred-tr 1s cubic-bezier(0.230, 1.000, 0.320, 1.000) 0.3s both;
    }
    
    #HorizntalLines
    {
        -webkit-animation: slide-in-blurred-tl 1.5s cubic-bezier(0.230, 1.000, 0.320, 1.000) 0.3s both;
        animation: slide-in-blurred-tl 1.5s cubic-bezier(0.230, 1.000, 0.320, 1.000) 0.3s both;
    }

    
    text
    {
        text-transform:uppercase;
        font-weight:600;
        -webkit-animation: text-focus-in 1s cubic-bezier(0.550, 0.085, 0.680, 0.530) 1.8s both;
        animation: text-focus-in 1s cubic-bezier(0.550, 0.085, 0.680, 0.530) 1.8s both;
    }
    .ARTA
    {
        -webkit-animation: blink-1 0.5s 3s both;
        animation: blink-1 0.5s 3s both,text-focus-in 1s cubic-bezier(0.550, 0.085, 0.680, 0.530) 1.8s both;
    }
    .MarketsA
    {
        -webkit-animation: blink-1 0.5s 3.5s both;
        animation: blink-1 0.5s 3.5s both,text-focus-in 1s cubic-bezier(0.550, 0.085, 0.680, 0.530) 1.8s both;
    }
    .upA
    {
        -webkit-animation: blink-1 0.5s 4s both;
        animation: blink-1 0.5s 4s both,text-focus-in 1s cubic-bezier(0.550, 0.085, 0.680, 0.530) 1.8s both;
    }
    .puplicA
    {
        -webkit-animation: blink-1 0.5s 4.5s both;
        animation: blink-1 0.5s 4.5s both,text-focus-in 1s cubic-bezier(0.550, 0.085, 0.680, 0.530) 1.8s both;
    }
    .GOTA
    {
        -webkit-animation: blink-1 0.5s 5s both;
        animation: blink-1 0.5s 5s both,text-focus-in 1s cubic-bezier(0.550, 0.085, 0.680, 0.530) 1.8s both;
    }
    .JobA
    {
        -webkit-animation: blink-1 0.5s 5.5s both;
        animation: blink-1 0.5s 5.5s both,text-focus-in 1s cubic-bezier(0.550, 0.085, 0.680, 0.530) 1.8s both;
    }
    .CREATIVEA
    {
        -webkit-animation: blink-1 0.5s 6s both;
        animation: blink-1 0.5s 6s both,text-focus-in 1s cubic-bezier(0.550, 0.085, 0.680, 0.530) 1.8s both;
    }
    .SEOA
    {
        -webkit-animation: blink-1 0.5s 6.5s both;
        animation: blink-1 0.5s 6.5s both,text-focus-in 1s cubic-bezier(0.550, 0.085, 0.680, 0.530) 1.8s both;
    }
    .SOCIALA
    {
        -webkit-animation: blink-1 0.5s 7s both;
        animation: blink-1 0.5s 7s both,text-focus-in 1s cubic-bezier(0.550, 0.085, 0.680, 0.530) 1.8s both;
    }
    .ElseA
    {
        -webkit-animation: blink-1 0.5s 7.5s both;
        animation: blink-1 0.5s 7.5s both,text-focus-in 1s cubic-bezier(0.550, 0.085, 0.680, 0.530) 1.8s both;
    }
    .KEYA
    {
        -webkit-animation: blink-1 0.5s 8s both;
        animation: blink-1 0.5s 8s both,text-focus-in 1s cubic-bezier(0.550, 0.085, 0.680, 0.530) 1.8s both;
    }
    .LOWA
    {
        -webkit-animation: blink-1 0.5s 8.5s both;
        animation: blink-1 0.5s 8.5s both,text-focus-in 1s cubic-bezier(0.550, 0.085, 0.680, 0.530) 1.8s both;
    }
    .DRAWA
    {
        -webkit-animation: blink-1 0.5s 9s both;
        animation: blink-1 0.5s 9s both,text-focus-in 1s cubic-bezier(0.550, 0.085, 0.680, 0.530) 1.8s both;
    }
    .ANALISISA
    {
        -webkit-animation: blink-1 0.5s 9.5s both;
        animation: blink-1 0.5s 9.5s both,text-focus-in 1s cubic-bezier(0.550, 0.085, 0.680, 0.530) 1.8s both;
    }
    .KNOWA
    {
        -webkit-animation: blink-1 0.5s 10s both;
        animation: blink-1 0.5s 10s both,text-focus-in 1s cubic-bezier(0.550, 0.085, 0.680, 0.530) 1.8s both;
    }
    .EasyA
    {
        -webkit-animation: blink-1 0.5s 10s both;
        animation: blink-1 0.5s 10s both,text-focus-in 1s cubic-bezier(0.550, 0.085, 0.680, 0.530) 1.8s both;
    }
    .NETA
    {
        -webkit-animation: blink-1 0.5s 10.5s both;
        animation: blink-1 0.5s 10.5s both,text-focus-in 1s cubic-bezier(0.550, 0.085, 0.680, 0.530) 1.8s both;
    }
    .USEA
    {
        -webkit-animation: blink-1 0.5s 11s both;
        animation: blink-1 0.5s 11s both,text-focus-in 1s cubic-bezier(0.550, 0.085, 0.680, 0.530) 1.8s both;
    }
    .ADA
    {
        -webkit-animation: blink-1 0.5s 11.5s both;
        animation: blink-1 0.5s 11.5s both,text-focus-in 1s cubic-bezier(0.550, 0.085, 0.680, 0.530) 1.8s both;
    }
    .GAMEA
    {
        -webkit-animation: blink-1 0.5s 12s both;
        animation: blink-1 0.5s 12s both,text-focus-in 1s cubic-bezier(0.550, 0.085, 0.680, 0.530) 1.8s both;
    }
    .DRAFTA
    {
        -webkit-animation: blink-1 0.5s 12.5s both;
        animation: blink-1 0.5s 12.5s both,text-focus-in 1s cubic-bezier(0.550, 0.085, 0.680, 0.530) 1.8s both;
    }
    .GOA
    {
        -webkit-animation: blink-1 0.5s 13s both;
        animation: blink-1 0.5s 13s both,text-focus-in 1s cubic-bezier(0.550, 0.085, 0.680, 0.530) 1.8s both;
    }
    #REDLINE
    {
        -webkit-animation: slide-in-blurred-top 1s cubic-bezier(0.230, 1.000, 0.320, 1.000) 14s both;
        animation: slide-in-blurred-top 1s cubic-bezier(0.230, 1.000, 0.320, 1.000) 14s both;
    }
    #CROSS
    {
        -webkit-animation: slide-in-blurred-top 1s cubic-bezier(0.230, 1.000, 0.320, 1.000) 15s both;
        animation: slide-in-blurred-top 1s cubic-bezier(0.230, 1.000, 0.320, 1.000) 15s both;
    }
    #OVERWORDSLINES
    {
        -webkit-animation: slide-in-blurred-top 1s cubic-bezier(0.230, 1.000, 0.320, 1.000) 16s both;
        animation: slide-in-blurred-top 1s cubic-bezier(0.230, 1.000, 0.320, 1.000) 16s both;
    }
    #FINALWORD
    {
        -webkit-animation: heartbeat 1.5s ease-in-out 17s both;
        animation: heartbeat 1.5s ease-in-out 17s both;
    }
    #CYCLEWORDS
    {
        -webkit-animation: fade-in-top 0.6s cubic-bezier(0.390, 0.575, 0.565, 1.000) 18s both;
        animation: fade-in-top 0.6s cubic-bezier(0.390, 0.575, 0.565, 1.000) 18s both;
    }

    
/**
 * ----------------------------------------
 * animation fade-in-top
 * ----------------------------------------
 */
@-webkit-keyframes fade-in-top {
  0% {
    -webkit-transform: translateY(-50px);
            transform: translateY(-50px);
    opacity: 0;
  }
  100% {
    -webkit-transform: translateY(0);
            transform: translateY(0);
    opacity: 1;
  }
}
@keyframes fade-in-top {
  0% {
    -webkit-transform: translateY(-50px);
            transform: translateY(-50px);
    opacity: 0;
  }
  100% {
    -webkit-transform: translateY(0);
            transform: translateY(0);
    opacity: 1;
  }
}


/**
 * ----------------------------------------
 * animation blink-1
 * ----------------------------------------
 */
@-webkit-keyframes blink-1 {
  0%,
  75%
  {
    fill: #64676F;
  }
  50%,
  100% {
    fill: #F05B78;
  }
}
@keyframes blink-1 {
  0%,
  75% {
    fill: #64676F;
  }
 50%,
  100% {
    fill: #F05B78;
  }
}

/**
 * ----------------------------------------
 * animation heartbeat
 * ----------------------------------------
 */
@-webkit-keyframes heartbeat {
  from {
    -webkit-transform: scale(1);
            transform: scale(1);
    -webkit-transform-origin: center center;
            transform-origin: center center;
    -webkit-animation-timing-function: ease-out;
            animation-timing-function: ease-out;
  }
  10% {
    -webkit-transform: scale(0.91);
            transform: scale(0.91);
    -webkit-animation-timing-function: ease-in;
            animation-timing-function: ease-in;
  }
  17% {
    -webkit-transform: scale(0.98);
            transform: scale(0.98);
    -webkit-animation-timing-function: ease-out;
            animation-timing-function: ease-out;
  }
  33% {
    -webkit-transform: scale(0.87);
            transform: scale(0.87);
    -webkit-animation-timing-function: ease-in;
            animation-timing-function: ease-in;
  }
  45% {
    -webkit-transform: scale(1);
            transform: scale(1);
    -webkit-animation-timing-function: ease-out;
            animation-timing-function: ease-out;
  }
}
@keyframes heartbeat {
  from {
    -webkit-transform: scale(1);
            transform: scale(1);
    -webkit-transform-origin: center center;
            transform-origin: center center;
    -webkit-animation-timing-function: ease-out;
            animation-timing-function: ease-out;
  }
  10% {
    -webkit-transform: scale(0.91);
            transform: scale(0.91);
    -webkit-animation-timing-function: ease-in;
            animation-timing-function: ease-in;
  }
  17% {
    -webkit-transform: scale(0.98);
            transform: scale(0.98);
    -webkit-animation-timing-function: ease-out;
            animation-timing-function: ease-out;
  }
  33% {
    -webkit-transform: scale(0.87);
            transform: scale(0.87);
    -webkit-animation-timing-function: ease-in;
            animation-timing-function: ease-in;
  }
  45% {
    -webkit-transform: scale(1);
            transform: scale(1);
    -webkit-animation-timing-function: ease-out;
            animation-timing-function: ease-out;
  }
}


/**
 * ----------------------------------------
 * animation slide-in-blurred-tl
 * ----------------------------------------
 */
@-webkit-keyframes slide-in-blurred-tl {
  0% {
    -webkit-transform: translate(-1000px, -1000px) skew(80deg, 10deg);
            transform: translate(-1000px, -1000px) skew(80deg, 10deg);
    -webkit-transform-origin: 100% 0%;
            transform-origin: 100% 0%;
    -webkit-filter: blur(40px);
            filter: blur(40px);
    opacity: 0;
  }
  100% {
    -webkit-transform: translate(0, 0) skew(0deg, 0deg);
            transform: translate(0, 0) skew(0deg, 0deg);
    -webkit-transform-origin: 50% 50%;
            transform-origin: 50% 50%;
    -webkit-filter: blur(0);
            filter: blur(0);
    opacity: 1;
  }
}
@keyframes slide-in-blurred-tl {
  0% {
    -webkit-transform: translate(-1000px, -1000px) skew(80deg, 10deg);
            transform: translate(-1000px, -1000px) skew(80deg, 10deg);
    -webkit-transform-origin: 100% 0%;
            transform-origin: 100% 0%;
    -webkit-filter: blur(40px);
            filter: blur(40px);
    opacity: 0;
  }
  100% {
    -webkit-transform: translate(0, 0) skew(0deg, 0deg);
            transform: translate(0, 0) skew(0deg, 0deg);
    -webkit-transform-origin: 50% 50%;
            transform-origin: 50% 50%;
    -webkit-filter: blur(0);
            filter: blur(0);
    opacity: 1;
  }
}


/**
 * ----------------------------------------
 * animation puff-in-br
 * ----------------------------------------
 */
@-webkit-keyframes puff-in-br {
  0% {
    -webkit-transform: scale(2);
            transform: scale(2);
    -webkit-transform-origin: 100% 100%;
            transform-origin: 100% 100%;
    -webkit-filter: blur(4px);
            filter: blur(4px);
    opacity: 0;
  }
  100% {
    -webkit-transform: scale(1);
            transform: scale(1);
    -webkit-transform-origin: 100% 100%;
            transform-origin: 100% 100%;
    -webkit-filter: blur(0px);
            filter: blur(0px);
    opacity: 1;
  }
}
@keyframes puff-in-br {
  0% {
    -webkit-transform: scale(2);
            transform: scale(2);
    -webkit-transform-origin: 100% 100%;
            transform-origin: 100% 100%;
    -webkit-filter: blur(4px);
            filter: blur(4px);
    opacity: 0;
  }
  100% {
    -webkit-transform: scale(1);
            transform: scale(1);
    -webkit-transform-origin: 100% 100%;
            transform-origin: 100% 100%;
    -webkit-filter: blur(0px);
            filter: blur(0px);
    opacity: 1;
  }
}



/**
 * ----------------------------------------
 * animation slide-in-blurred-tr
 * ----------------------------------------
 */
@-webkit-keyframes slide-in-blurred-tr {
  0% {
    -webkit-transform: translate(1000px, -1000px) skew(-80deg, -10deg);
            transform: translate(1000px, -1000px) skew(-80deg, -10deg);
    -webkit-transform-origin: 0% 0%;
            transform-origin: 0% 0%;
    -webkit-filter: blur(40px);
            filter: blur(40px);
    opacity: 0;
  }
  100% {
    -webkit-transform: translate(0, 0) skew(0deg, 0deg);
            transform: translate(0, 0) skew(0deg, 0deg);
    -webkit-transform-origin: 50% 50%;
            transform-origin: 50% 50%;
    -webkit-filter: blur(0);
            filter: blur(0);
    opacity: 1;
  }
}
@keyframes slide-in-blurred-tr {
  0% {
    -webkit-transform: translate(1000px, -1000px) skew(-80deg, -10deg);
            transform: translate(1000px, -1000px) skew(-80deg, -10deg);
    -webkit-transform-origin: 0% 0%;
            transform-origin: 0% 0%;
    -webkit-filter: blur(40px);
            filter: blur(40px);
    opacity: 0;
  }
  100% {
    -webkit-transform: translate(0, 0) skew(0deg, 0deg);
            transform: translate(0, 0) skew(0deg, 0deg);
    -webkit-transform-origin: 50% 50%;
            transform-origin: 50% 50%;
    -webkit-filter: blur(0);
            filter: blur(0);
    opacity: 1;
  }
}




/**
 * ----------------------------------------
 * animation text-focus-in
 * ----------------------------------------
 */
@-webkit-keyframes text-focus-in {
  0% {
    -webkit-filter: blur(12px);
            filter: blur(12px);
    opacity: 0;
  }
  100% {
    -webkit-filter: blur(0px);
            filter: blur(0px);
    opacity: 1;
  }
}
@keyframes text-focus-in {
  0% {
    -webkit-filter: blur(12px);
            filter: blur(12px);
    opacity: 0;
  }
  100% {
    -webkit-filter: blur(0px);
            filter: blur(0px);
    opacity: 1;
  }
}


/**
 * ----------------------------------------
 * animation slide-in-blurred-top
 * ----------------------------------------
 */
@-webkit-keyframes slide-in-blurred-top {
  0% {
    -webkit-transform: translateY(-1000px) scaleY(2.5) scaleX(0.2);
            transform: translateY(-1000px) scaleY(2.5) scaleX(0.2);
    -webkit-transform-origin: 50% 0%;
            transform-origin: 50% 0%;
    -webkit-filter: blur(40px);
            filter: blur(40px);
    opacity: 0;
  }
  100% {
    -webkit-transform: translateY(0) scaleY(1) scaleX(1);
            transform: translateY(0) scaleY(1) scaleX(1);
    -webkit-transform-origin: 50% 50%;
            transform-origin: 50% 50%;
    -webkit-filter: blur(0);
            filter: blur(0);
    opacity: 1;
  }
}
@keyframes slide-in-blurred-top {
  0% {
    -webkit-transform: translateY(-1000px) scaleY(2.5) scaleX(0.2);
            transform: translateY(-1000px) scaleY(2.5) scaleX(0.2);
    -webkit-transform-origin: 50% 0%;
            transform-origin: 50% 0%;
    -webkit-filter: blur(40px);
            filter: blur(40px);
    opacity: 0;
  }
  100% {
    -webkit-transform: translateY(0) scaleY(1) scaleX(1);
            transform: translateY(0) scaleY(1) scaleX(1);
    -webkit-transform-origin: 50% 50%;
            transform-origin: 50% 50%;
    -webkit-filter: blur(0);
            filter: blur(0);
    opacity: 1;
  }
}

</style>
<g>
	<g id="GO">
		
			<rect x="369.8" y="500.9" transform="matrix(0.7071 -0.7071 0.7071 0.7071 -252.0564 432.7827)" class="st0" width="53.2" height="39.5"/>
		<text transform="matrix(0.7071 -0.7071 0.7071 0.7071 391.5829 531.0544)" class="st1 st2 st3 GOA">g</text>
		
			<rect x="410.4" y="460.3" transform="matrix(0.7071 -0.7071 0.7071 0.7071 -211.4519 449.6017)" class="st0" width="53.2" height="39.5"/>
		<text transform="matrix(0.7071 -0.7071 0.7071 0.7071 431.6817 490.9556)" class="st1 st2 st3 GOA">o</text>
	</g>
	<g id="FINALWORD">
		<g>
			
				<rect x="288.6" y="176.1" transform="matrix(0.7071 -0.7071 0.7071 0.7071 -46.1481 280.2169)" class="st0" width="53.2" height="39.5"/>
			<text transform="matrix(0.7071 -0.7071 0.7071 0.7071 311.7153 204.8751)" class="st4 st5 st3">p</text>
		</g>
		<g>
			
				<rect x="85.5" y="460.3" transform="matrix(0.7071 -0.7071 0.7071 0.7071 -306.5942 219.9078)" class="st0" width="53.2" height="39.5"/>
			<text transform="matrix(0.7071 -0.7071 0.7071 0.7071 109.163 488.6374)" class="st4 st5 st3">e</text>
		</g>
		<g>
			
				<rect x="410.4" y="135.5" transform="matrix(0.7071 -0.7071 0.7071 0.7071 18.242 354.4593)" class="st0" width="53.2" height="39.5"/>
			<text transform="matrix(0.7071 -0.7071 0.7071 0.7071 434.0006 163.7998)" class="st4 st5 st3">e</text>
		</g>
		<g>
			
				<rect x="248" y="541.5" transform="matrix(0.7071 -0.7071 0.7071 0.7071 -316.4465 358.5403)" class="st0" width="53.2" height="39.5"/>
			<text transform="matrix(0.7071 -0.7071 0.7071 0.7071 269.6282 571.8006)" class="st4 st5 st3">n</text>
		</g>
		<g>
			
				<rect x="410.4" y="379.1" transform="matrix(0.7071 -0.7071 0.7071 0.7071 -154.0284 425.8161)" class="st0" width="53.2" height="39.5"/>
			<text transform="matrix(0.7071 -0.7071 0.7071 0.7071 436.9783 404.4505)" class="st4 st5 st3">i</text>
		</g>
		<g>
			
				<rect x="532.2" y="338.5" transform="matrix(0.7071 -0.7071 0.7071 0.7071 -89.6383 500.0585)" class="st0" width="53.2" height="39.5"/>
			<text transform="matrix(0.7071 -0.7071 0.7071 0.7071 554.7789 367.8585)" class="st4 st5 st3">c</text>
		</g>
		<g>
			
				<rect x="410.4" y="785.2" transform="matrix(0.7071 -0.7071 0.7071 0.7071 -441.1458 544.744)" class="st0" width="53.2" height="39.5"/>
			<text transform="matrix(0.7071 -0.7071 0.7071 0.7071 434.0006 813.4751)" class="st4 st5 st3">e</text>
		</g>
		<g>
			
				<rect x="735.2" y="379.1" transform="matrix(0.7071 -0.7071 0.7071 0.7071 -58.8861 655.5099)" class="st0" width="53.2" height="39.5"/>
			<text transform="matrix(0.7071 -0.7071 0.7071 0.7071 758.8373 407.4271)" class="st4 st5 st3">e</text>
		</g>
		<g>
			
				<rect x="451" y="582.1" transform="matrix(0.7071 -0.7071 0.7071 0.7071 -285.6943 513.9918)" class="st0" width="53.2" height="39.5"/>
			<text transform="matrix(0.7071 -0.7071 0.7071 0.7071 474.0634 610.9924)" class="st4 st5 st3">r</text>
		</g>
	</g>
	<g id="CROSS">
		<g>
			<path class="st6" d="M459.4,529.7c-0.4,0-0.8-0.2-1.1-0.5c-0.6-0.6-0.6-1.6,0-2.2l24.6-24.6c0.6-0.6,1.6-0.6,2.2,0
				c0.6,0.6,0.6,1.6,0,2.2l-24.6,24.6C460.2,529.5,459.8,529.7,459.4,529.7z"/>
		</g>
		<g>
			<path class="st6" d="M484,529.7c-0.4,0-0.8-0.2-1.1-0.5l-24.6-24.6c-0.6-0.6-0.6-1.6,0-2.2c0.6-0.6,1.6-0.6,2.2,0l24.6,24.6
				c0.6,0.6,0.6,1.6,0,2.2C484.8,529.5,484.4,529.7,484,529.7z"/>
		</g>
	</g>
	<g id="CYCLEWORDS">
		<g>
			<path class="st7" d="M757.9,373.2c5.5,0,10.6,2.1,14.5,6c3.9,3.9,6,9,6,14.5s-2.1,10.6-6,14.5c-3.9,3.9-9,6-14.5,6
				s-10.6-2.1-14.5-6c-3.9-3.9-6-9-6-14.5s2.1-10.6,6-14.5C747.2,375.4,752.4,373.2,757.9,373.2 M757.9,371.7
				c-5.6,0-11.3,2.2-15.6,6.5c-8.6,8.6-8.6,22.6,0,31.2c4.3,4.3,9.9,6.5,15.6,6.5s11.3-2.2,15.6-6.5c8.6-8.6,8.6-22.6,0-31.2
				C769.2,373.9,763.5,371.7,757.9,371.7L757.9,371.7z"/>
		</g>
		<g>
			<path class="st7" d="M473.9,576c5.5,0,10.6,2.1,14.5,6s6,9,6,14.5s-2.1,10.6-6,14.5s-9,6-14.5,6s-10.6-2.1-14.5-6
				c-8-8-8-21,0-29.1C463.3,578.1,468.4,576,473.9,576 M473.9,574.5c-5.6,0-11.3,2.2-15.6,6.5c-8.6,8.6-8.6,22.6,0,31.2
				c4.3,4.3,9.9,6.5,15.6,6.5s11.3-2.2,15.6-6.5c8.6-8.6,8.6-22.6,0-31.2C485.2,576.7,479.6,574.5,473.9,574.5L473.9,574.5z"/>
		</g>
		<g>
			<path class="st7" d="M432.2,779.5c5.5,0,10.6,2.1,14.5,6c8,8,8,21,0,29.1c-3.9,3.9-9,6-14.5,6s-10.6-2.1-14.5-6c-8-8-8-21,0-29.1
				C421.6,781.6,426.7,779.5,432.2,779.5 M432.2,778c-5.6,0-11.3,2.2-15.6,6.5c-8.6,8.6-8.6,22.6,0,31.2c4.3,4.3,9.9,6.5,15.6,6.5
				s11.3-2.2,15.6-6.5c8.6-8.6,8.6-22.6,0-31.2C443.5,780.2,437.9,778,432.2,778L432.2,778z"/>
		</g>
		<g>
			<path class="st7" d="M108.2,452.9c5.5,0,10.6,2.1,14.5,6c8,8,8,21,0,29.1c-3.9,3.9-9,6-14.5,6s-10.6-2.1-14.5-6c-8-8-8-21,0-29.1
				C97.5,455,102.7,452.9,108.2,452.9 M108.2,451.4c-5.6,0-11.3,2.2-15.6,6.5c-8.6,8.6-8.6,22.6,0,31.2c4.3,4.3,9.9,6.5,15.6,6.5
				s11.3-2.2,15.6-6.5c8.6-8.6,8.6-22.6,0-31.2C119.4,453.5,113.8,451.4,108.2,451.4L108.2,451.4z"/>
		</g>
		<g>
			<path class="st7" d="M268.2,536.2c5.5,0,10.6,2.1,14.5,6c8,8,8,21,0,29.1c-3.9,3.9-9,6-14.5,6s-10.6-2.1-14.5-6s-6-9-6-14.5
				s2.1-10.6,6-14.5S262.8,536.2,268.2,536.2 M268.2,534.7c-5.6,0-11.3,2.2-15.6,6.5c-8.6,8.6-8.6,22.6,0,31.2
				c4.3,4.3,9.9,6.5,15.6,6.5s11.3-2.2,15.6-6.5c8.6-8.6,8.6-22.6,0-31.2C279.5,536.8,273.9,534.7,268.2,534.7L268.2,534.7z"/>
		</g>
		<g>
			<path class="st7" d="M309.5,171.4c5.5,0,10.6,2.1,14.5,6c8,8,8,21,0,29.1c-3.9,3.9-9,6-14.5,6s-10.6-2.1-14.5-6c-8-8-8-21,0-29.1
				C298.8,173.5,304,171.4,309.5,171.4 M309.5,169.9c-5.6,0-11.3,2.2-15.6,6.5c-8.6,8.6-8.6,22.6,0,31.2c4.3,4.3,9.9,6.5,15.6,6.5
				s11.3-2.2,15.6-6.5c8.6-8.6,8.6-22.6,0-31.2C320.8,172,315.1,169.9,309.5,169.9L309.5,169.9z"/>
		</g>
		<g>
			<path class="st7" d="M433,372.7c5.5,0,10.6,2.1,14.5,6c8,8,8,21,0,29.1c-3.9,3.9-9,6-14.5,6s-10.6-2.1-14.5-6c-8-8-8-21,0-29.1
				C422.4,374.8,427.5,372.7,433,372.7 M433,371.2c-5.6,0-11.3,2.2-15.6,6.5c-8.6,8.6-8.6,22.6,0,31.2c4.3,4.3,9.9,6.5,15.6,6.5
				s11.3-2.2,15.6-6.5c8.6-8.6,8.6-22.6,0-31.2C444.3,373.3,438.6,371.2,433,371.2L433,371.2z"/>
		</g>
		<g>
			<path class="st7" d="M432.2,129.1c5.5,0,10.6,2.1,14.5,6c8,8,8,21,0,29.1c-3.9,3.9-9,6-14.5,6s-10.6-2.1-14.5-6c-8-8-8-21,0-29.1
				C421.6,131.3,426.8,129.1,432.2,129.1 M432.2,127.6c-5.6,0-11.3,2.2-15.6,6.5c-8.6,8.6-8.6,22.6,0,31.2c4.3,4.3,9.9,6.5,15.6,6.5
				s11.3-2.2,15.6-6.5c8.6-8.6,8.6-22.6,0-31.2C443.5,129.8,437.9,127.6,432.2,127.6L432.2,127.6z"/>
		</g>
		<g>
			<path class="st7" d="M554.8,332.1c5.5,0,10.6,2.1,14.5,6c8,8,8,21,0,29.1c-3.9,3.9-9,6-14.5,6c-5.5,0-10.6-2.1-14.5-6
				c-3.9-3.9-6-9-6-14.5s2.1-10.6,6-14.5C544.2,334.2,549.3,332.1,554.8,332.1 M554.8,330.6c-5.6,0-11.3,2.2-15.6,6.5
				c-8.6,8.6-8.6,22.6,0,31.2c4.3,4.3,9.9,6.5,15.6,6.5s11.3-2.2,15.6-6.5c8.6-8.6,8.6-22.6,0-31.2
				C566.1,332.7,560.5,330.6,554.8,330.6L554.8,330.6z"/>
		</g>
	</g>
	<g id="REDLINE">
		<path class="st6" d="M377.1,528.4c-0.4,0-0.8-0.2-1.1-0.5c-0.6-0.6-0.6-1.6,0-2.2l66.9-66.9c0.6-0.6,1.6-0.6,2.2,0
			c0.6,0.6,0.6,1.6,0,2.2l-66.9,66.9C377.9,528.2,377.5,528.4,377.1,528.4z"/>
	</g>
	<g id="verticalLines">
		<line class="st8" x1="473.6" y1="68.4" x2="67.6" y2="474.4"/>
		<line class="st8" x1="514.2" y1="109" x2="108.2" y2="515"/>
		<line class="st8" x1="554.8" y1="149.6" x2="148.8" y2="555.6"/>
		<line class="st8" x1="595.4" y1="190.2" x2="189.4" y2="596.2"/>
		<line class="st8" x1="636" y1="230.8" x2="230" y2="636.8"/>
		<line class="st8" x1="676.6" y1="271.4" x2="270.6" y2="677.4"/>
		<line class="st8" x1="717.2" y1="312" x2="311.2" y2="718.1"/>
		<line class="st8" x1="757.8" y1="352.6" x2="351.8" y2="758.7"/>
		<line class="st8" x1="798.4" y1="393.2" x2="392.4" y2="799.3"/>
		<line class="st8" x1="839.1" y1="433.8" x2="433" y2="839.9"/>
		<line class="st8" x1="433" y1="27.8" x2="26.9" y2="433.8"/>
	</g>
	<g id="HorizntalLines">
		<line class="st8" x1="839" y1="433.8" x2="433" y2="27.8"/>
		<line class="st8" x1="798.4" y1="474.4" x2="392.4" y2="68.4"/>
		<line class="st8" x1="757.8" y1="515" x2="351.8" y2="109"/>
		<line class="st8" x1="717.2" y1="555.6" x2="311.2" y2="149.6"/>
		<line class="st8" x1="676.6" y1="596.2" x2="270.6" y2="190.2"/>
		<line class="st8" x1="636" y1="636.8" x2="230" y2="230.8"/>
		<line class="st8" x1="595.4" y1="677.4" x2="189.4" y2="271.4"/>
		<line class="st8" x1="554.8" y1="718.1" x2="148.8" y2="312"/>
		<line class="st8" x1="514.2" y1="758.7" x2="108.2" y2="352.6"/>
		<line class="st8" x1="473.6" y1="799.3" x2="67.6" y2="393.2"/>
		<line class="st8" x1="433" y1="839.9" x2="26.9" y2="433.8"/>
	</g>
	<g id="ART">
		
			<rect x="329.2" y="135.5" transform="matrix(0.7071 -0.7071 0.7071 0.7071 -5.5436 297.0359)" class="st0" width="53.2" height="39.5"/>
		<text transform="matrix(0.7071 -0.7071 0.7071 0.7071 351.3785 165.212)" class="st9 st2 st3 ARTA">a</text>
		
			<rect x="369.8" y="94.9" transform="matrix(0.7071 -0.7071 0.7071 0.7071 35.0609 313.8548)" class="st0" width="53.2" height="39.5"/>
		<text transform="matrix(0.7071 -0.7071 0.7071 0.7071 392.8542 123.7363)" class="st9 st2 st3 ARTA">r</text>
		
			<rect x="410.4" y="54.3" transform="matrix(0.7071 -0.7071 0.7071 0.7071 75.6654 330.6738)" class="st0" width="53.2" height="39.5"/>
		<text transform="matrix(0.7071 -0.7071 0.7071 0.7071 433.9415 82.649)" class="st9 st2 st3 ARTA">t</text>
	</g>
	<g id="Markets">
		
			<rect x="532.2" y="176.1" transform="matrix(0.7071 -0.7071 0.7071 0.7071 25.2086 452.4873)" class="st0" width="53.2" height="39.5"/>
		<text transform="matrix(0.7071 -0.7071 0.7071 0.7071 555.2731 204.9457)" class="st9 st2 st3 MarketsA">r</text>
		
			<rect x="451" y="94.9" transform="matrix(0.7071 -0.7071 0.7071 0.7071 58.8465 371.2783)" class="st0" width="53.2" height="39.5"/>
		<text transform="matrix(0.7071 -0.7071 0.7071 0.7071 470.9334 126.867)" class="st9 st2 st3 MarketsA">m</text>
		
			<rect x="491.6" y="135.5" transform="matrix(0.7071 -0.7071 0.7071 0.7071 42.0275 411.8828)" class="st0" width="53.2" height="39.5"/>
		<text transform="matrix(0.7071 -0.7071 0.7071 0.7071 513.7972 165.2118)" class="st9 st2 st3 MarketsA">a</text>
		
			<rect x="572.8" y="216.7" transform="matrix(0.7071 -0.7071 0.7071 0.7071 8.3896 493.0918)" class="st0" width="53.2" height="39.5"/>
		<text transform="matrix(0.7071 -0.7071 0.7071 0.7071 595.8303 245.5971)" class="st9 st2 st3 MarketsA">k</text>
		
			<rect x="613.4" y="257.3" transform="matrix(0.7071 -0.7071 0.7071 0.7071 -8.4293 533.6964)" class="st0" width="53.2" height="39.5"/>
		<text transform="matrix(0.7071 -0.7071 0.7071 0.7071 637.0231 285.6129)" class="st9 st2 st3 MarketsA">e</text>
		
			<rect x="654" y="297.9" transform="matrix(0.7071 -0.7071 0.7071 0.7071 -25.2482 574.3009)" class="st0" width="53.2" height="39.5"/>
		<text transform="matrix(0.7071 -0.7071 0.7071 0.7071 677.5692 326.2767)" class="st9 st2 st3 MarketsA">t</text>
		
			<rect x="694.6" y="338.5" transform="matrix(0.7071 -0.7071 0.7071 0.7071 -42.0672 614.9054)" class="st0" width="53.2" height="39.5"/>
		<text transform="matrix(0.7071 -0.7071 0.7071 0.7071 718.2212 366.8347)" class="st9 st2 st3 MarketsA">s</text>
	</g>
	<g id="up">
		
			<rect x="369.8" y="176.1" transform="matrix(0.7071 -0.7071 0.7071 0.7071 -22.3626 337.6404)" class="st0" width="53.2" height="39.5"/>
		<text transform="matrix(0.7071 -0.7071 0.7071 0.7071 391.5717 206.2287)" class="st9 st2 st3 upA">u</text>
		
			<rect x="451" y="176.1" transform="matrix(0.7071 -0.7071 0.7071 0.7071 1.423 395.0638)" class="st0" width="53.2" height="39.5"/>
		<text transform="matrix(0.7071 -0.7071 0.7071 0.7071 474.134 204.8749)" class="st9 st2 st3 upA">p</text>
	</g>
	<g id="puplic">
		
			<rect x="694.6" y="419.7" transform="matrix(0.7071 -0.7071 0.7071 0.7071 -99.4906 638.691)" class="st0" width="53.2" height="39.5"/>
		<text transform="matrix(0.7071 -0.7071 0.7071 0.7071 717.197 449.0674)" class="st9 st2 st3 puplicA">c</text>
		
			<rect x="491.6" y="216.7" transform="matrix(0.7071 -0.7071 0.7071 0.7071 -15.3959 435.6684)" class="st0" width="53.2" height="39.5"/>
		<text transform="matrix(0.7071 -0.7071 0.7071 0.7071 514.7391 245.4797)" class="st9 st2 st3 puplicA">p</text>
		
			<rect x="532.2" y="257.3" transform="matrix(0.7071 -0.7071 0.7071 0.7071 -32.2149 476.2729)" class="st0" width="53.2" height="39.5"/>
		<text transform="matrix(0.7071 -0.7071 0.7071 0.7071 553.9908 287.438)" class="st9 st2 st3 puplicA">u</text>
		
			<rect x="572.8" y="297.9" transform="matrix(0.7071 -0.7071 0.7071 0.7071 -49.0338 516.8774)" class="st0" width="53.2" height="39.5"/>
		<text transform="matrix(0.7071 -0.7071 0.7071 0.7071 595.9475 326.6885)" class="st9 st2 st3 puplicA">p</text>
		
			<rect x="613.4" y="338.5" transform="matrix(0.7071 -0.7071 0.7071 0.7071 -65.8528 557.4819)" class="st0" width="53.2" height="39.5"/>
		<text transform="matrix(0.7071 -0.7071 0.7071 0.7071 637.2588 366.5871)" class="st9 st2 st3 puplicA">l</text>
		
			<rect x="654" y="379.1" transform="matrix(0.7071 -0.7071 0.7071 0.7071 -82.6717 598.0864)" class="st0" width="53.2" height="39.5"/>
		<text transform="matrix(0.7071 -0.7071 0.7071 0.7071 680.6058 404.45)" class="st9 st2 st3 puplicA">i</text>
	</g>
	<g id="Job">
		
			<rect x="572.8" y="379.1" transform="matrix(0.7071 -0.7071 0.7071 0.7071 -106.4573 540.663)" class="st0" width="53.2" height="39.5"/>
		<text transform="matrix(0.7071 -0.7071 0.7071 0.7071 597.8544 405.9915)" class="st9 st2 st3 JobA">j</text>
		
			<rect x="613.4" y="419.7" transform="matrix(0.7071 -0.7071 0.7071 0.7071 -123.2762 581.2675)" class="st0" width="53.2" height="39.5"/>
		<text transform="matrix(0.7071 -0.7071 0.7071 0.7071 634.705 450.3509)" class="st9 st2 st3 JobA">o</text>
		
			<rect x="654" y="460.3" transform="matrix(0.7071 -0.7071 0.7071 0.7071 -140.0952 621.872)" class="st0" width="53.2" height="39.5"/>
		<text transform="matrix(0.7071 -0.7071 0.7071 0.7071 677.0394 489.225)" class="st9 st2 st3 JobA">b</text>
	</g>
	<g id="GOT">
		
			<rect x="694.6" y="500.9" transform="matrix(0.7071 -0.7071 0.7071 0.7071 -156.9141 662.4766)" class="st0" width="53.2" height="39.5"/>
		<text transform="matrix(0.7071 -0.7071 0.7071 0.7071 716.4208 531.0549)" class="st9 st2 st3 GOTA">g</text>
		
			<rect x="735.2" y="460.3" transform="matrix(0.7071 -0.7071 0.7071 0.7071 -116.3096 679.2955)" class="st0" width="53.2" height="39.5"/>
		<text transform="matrix(0.7071 -0.7071 0.7071 0.7071 756.5189 490.9554)" class="st9 st2 st3 GOTA">o</text>
		
			<rect x="775.8" y="419.7" transform="matrix(0.7071 -0.7071 0.7071 0.7071 -75.7051 696.1144)" class="st0" width="53.2" height="39.5"/>
		<text transform="matrix(0.7071 -0.7071 0.7071 0.7071 799.3834 448.0909)" class="st9 st2 st3 GOTA">t</text>
	</g>
	<g id="Else">
		
			<rect x="410.4" y="541.5" transform="matrix(0.7071 -0.7071 0.7071 0.7071 -268.8754 473.3872)" class="st0" width="53.2" height="39.5"/>
		<text transform="matrix(0.7071 -0.7071 0.7071 0.7071 434.0006 569.8467)" class="st9 st2 st3 ElseA">e</text>
		
			<rect x="491.6" y="541.5" transform="matrix(0.7071 -0.7071 0.7071 0.7071 -245.0898 530.8107)" class="st0" width="53.2" height="39.5"/>
		<text transform="matrix(0.7071 -0.7071 0.7071 0.7071 515.4457 569.6115)" class="st9 st2 st3 ElseA">l</text>
		
			<rect x="572.8" y="541.5" transform="matrix(0.7071 -0.7071 0.7071 0.7071 -221.3042 588.2341)" class="st0" width="53.2" height="39.5"/>
		<text transform="matrix(0.7071 -0.7071 0.7071 0.7071 596.4066 569.8578)" class="st9 st2 st3 ElseA">s</text>
		
			<rect x="654" y="541.5" transform="matrix(0.7071 -0.7071 0.7071 0.7071 -197.5186 645.6576)" class="st0" width="53.2" height="39.5"/>
		<text transform="matrix(0.7071 -0.7071 0.7071 0.7071 677.6281 569.8463)" class="st9 st2 st3 ElseA">e</text>
	</g>
	<g id="SEO">
		
			<rect x="410.4" y="216.7" transform="matrix(0.7071 -0.7071 0.7071 0.7071 -39.1815 378.2449)" class="st0" width="53.2" height="39.5"/>
		<text transform="matrix(0.7071 -0.7071 0.7071 0.7071 433.9885 245.0205)" class="st9 st2 st3 SEOA">s</text>
		
			<rect x="451" y="257.3" transform="matrix(0.7071 -0.7071 0.7071 0.7071 -56.0005 418.8494)" class="st0" width="53.2" height="39.5"/>
		<text transform="matrix(0.7071 -0.7071 0.7071 0.7071 474.6053 285.6136)" class="st9 st2 st3 SEOA">e</text>
		
			<rect x="491.6" y="297.9" transform="matrix(0.7071 -0.7071 0.7071 0.7071 -72.8194 459.4539)" class="st0" width="53.2" height="39.5"/>
		<text transform="matrix(0.7071 -0.7071 0.7071 0.7071 512.8917 328.5372)" class="st9 st2 st3 SEOA">o</text>
	</g>
	<g id="SOCIAL">
		
			<rect x="44.9" y="419.7" transform="matrix(0.7071 -0.7071 0.7071 0.7071 -289.7753 179.3033)" class="st0" width="53.2" height="39.5"/>
		<text transform="matrix(0.7071 -0.7071 0.7071 0.7071 68.5462 448.0443)" class="st9 st2 st3 SOCIALA">s</text>
		
			<rect x="85.5" y="379.1" transform="matrix(0.7071 -0.7071 0.7071 0.7071 -249.1707 196.1222)" class="st0" width="53.2" height="39.5"/>
		<text transform="matrix(0.7071 -0.7071 0.7071 0.7071 106.8441 409.7464)" class="st9 st2 st3 SOCIALA">o</text>
		
			<rect x="126.1" y="338.5" transform="matrix(0.7071 -0.7071 0.7071 0.7071 -208.5662 212.9412)" class="st0" width="53.2" height="39.5"/>
		<text transform="matrix(0.7071 -0.7071 0.7071 0.7071 148.7318 367.8587)" class="st9 st2 st3 SOCIALA">c</text>
		
			<rect x="166.8" y="297.9" transform="matrix(0.7071 -0.7071 0.7071 0.7071 -167.9617 229.7601)" class="st0" width="53.2" height="39.5"/>
		<text transform="matrix(0.7071 -0.7071 0.7071 0.7071 193.3497 323.2408)" class="st9 st2 st3 SOCIALA">i</text>
		
			<rect x="207.4" y="257.3" transform="matrix(0.7071 -0.7071 0.7071 0.7071 -127.3572 246.579)" class="st0" width="53.2" height="39.5"/>
		<text transform="matrix(0.7071 -0.7071 0.7071 0.7071 229.5645 287.026)" class="st9 st2 st3 SOCIALA">a</text>
		
			<rect x="248" y="216.7" transform="matrix(0.7071 -0.7071 0.7071 0.7071 -86.7527 263.398)" class="st0" width="53.2" height="39.5"/>
		<text transform="matrix(0.7071 -0.7071 0.7071 0.7071 271.8171 244.7734)" class="st9 st2 st3 SOCIALA">l</text>
	</g>
	<g id="KEY">
		
			<rect x="126.1" y="419.7" transform="matrix(0.7071 -0.7071 0.7071 0.7071 -265.9897 236.7267)" class="st0" width="53.2" height="39.5"/>
		<text transform="matrix(0.7071 -0.7071 0.7071 0.7071 149.1792 448.6212)" class="st9 st2 st3 KEYA">k</text>
		
			<rect x="166.8" y="460.3" transform="matrix(0.7071 -0.7071 0.7071 0.7071 -282.8086 277.3313)" class="st0" width="53.2" height="39.5"/>
		<text transform="matrix(0.7071 -0.7071 0.7071 0.7071 190.372 488.637)" class="st9 st2 st3 KEYA">e</text>
		
			<rect x="207.4" y="500.9" transform="matrix(0.7071 -0.7071 0.7071 0.7071 -299.6276 317.9358)" class="st0" width="53.2" height="39.5"/>
		<text transform="matrix(0.7071 -0.7071 0.7071 0.7071 230.4002 529.8187)" class="st9 st2 st3 KEYA">y</text>
	</g>
	<g id="LOW">
		
			<rect x="126.1" y="500.9" transform="matrix(0.7071 -0.7071 0.7071 0.7071 -323.4131 260.5123)" class="st0" width="53.2" height="39.5"/>
		<text transform="matrix(0.7071 -0.7071 0.7071 0.7071 150.0025 529.0064)" class="st9 st2 st3 LOWA">l</text>
		
			<rect x="166.8" y="541.5" transform="matrix(0.7071 -0.7071 0.7071 0.7071 -340.2321 301.1168)" class="st0" width="53.2" height="39.5"/>
		<text transform="matrix(0.7071 -0.7071 0.7071 0.7071 188.0536 572.1653)" class="st9 st2 st3 LOWA">o</text>
		
			<rect x="207.4" y="582.1" transform="matrix(0.7071 -0.7071 0.7071 0.7071 -357.051 341.7213)" class="st0" width="53.2" height="39.5"/>
		<text transform="matrix(0.7071 -0.7071 0.7071 0.7071 226.8101 614.6173)" class="st9 st2 st3 LOWA">w</text>
	</g>
	<g id="DRAW">
		
			<rect x="248" y="622.7" transform="matrix(0.7071 -0.7071 0.7071 0.7071 -373.87 382.3259)" class="st0" width="53.2" height="39.5"/>
		<text transform="matrix(0.7071 -0.7071 0.7071 0.7071 269.5337 653.1037)" class="st9 st2 st3 DRAWA">d</text>
		
			<rect x="288.6" y="663.3" transform="matrix(0.7071 -0.7071 0.7071 0.7071 -390.6889 422.9304)" class="st0" width="53.2" height="39.5"/>
		<text transform="matrix(0.7071 -0.7071 0.7071 0.7071 311.6443 692.2017)" class="st9 st2 st3 DRAWA">r</text>
		
			<rect x="329.2" y="703.9" transform="matrix(0.7071 -0.7071 0.7071 0.7071 -407.5079 463.5349)" class="st0" width="53.2" height="39.5"/>
		<text transform="matrix(0.7071 -0.7071 0.7071 0.7071 351.379 733.6782)" class="st9 st2 st3 DRAWA">a</text>
		
			<rect x="369.8" y="744.6" transform="matrix(0.7071 -0.7071 0.7071 0.7071 -424.3268 504.1394)" class="st0" width="53.2" height="39.5"/>
		<text transform="matrix(0.7071 -0.7071 0.7071 0.7071 389.2286 777.0358)" class="st9 st2 st3 DRAWA">w</text>
	</g>
	<g id="KNOW">
		
			<rect x="288.6" y="582.1" transform="matrix(0.7071 -0.7071 0.7071 0.7071 -333.2654 399.1448)" class="st0" width="53.2" height="39.5"/>
		<text transform="matrix(0.7071 -0.7071 0.7071 0.7071 311.597 611.039)" class="st9 st2 st3 KNOWA">k</text>
		
			<rect x="329.2" y="622.7" transform="matrix(0.7071 -0.7071 0.7071 0.7071 -350.0844 439.7493)" class="st0" width="53.2" height="39.5"/>
		<text transform="matrix(0.7071 -0.7071 0.7071 0.7071 350.8374 653.0099)" class="st9 st2 st3 KNOWA">n</text>
		
			<rect x="369.8" y="663.3" transform="matrix(0.7071 -0.7071 0.7071 0.7071 -366.9034 480.3539)" class="st0" width="53.2" height="39.5"/>
		<text transform="matrix(0.7071 -0.7071 0.7071 0.7071 391.0768 693.979)" class="st9 st2 st3 KNOWA">o</text>
		
			<rect x="410.4" y="703.9" transform="matrix(0.7071 -0.7071 0.7071 0.7071 -383.7223 520.9584)" class="st0" width="53.2" height="39.5"/>
		<text transform="matrix(0.7071 -0.7071 0.7071 0.7071 429.8341 736.4317)" class="st9 st2 st3 KNOWA">w</text>
	</g>
	<g id="DRAFT">
		
			<rect x="451" y="744.6" transform="matrix(0.7071 -0.7071 0.7071 0.7071 -400.5412 561.5629)" class="st0" width="53.2" height="39.5"/>
		<text transform="matrix(0.7071 -0.7071 0.7071 0.7071 472.5569 774.9174)" class="st9 st2 st3 DRAFTA">d</text>
		
			<rect x="491.6" y="703.9" transform="matrix(0.7071 -0.7071 0.7071 0.7071 -359.9367 578.3818)" class="st0" width="53.2" height="39.5"/>
		<text transform="matrix(0.7071 -0.7071 0.7071 0.7071 514.6686 732.8071)" class="st9 st2 st3 DRAFTA">r</text>
		
			<rect x="532.2" y="663.3" transform="matrix(0.7071 -0.7071 0.7071 0.7071 -319.3322 595.2008)" class="st0" width="53.2" height="39.5"/>
		<text transform="matrix(0.7071 -0.7071 0.7071 0.7071 554.4017 693.0726)" class="st9 st2 st3 DRAFTA">a</text>
		
			<rect x="572.8" y="622.7" transform="matrix(0.7071 -0.7071 0.7071 0.7071 -278.7277 612.0197)" class="st0" width="53.2" height="39.5"/>
		<text transform="matrix(0.7071 -0.7071 0.7071 0.7071 596.4774 650.9969)" class="st9 st2 st3 DRAFTA">f</text>
		
			<rect x="613.4" y="582.1" transform="matrix(0.7071 -0.7071 0.7071 0.7071 -238.1232 628.8387)" class="st0" width="53.2" height="39.5"/>
		<text transform="matrix(0.7071 -0.7071 0.7071 0.7071 636.9645 610.5098)" class="st9 st2 st3 DRAFTA">t</text>
	</g>
	<g id="AD">
		
			<rect x="491.6" y="622.7" transform="matrix(0.7071 -0.7071 0.7071 0.7071 -302.5132 554.5963)" class="st0" width="53.2" height="39.5"/>
		<text transform="matrix(0.7071 -0.7071 0.7071 0.7071 513.7974 652.4684)" class="st9 st2 st3 ADA">a</text>
		
			<rect x="532.2" y="582.1" transform="matrix(0.7071 -0.7071 0.7071 0.7071 -261.9087 571.4152)" class="st0" width="53.2" height="39.5"/>
		<text transform="matrix(0.7071 -0.7071 0.7071 0.7071 553.7661 612.4983)" class="st9 st2 st3 ADA">d</text>
	</g>
	<g id="ANALISIS">
		
			<rect x="166.8" y="379.1" transform="matrix(0.7071 -0.7071 0.7071 0.7071 -225.3852 253.5457)" class="st0" width="53.2" height="39.5"/>
		<text transform="matrix(0.7071 -0.7071 0.7071 0.7071 188.96 408.8404)" class="st9 st2 st3 ANALISISA">a</text>
		
			<rect x="207.4" y="419.7" transform="matrix(0.7071 -0.7071 0.7071 0.7071 -242.2041 294.1502)" class="st0" width="53.2" height="39.5"/>
		<text transform="matrix(0.7071 -0.7071 0.7071 0.7071 229.023 449.986)" class="st9 st2 st3 ANALISISA">n</text>
		
			<rect x="248" y="460.3" transform="matrix(0.7071 -0.7071 0.7071 0.7071 -259.023 334.7547)" class="st0" width="53.2" height="39.5"/>
		<text transform="matrix(0.7071 -0.7071 0.7071 0.7071 270.1692 490.0497)" class="st9 st2 st3 ANALISISA">a</text>
		
			<rect x="288.6" y="500.9" transform="matrix(0.7071 -0.7071 0.7071 0.7071 -275.842 375.3592)" class="st0" width="53.2" height="39.5"/>
		<text transform="matrix(0.7071 -0.7071 0.7071 0.7071 312.4219 529.0069)" class="st9 st2 st3 ANALISISA">l</text>
		
			<rect x="329.2" y="541.5" transform="matrix(0.7071 -0.7071 0.7071 0.7071 -292.6609 415.9637)" class="st0" width="53.2" height="39.5"/>
		<text transform="matrix(0.7071 -0.7071 0.7071 0.7071 355.7684 566.869)" class="st9 st2 st3 ANALISISA">i</text>
		
			<rect x="369.8" y="582.1" transform="matrix(0.7071 -0.7071 0.7071 0.7071 -309.4799 456.5683)" class="st0" width="53.2" height="39.5"/>
		<text transform="matrix(0.7071 -0.7071 0.7071 0.7071 393.3834 610.4625)" class="st9 st2 st3 ANALISISA">s</text>
		
			<rect x="410.4" y="622.7" transform="matrix(0.7071 -0.7071 0.7071 0.7071 -326.2988 497.1728)" class="st0" width="53.2" height="39.5"/>
		<text transform="matrix(0.7071 -0.7071 0.7071 0.7071 436.9784 648.0789)" class="st9 st2 st3 ANALISISA">i</text>
		
			<rect x="451" y="663.3" transform="matrix(0.7071 -0.7071 0.7071 0.7071 -343.1178 537.7773)" class="st0" width="53.2" height="39.5"/>
		<text transform="matrix(0.7071 -0.7071 0.7071 0.7071 474.5926 691.6718)" class="st9 st2 st3 ANALISISA">s</text>
	</g>
	<g id="Easy">
		
			<rect x="207.4" y="338.5" transform="matrix(0.7071 -0.7071 0.7071 0.7071 -184.7806 270.3646)" class="st0" width="53.2" height="39.5"/>
		<text transform="matrix(0.7071 -0.7071 0.7071 0.7071 230.9771 366.8233)" class="st9 st2 st3 EasyA">e</text>
		
			<rect x="248" y="379.1" transform="matrix(0.7071 -0.7071 0.7071 0.7071 -201.5996 310.9691)" class="st0" width="53.2" height="39.5"/>
		<text transform="matrix(0.7071 -0.7071 0.7071 0.7071 270.169 408.8399)" class="st9 st2 st3 EasyA">a</text>
		
			<rect x="288.6" y="419.7" transform="matrix(0.7071 -0.7071 0.7071 0.7071 -218.4185 351.5737)" class="st0" width="53.2" height="39.5"/>
		<text transform="matrix(0.7071 -0.7071 0.7071 0.7071 312.1746 448.0443)" class="st9 st2 st3 EasyA">s</text>
		
			<rect x="329.2" y="460.3" transform="matrix(0.7071 -0.7071 0.7071 0.7071 -235.2375 392.1782)" class="st0" width="53.2" height="39.5"/>
		<text transform="matrix(0.7071 -0.7071 0.7071 0.7071 352.2147 489.2141)" class="st9 st2 st3 EasyA">y</text>
	</g>
	<g id="GAME">
		
			<rect x="248" y="297.9" transform="matrix(0.7071 -0.7071 0.7071 0.7071 -144.1761 287.1836)" class="st0" width="53.2" height="39.5"/>
		<text transform="matrix(0.7071 -0.7071 0.7071 0.7071 269.7693 328.0311)" class="st9 st2 st3 GAMEA">g</text>
		
			<rect x="288.6" y="338.5" transform="matrix(0.7071 -0.7071 0.7071 0.7071 -160.9951 327.7881)" class="st0" width="53.2" height="39.5"/>
		<text transform="matrix(0.7071 -0.7071 0.7071 0.7071 310.7737 368.2352)" class="st9 st2 st3 GAMEA">a</text>
		
			<rect x="329.2" y="379.1" transform="matrix(0.7071 -0.7071 0.7071 0.7071 -177.814 368.3926)" class="st0" width="53.2" height="39.5"/>
		<text transform="matrix(0.7071 -0.7071 0.7071 0.7071 349.1191 411.0997)" class="st9 st2 st3 GAMEA">m</text>
		
			<rect x="369.8" y="419.7" transform="matrix(0.7071 -0.7071 0.7071 0.7071 -194.6329 408.9971)" class="st0" width="53.2" height="39.5"/>
		<text transform="matrix(0.7071 -0.7071 0.7071 0.7071 393.3961 448.0327)" class="st9 st2 st3 GAMEA">e</text>
	</g>
	<g id="NET">
		
			<rect x="451" y="419.7" transform="matrix(0.7071 -0.7071 0.7071 0.7071 -170.8474 466.4206)" class="st0" width="53.2" height="39.5"/>
		<text transform="matrix(0.7071 -0.7071 0.7071 0.7071 472.6514 449.986)" class="st9 st2 st3 NETA">n</text>
		
			<rect x="491.6" y="460.3" transform="matrix(0.7071 -0.7071 0.7071 0.7071 -187.6663 507.0251)" class="st0" width="53.2" height="39.5"/>
		<text transform="matrix(0.7071 -0.7071 0.7071 0.7071 515.21 488.6373)" class="st9 st2 st3 NETA">e</text>
		
			<rect x="532.2" y="500.9" transform="matrix(0.7071 -0.7071 0.7071 0.7071 -204.4853 547.6296)" class="st0" width="53.2" height="39.5"/>
		<text transform="matrix(0.7071 -0.7071 0.7071 0.7071 555.7559 529.3013)" class="st9 st2 st3 NETA">t</text>
	</g>
	<g id="USE">
		
			<rect x="288.6" y="257.3" transform="matrix(0.7071 -0.7071 0.7071 0.7071 -103.5716 304.0025)" class="st0" width="53.2" height="39.5"/>
		<text transform="matrix(0.7071 -0.7071 0.7071 0.7071 310.3624 287.438)" class="st9 st2 st3 USEA">u</text>
		
			<rect x="329.2" y="297.9" transform="matrix(0.7071 -0.7071 0.7071 0.7071 -120.3905 344.607)" class="st0" width="53.2" height="39.5"/>
		<text transform="matrix(0.7071 -0.7071 0.7071 0.7071 352.779 326.2299)" class="st9 st2 st3 USEA">s</text>
		
			<rect x="369.8" y="338.5" transform="matrix(0.7071 -0.7071 0.7071 0.7071 -137.2095 385.2115)" class="st0" width="53.2" height="39.5"/>
		<text transform="matrix(0.7071 -0.7071 0.7071 0.7071 393.3958 366.823)" class="st9 st2 st3 USEA">e</text>
	</g>
	<g id="CREATIVE">
		
			<rect x="329.2" y="216.7" transform="matrix(0.7071 -0.7071 0.7071 0.7071 -62.9671 320.8214)" class="st0" width="53.2" height="39.5"/>
		<text transform="matrix(0.7071 -0.7071 0.7071 0.7071 351.7557 246.0447)" class="st9 st2 st3 CREATIVEA">c</text>
		
			<rect x="369.8" y="257.3" transform="matrix(0.7071 -0.7071 0.7071 0.7071 -79.786 361.426)" class="st0" width="53.2" height="39.5"/>
		<text transform="matrix(0.7071 -0.7071 0.7071 0.7071 392.8542 286.1548)" class="st9 st2 st3 CREATIVEA">r</text>
		
			<rect x="410.4" y="297.9" transform="matrix(0.7071 -0.7071 0.7071 0.7071 -96.605 402.0305)" class="st0" width="53.2" height="39.5"/>
		<text transform="matrix(0.7071 -0.7071 0.7071 0.7071 434.0006 326.2183)" class="st9 st2 st3 CREATIVEA">e</text>
		
			<rect x="451" y="338.5" transform="matrix(0.7071 -0.7071 0.7071 0.7071 -113.4239 442.635)" class="st0" width="53.2" height="39.5"/>
		<text transform="matrix(0.7071 -0.7071 0.7071 0.7071 473.1931 368.2357)" class="st9 st2 st3 CREATIVEA">a</text>
		
			<rect x="491.6" y="379.1" transform="matrix(0.7071 -0.7071 0.7071 0.7071 -130.2429 483.2395)" class="st0" width="53.2" height="39.5"/>
		<text transform="matrix(0.7071 -0.7071 0.7071 0.7071 515.1509 407.4865)" class="st9 st2 st3 CREATIVEA">t</text>
		
			<rect x="532.2" y="419.7" transform="matrix(0.7071 -0.7071 0.7071 0.7071 -147.0618 523.8441)" class="st0" width="53.2" height="39.5"/>
		<text transform="matrix(0.7071 -0.7071 0.7071 0.7071 558.7923 445.055)" class="st9 st2 st3 CREATIVEA">i</text>
		
			<rect x="572.8" y="460.3" transform="matrix(0.7071 -0.7071 0.7071 0.7071 -163.8807 564.4485)" class="st0" width="53.2" height="39.5"/>
		<text transform="matrix(0.7071 -0.7071 0.7071 0.7071 595.642 489.4138)" class="st9 st2 st3 CREATIVEA">v</text>
		
			<rect x="613.4" y="500.9" transform="matrix(0.7071 -0.7071 0.7071 0.7071 -180.6997 605.0531)" class="st0" width="53.2" height="39.5"/>
		<text transform="matrix(0.7071 -0.7071 0.7071 0.7071 637.0237 529.2421)" class="st9 st2 st3 CREATIVEA">e</text>
	</g>
	<g id="OVERWORDSLINES">
		<line class="st10" x1="364.6" y1="190.9" x2="500" y2="190.9"/>
		<line class="st10" x1="403.1" y1="556.3" x2="702.1" y2="556.3"/>
		<line class="st10" x1="174.7" y1="380.2" x2="485.9" y2="691.4"/>
		<line class="st10" x1="580" y1="379.4" x2="689" y2="488.4"/>
		<line class="st10" x1="138.8" y1="506.7" x2="241.2" y2="609.1"/>
		<line class="st10" x1="257.7" y1="625.6" x2="398.5" y2="766.4"/>
		<line class="st10" x1="134.2" y1="420.6" x2="241.5" y2="527.9"/>
		<line class="st10" x1="298.9" y1="585.3" x2="445.5" y2="731.9"/>
		<line class="st10" x1="215.4" y1="339.4" x2="360.7" y2="484.7"/>
		<line class="st10" x1="455.9" y1="417.7" x2="567.3" y2="529.2"/>
		<line class="st10" x1="458.9" y1="95.9" x2="729.2" y2="366.2"/>
		<line class="st10" x1="255.9" y1="299" x2="401.2" y2="444.3"/>
		<line class="st10" x1="296.5" y1="258.4" x2="403.7" y2="365.6"/>
		<line class="st10" x1="497.5" y1="217" x2="729" y2="448.4"/>
		<line class="st10" x1="337.1" y1="217.8" x2="648.3" y2="529"/>
		<line class="st10" x1="418.5" y1="217.9" x2="525.4" y2="324.8"/>
		<line class="st10" x1="460.2" y1="772.1" x2="647.6" y2="584.7"/>
		<line class="st10" x1="499.2" y1="652.5" x2="567.2" y2="584.5"/>
		<line class="st10" x1="703.4" y1="528.9" x2="809.5" y2="422.8"/>
		<line class="st10" x1="54.6" y1="446.7" x2="282.1" y2="219.2"/>
		<line class="st10" x1="337.9" y1="163.4" x2="447.8" y2="53.6"/>
	</g>
</g>
</svg>
