<?xml version="1.0" encoding="utf-8"?>
<!-- Generator: Adobe Illustrator 19.0.0, SVG Export Plug-In . SVG Version: 6.00 Build 0)  -->
<svg version="1.1" id="Layer_1" xmlns="http://www.w3.org/2000/svg" xmlns:xlink="http://www.w3.org/1999/xlink" x="0px" y="0px"
	 viewBox="0 0 1920 1080" style="enable-background:new 0 0 1920 1080;" xml:space="preserve">
<style type="text/css">
	.st0{fill:#333333;}
	.st1{fill:#FFFFFF;}
	.st2{fill:#EF5C78;}
</style>
<polygon id="XMLID_88_" class="st0" points="960,0 0,0 0,70.5 960,163.5 1920,70.5 1920,0 "/>
<polygon id="XMLID_89_" class="st1" points="960,0.3 960,0.3 0,0.3 960,180.3 1920,0.3 "/>
<polygon id="XMLID_92_" class="st2" points="960,0.3 960,0.3 88.5,0.3 960,180.3 1831.5,0.3 "/>
<g id="XMLID_85_">
	<path id="XMLID_20_" class="st1" d="M999,110.1c-0.5,0-0.9-0.4-0.9-0.9V31.3c0-0.5,0.4-0.9,0.9-0.9s0.9,0.4,0.9,0.9v77.9
		C999.9,109.7,999.5,110.1,999,110.1"/>
	<path id="XMLID_19_" class="st1" d="M921.1,157.4c-0.5,0-0.9-0.4-0.9-0.9V78.6c0-0.5,0.4-0.9,0.9-0.9c0.5,0,0.9,0.4,0.9,0.9v77.9
		C922,157,921.6,157.4,921.1,157.4"/>
	<path id="XMLID_18_" class="st1" d="M1047.3,56.1h-204c-0.5,0-0.9-0.4-0.9-0.9c0-0.5,0.4-0.9,0.9-0.9h204c0.5,0,0.9,0.4,0.9,0.9
		C1048.2,55.7,1047.8,56.1,1047.3,56.1"/>
	<path id="XMLID_17_" class="st1" d="M1076.7,133.8h-204c-0.5,0-0.9-0.4-0.9-0.9c0-0.5,0.4-0.9,0.9-0.9h204c0.5,0,0.9,0.4,0.9,0.9
		C1077.5,133.4,1077.2,133.8,1076.7,133.8"/>
	<path id="XMLID_16_" class="st0" d="M890.6,90.6l21.3-21.3c1.4-1.4,1.4-3.6,0-4.9c-1.4-1.4-3.6-1.4-4.9,0l-24.7,24.7l-24.7-24.7
		c-1.4-1.4-3.6-1.4-4.9,0c-1.4,1.4-1.4,3.6,0,4.9l21.3,21.3L890.6,90.6z"/>
	<path id="XMLID_15_" class="st0" d="M873.8,97.6l-21.2,21.2c-1.4,1.4-1.4,3.6,0,4.9c1.4,1.4,3.6,1.4,4.9,0L882.3,99l24.7,24.7
		c1.4,1.4,3.6,1.4,4.9,0c1.4-1.4,1.4-3.6,0-4.9l-21.2-21.2L873.8,97.6z"/>
	<path id="XMLID_14_" class="st1" d="M935.3,90.6c1.7-12.3,12.2-21.7,24.9-21.7c8.2,0,15.6,4,20.2,10.2c1,1.4,3,1.7,4.4,0.8
		c1.8-1.1,2.3-3.5,1-5.1c-5.9-7.8-15.2-12.8-25.6-12.8c-16.6,0-30.2,12.6-31.9,28.7L935.3,90.6z"/>
	<path id="XMLID_13_" class="st1" d="M985.1,97.6c-1.7,12.2-12.2,21.6-24.9,21.6c-12.7,0-23.1-9.4-24.9-21.6l-7,0
		c1.8,16.1,15.4,28.6,31.9,28.6c16.5,0,30.2-12.5,31.9-28.6L985.1,97.6z"/>
	<path id="XMLID_12_" class="st1" d="M1013.2,90.6c1.7-12.2,12.2-21.7,24.9-21.7c12.7,0,23.2,9.4,24.9,21.7l7,0
		c-1.7-16.1-15.4-28.6-31.9-28.6c-16.6,0-30.2,12.6-31.9,28.7L1013.2,90.6z"/>
	<path id="XMLID_11_" class="st1" d="M1063,97.5c-1.7,12.2-12.2,21.7-24.9,21.7c-12.7,0-23.2-9.4-24.9-21.6l-7,0
		c1.8,16.1,15.4,28.6,31.9,28.6c16.6,0,30.2-12.5,31.9-28.6L1063,97.5z"/>
	<path id="XMLID_10_" class="st1" d="M960.2,94.1L960.2,94.1c0-1.9,1.6-3.5,3.5-3.5l21.4,0l0,7l-21.4,0
		C961.8,97.6,960.2,96,960.2,94.1"/>
	<path id="XMLID_7_" class="st0" d="M949.6,156h-1.7c-0.2,0-0.3,0-0.5-0.1c-0.1-0.1-0.2-0.2-0.3-0.4l-1.5-3.8h-7.1l-1.5,3.8
		c0,0.1-0.1,0.3-0.3,0.4c-0.1,0.1-0.3,0.2-0.5,0.2h-1.7l6.4-15.9h2.2L949.6,156z M945.1,150.1l-2.5-6.5c-0.1-0.2-0.2-0.4-0.2-0.7
		c-0.1-0.3-0.2-0.5-0.2-0.8c-0.2,0.6-0.3,1.1-0.5,1.5l-2.5,6.5H945.1z"/>
	<path id="XMLID_6_" class="st0" d="M972.7,148.3v6.1c-0.8,0.6-1.7,1-2.6,1.3c-0.9,0.3-1.9,0.4-3,0.4c-1.3,0-2.4-0.2-3.5-0.6
		c-1-0.4-1.9-0.9-2.6-1.7c-0.7-0.7-1.3-1.6-1.7-2.6c-0.4-1-0.6-2.1-0.6-3.3c0-1.2,0.2-2.3,0.6-3.3c0.4-1,0.9-1.9,1.6-2.6
		c0.7-0.7,1.6-1.3,2.6-1.7c1-0.4,2.1-0.6,3.4-0.6c0.6,0,1.2,0,1.8,0.1c0.5,0.1,1,0.2,1.5,0.4c0.5,0.2,0.9,0.4,1.3,0.6
		c0.4,0.2,0.8,0.5,1.1,0.8l-0.6,1c-0.1,0.1-0.2,0.2-0.4,0.3c-0.2,0-0.3,0-0.5-0.1c-0.2-0.1-0.4-0.2-0.6-0.4
		c-0.2-0.1-0.5-0.3-0.8-0.4c-0.3-0.1-0.7-0.3-1.2-0.4c-0.5-0.1-1-0.1-1.6-0.1c-0.9,0-1.7,0.1-2.4,0.4c-0.7,0.3-1.3,0.7-1.9,1.3
		c-0.5,0.5-0.9,1.2-1.2,2c-0.3,0.8-0.4,1.6-0.4,2.6c0,1,0.1,1.9,0.4,2.7c0.3,0.8,0.7,1.5,1.2,2c0.5,0.6,1.2,1,1.9,1.3
		c0.8,0.3,1.6,0.4,2.5,0.4c0.7,0,1.4-0.1,2-0.2c0.6-0.2,1.1-0.4,1.7-0.7V150h-2.5c-0.1,0-0.3,0-0.3-0.1c-0.1-0.1-0.1-0.2-0.1-0.3
		v-1.2H972.7z"/>
	<polygon id="XMLID_5_" class="st0" points="994.4,154.2 994.4,156 984.6,156 984.6,140.1 994.4,140.1 994.4,141.8 986.8,141.8 
		986.8,147.1 992.9,147.1 992.9,148.8 986.8,148.8 986.8,154.2 	"/>
	<path id="XMLID_4_" class="st0" d="M1018.9,140.1V156h-1.1c-0.2,0-0.3,0-0.4-0.1c-0.1-0.1-0.2-0.2-0.3-0.3l-9.2-12
		c0,0.2,0,0.4,0,0.5c0,0.2,0,0.3,0,0.5V156h-1.9v-15.9h1.1c0.1,0,0.2,0,0.2,0c0.1,0,0.1,0,0.2,0.1c0,0,0.1,0.1,0.2,0.1
		c0.1,0,0.1,0.1,0.2,0.2l9.2,12c0-0.2,0-0.4,0-0.6c0-0.2,0-0.4,0-0.5v-11.3H1018.9z"/>
	<path id="XMLID_3_" class="st0" d="M1042.7,152.7c0.1,0,0.2,0,0.3,0.1l0.9,0.9c-0.7,0.8-1.4,1.3-2.4,1.8c-0.9,0.4-2.1,0.6-3.4,0.6
		c-1.1,0-2.2-0.2-3.1-0.6c-0.9-0.4-1.7-1-2.4-1.7c-0.7-0.7-1.2-1.6-1.5-2.6c-0.4-1-0.5-2.1-0.5-3.3c0-1.2,0.2-2.3,0.6-3.3
		c0.4-1,0.9-1.9,1.6-2.6c0.7-0.7,1.5-1.3,2.5-1.7c1-0.4,2-0.6,3.2-0.6c1.1,0,2.1,0.2,3,0.5c0.9,0.4,1.6,0.9,2.3,1.5l-0.7,1
		c0,0.1-0.1,0.1-0.2,0.2c-0.1,0-0.2,0.1-0.3,0.1c-0.1,0-0.3-0.1-0.5-0.2c-0.2-0.1-0.4-0.3-0.8-0.5c-0.3-0.2-0.7-0.3-1.2-0.5
		c-0.5-0.1-1-0.2-1.7-0.2c-0.8,0-1.6,0.1-2.3,0.4c-0.7,0.3-1.3,0.7-1.8,1.2c-0.5,0.5-0.9,1.2-1.1,2c-0.3,0.8-0.4,1.7-0.4,2.6
		c0,1,0.1,1.9,0.4,2.7c0.3,0.8,0.7,1.4,1.2,2c0.5,0.5,1.1,0.9,1.7,1.2c0.7,0.3,1.4,0.4,2.2,0.4c0.5,0,0.9,0,1.3-0.1
		c0.4-0.1,0.7-0.1,1.1-0.3c0.3-0.1,0.6-0.3,0.9-0.4c0.3-0.2,0.6-0.4,0.8-0.6C1042.4,152.8,1042.5,152.7,1042.7,152.7"/>
	<path id="XMLID_2_" class="st0" d="M1060.9,149.6v6.3h-2.2v-6.3l-5.8-9.6h1.9c0.2,0,0.3,0,0.5,0.1c0.1,0.1,0.2,0.2,0.3,0.4l3.6,6.2
		c0.1,0.3,0.3,0.5,0.4,0.7c0.1,0.2,0.2,0.5,0.3,0.7c0.1-0.2,0.2-0.5,0.3-0.7c0.1-0.2,0.2-0.5,0.3-0.7l3.6-6.2
		c0.1-0.1,0.2-0.2,0.3-0.3c0.1-0.1,0.3-0.2,0.5-0.2h1.9L1060.9,149.6z"/>
</g>
</svg>
