<?xml version="1.0" encoding="utf-8"?>
<!-- Generator: Adobe Illustrator 19.0.0, SVG Export Plug-In . SVG Version: 6.00 Build 0)  -->
<svg version="1.1" id="Layer_1" xmlns="http://www.w3.org/2000/svg" xmlns:xlink="http://www.w3.org/1999/xlink" x="0px" y="0px"
	 viewBox="0 0 1920 1080" style="enable-background:new 0 0 1920 1080;" xml:space="preserve">
<style type="text/css">
	.st0{fill:#494C56;}
	.st1{fill:#64646D;}
    #xoLeft
    {
        -webkit-animation: slide-in-left 3s linear infinite forwards;
	            animation: slide-in-left 3s linear infinite forwards;
    }
    #xoRight
    {
        -webkit-animation: slide-in-right 3s linear infinite forwards;
	            animation: slide-in-right 3s linear infinite forwards;
    }
    #itemsup
    {
        -webkit-animation: slide-top 3s linear infinite forwards;
	            animation: slide-top 3s linear infinite forwards;
    }
    #itemsdown
    {
        -webkit-animation: slide-down 3s linear infinite forwards;
	            animation: slide-down 3s linear infinite forwards;
    }
    @-webkit-keyframes slide-in-right {
        0% {
            -webkit-transform: translateX(1000px);
                    transform: translateX(1000px);
            opacity: 0;
        }
        50% {
            -webkit-transform: translateX(0);
                    transform: translateX(0);
            opacity: 1;
        }
        100% {
            -webkit-transform: translateX(-1000px);
                    transform: translateX(-1000px);
            opacity: 0;
        }
    }
    @keyframes slide-in-right {
        0% {
            -webkit-transform: translateX(1000px);
                    transform: translateX(1000px);
            opacity: 0;
        }
        50% {
            -webkit-transform: translateX(0);
                    transform: translateX(0);
            opacity: 1;
        }
        100% {
            -webkit-transform: translateX(-1000px);
                    transform: translateX(-1000px);
            opacity: 0;
        }
    }
    @-webkit-keyframes slide-in-left {
        0% {
            -webkit-transform: translateX(-1000px);
                    transform: translateX(-1000px);
            opacity: 0;
        }
        50% {
            -webkit-transform: translateX(0);
                    transform: translateX(0);
            opacity: 1;
        }
        100% {
            -webkit-transform: translateX(1000px);
                    transform: translateX(1000px);
            opacity: 0;
        }
    }
    @keyframes slide-in-left {
        0% {
            -webkit-transform: translateX(-1000px);
                    transform: translateX(-1000px);
            opacity: 0;
        }
        50% {
            -webkit-transform: translateX(0);
                    transform: translateX(0);
            opacity: 1;
        }
        100% {
            -webkit-transform: translateX(1000px);
                    transform: translateX(1000px);
            opacity: 0;
        }
    }
    @-webkit-keyframes slide-top {
        0%,100% {
            -webkit-transform: translateY(0);
                    transform: translateY(0);
        }
        50% {
            -webkit-transform: translateY(-100px);
                    transform: translateY(-100px);
        }
    }
    @keyframes slide-top {
        0%,100% {
            -webkit-transform: translateY(0);
                    transform: translateY(0);
        }
        50% {
            -webkit-transform: translateY(-100px);
                    transform: translateY(-100px);
        }
    }
    @-webkit-keyframes slide-down {
        0%,100% {
            -webkit-transform: translateY(0);
                    transform: translateY(0);
        }
        50% {
            -webkit-transform: translateY(100px);
                    transform: translateY(100px);
        }
    }
    @keyframes slide-down {
        0%,100% {
            -webkit-transform: translateY(0);
                    transform: translateY(0);
        }
        50% {
            -webkit-transform: translateY(100px);
                    transform: translateY(100px);
        }
    }

</style>
<rect id="XMLID_28_" class="st0" width="1920" height="1080"/>
<g id="xoLeft">
	<path id="XMLID_156_" class="st1" d="M163.2,746.6c0.9,0,1.8,0.3,2.5,1c1.4,1.4,1.4,3.5,0,4.9l-54.1,54.1c-1.4,1.4-3.5,1.4-4.9,0
		c-1.4-1.4-1.4-3.5,0-4.9l54.1-54.1C161.4,746.9,162.3,746.6,163.2,746.6"/>
	<path id="XMLID_155_" class="st1" d="M109.1,746.6c0.9,0,1.8,0.3,2.5,1l54.1,54.1c1.4,1.4,1.4,3.5,0,4.9c-1.4,1.4-3.5,1.4-4.9,0
		l-54.1-54.1c-1.4-1.4-1.4-3.5,0-4.9C107.3,746.9,108.2,746.6,109.1,746.6"/>
	<path id="XMLID_152_" class="st1" d="M38.2,777.1c0-13.8,11.2-25,25-25c13.8,0,25,11.2,25,25c0,13.8-11.2,25-25,25
		C49.4,802.1,38.2,790.9,38.2,777.1 M31.3,777.1c0,17.6,14.3,31.9,31.9,31.9c17.6,0,31.9-14.3,31.9-31.9c0-17.6-14.3-31.9-31.9-31.9
		C45.6,745.2,31.3,759.5,31.3,777.1"/>
	<path id="XMLID_151_" class="st1" d="M311.5,746.6c0.9,0,1.8,0.3,2.5,1c1.4,1.4,1.4,3.5,0,4.9l-54.1,54.1c-1.4,1.4-3.5,1.4-4.9,0
		c-1.4-1.4-1.4-3.5,0-4.9l54.1-54.1C309.7,746.9,310.6,746.6,311.5,746.6"/>
	<path id="XMLID_150_" class="st1" d="M257.4,746.6c0.9,0,1.8,0.3,2.5,1l54.1,54.1c1.4,1.4,1.4,3.5,0,4.9c-1.4,1.4-3.5,1.4-4.9,0
		L255,752.5c-1.4-1.4-1.4-3.5,0-4.9C255.6,746.9,256.5,746.6,257.4,746.6"/>
	<path id="XMLID_147_" class="st1" d="M186.5,777.1c0-13.8,11.2-25,25-25c13.8,0,25,11.2,25,25c0,13.8-11.2,25-25,25
		C197.7,802.1,186.5,790.9,186.5,777.1 M179.6,777.1c0,17.6,14.3,31.9,31.9,31.9c17.6,0,31.9-14.3,31.9-31.9
		c0-17.6-14.3-31.9-31.9-31.9C193.9,745.2,179.6,759.5,179.6,777.1"/>
	<path id="XMLID_146_" class="st1" d="M459.8,746.6c0.9,0,1.8,0.3,2.5,1c1.4,1.4,1.4,3.5,0,4.9l-54.1,54.1c-1.4,1.4-3.5,1.4-4.9,0
		c-1.4-1.4-1.4-3.5,0-4.9l54.1-54.1C458.1,746.9,458.9,746.6,459.8,746.6"/>
	<path id="XMLID_145_" class="st1" d="M405.7,746.6c0.9,0,1.8,0.3,2.5,1l54.1,54.1c1.4,1.4,1.4,3.5,0,4.9c-1.4,1.4-3.5,1.4-4.9,0
		l-54.1-54.1c-1.4-1.4-1.4-3.5,0-4.9C404,746.9,404.9,746.6,405.7,746.6"/>
	<path id="XMLID_142_" class="st1" d="M334.9,777.1c0-13.8,11.2-25,25-25c13.8,0,25,11.2,25,25c0,13.8-11.2,25-25,25
		C346.1,802.1,334.9,790.9,334.9,777.1 M327.9,777.1c0,17.6,14.3,31.9,31.9,31.9c17.6,0,31.9-14.3,31.9-31.9
		c0-17.6-14.3-31.9-31.9-31.9C342.2,745.2,327.9,759.5,327.9,777.1"/>
</g>
<g id="xoRight">
	<path id="XMLID_141_" class="st1" d="M1242.4,951.4c0.9,0,1.8,0.3,2.5,1c1.4,1.4,1.4,3.5,0,4.9l-54.1,54.1c-1.4,1.4-3.5,1.4-4.9,0
		s-1.4-3.5,0-4.9l54.1-54.1C1240.7,951.8,1241.6,951.4,1242.4,951.4"/>
	<path id="XMLID_140_" class="st1" d="M1188.4,951.4c0.9,0,1.8,0.3,2.5,1l54.1,54.1c1.4,1.4,1.4,3.5,0,4.9s-3.5,1.4-4.9,0
		l-54.1-54.1c-1.4-1.4-1.4-3.5,0-4.9C1186.6,951.8,1187.5,951.4,1188.4,951.4"/>
	<path id="XMLID_137_" class="st1" d="M1117.5,981.9c0-13.8,11.2-25,25-25c13.8,0,25,11.2,25,25c0,13.8-11.2,25-25,25
		C1128.7,1006.9,1117.5,995.7,1117.5,981.9 M1110.6,981.9c0,17.6,14.3,31.9,31.9,31.9c17.6,0,31.9-14.3,31.9-31.9
		c0-17.6-14.3-31.9-31.9-31.9C1124.8,950,1110.6,964.3,1110.6,981.9"/>
	<path id="XMLID_136_" class="st1" d="M1390.8,951.4c0.9,0,1.8,0.3,2.5,1c1.4,1.4,1.4,3.5,0,4.9l-54.1,54.1c-1.4,1.4-3.6,1.4-4.9,0
		c-1.4-1.4-1.4-3.5,0-4.9l54.1-54.1C1389,951.8,1389.9,951.4,1390.8,951.4"/>
	<path id="XMLID_135_" class="st1" d="M1336.7,951.4c0.9,0,1.8,0.3,2.5,1l54.1,54.1c1.4,1.4,1.4,3.5,0,4.9s-3.5,1.4-4.9,0
		l-54.1-54.1c-1.4-1.4-1.4-3.5,0-4.9C1334.9,951.8,1335.8,951.4,1336.7,951.4"/>
	<path id="XMLID_132_" class="st1" d="M1265.8,981.9c0-13.8,11.2-25,25-25c13.8,0,25,11.2,25,25c0,13.8-11.2,25-25,25
		C1277,1006.9,1265.8,995.7,1265.8,981.9 M1258.9,981.9c0,17.6,14.3,31.9,31.9,31.9c17.6,0,31.9-14.3,31.9-31.9
		c0-17.6-14.3-31.9-31.9-31.9C1273.2,950,1258.9,964.3,1258.9,981.9"/>
	<path id="XMLID_131_" class="st1" d="M1539.1,951.4c0.9,0,1.8,0.3,2.5,1c1.4,1.4,1.4,3.5,0,4.9l-54.1,54.1c-1.4,1.4-3.5,1.4-4.9,0
		c-1.4-1.4-1.4-3.5,0-4.9l54.1-54.1C1537.3,951.8,1538.2,951.4,1539.1,951.4"/>
	<path id="XMLID_130_" class="st1" d="M1485,951.4c0.9,0,1.8,0.3,2.4,1l54.1,54.1c1.4,1.4,1.4,3.5,0,4.9c-1.4,1.4-3.5,1.4-4.9,0
		l-54.1-54.1c-1.4-1.4-1.4-3.5,0-4.9C1483.2,951.8,1484.1,951.4,1485,951.4"/>
	<path id="XMLID_127_" class="st1" d="M1414.1,981.9c0-13.8,11.2-25,25-25c13.8,0,25,11.2,25,25c0,13.8-11.2,25-25,25
		C1425.3,1006.9,1414.1,995.7,1414.1,981.9 M1407.2,981.9c0,17.6,14.3,31.9,31.9,31.9c17.6,0,31.9-14.3,31.9-31.9
		c0-17.6-14.3-31.9-31.9-31.9C1421.5,950,1407.2,964.3,1407.2,981.9"/>
	<path id="XMLID_126_" class="st1" d="M1687.4,951.4c0.9,0,1.8,0.3,2.5,1c1.4,1.4,1.4,3.5,0,4.9l-54.1,54.1c-1.4,1.4-3.5,1.4-4.9,0
		s-1.4-3.5,0-4.9l54.1-54.1C1685.7,951.8,1686.5,951.4,1687.4,951.4"/>
	<path id="XMLID_125_" class="st1" d="M1633.3,951.4c0.9,0,1.8,0.3,2.4,1l54.1,54.1c1.4,1.4,1.4,3.5,0,4.9c-1.4,1.4-3.5,1.4-4.9,0
		l-54.1-54.1c-1.4-1.4-1.4-3.5,0-4.9C1631.6,951.8,1632.5,951.4,1633.3,951.4"/>
	<path id="XMLID_122_" class="st1" d="M1562.5,981.9c0-13.8,11.2-25,25-25c13.8,0,25,11.2,25,25c0,13.8-11.2,25-25,25
		C1573.7,1006.9,1562.5,995.7,1562.5,981.9 M1555.5,981.9c0,17.6,14.3,31.9,31.9,31.9c17.6,0,31.9-14.3,31.9-31.9
		c0-17.6-14.3-31.9-31.9-31.9C1569.8,950,1555.5,964.3,1555.5,981.9"/>
	<path id="XMLID_121_" class="st1" d="M1835.8,951.4c0.9,0,1.8,0.3,2.5,1c1.4,1.4,1.4,3.5,0,4.9l-54.1,54.1c-1.4,1.4-3.5,1.4-4.9,0
		s-1.4-3.5,0-4.9l54.1-54.1C1834,951.8,1834.9,951.4,1835.8,951.4"/>
	<path id="XMLID_120_" class="st1" d="M1781.7,951.4c0.9,0,1.8,0.3,2.4,1l54.1,54.1c1.4,1.4,1.4,3.5,0,4.9c-1.4,1.4-3.5,1.4-4.9,0
		l-54.1-54.1c-1.4-1.4-1.4-3.5,0-4.9C1779.9,951.8,1780.8,951.4,1781.7,951.4"/>
	<path id="XMLID_117_" class="st1" d="M1710.8,981.9c0-13.8,11.2-25,25-25c13.8,0,25,11.2,25,25c0,13.8-11.2,25-25,25
		C1722,1006.9,1710.8,995.7,1710.8,981.9 M1703.9,981.9c0,17.6,14.3,31.9,31.9,31.9c17.6,0,31.9-14.3,31.9-31.9
		c0-17.6-14.3-31.9-31.9-31.9C1718.1,950,1703.9,964.3,1703.9,981.9"/>
</g>
<g id="itemsup">
	<polygon id="XMLID_98_" class="st1" points="763.6,425.3 760.2,425.3 760.2,479.8 748.6,479.8 748.6,758.5 760.2,758.5 
		760.2,778.8 763.6,778.8 763.6,758.5 778.3,758.5 778.3,479.8 763.6,479.8 	"/>
	<polygon id="XMLID_91_" class="st1" points="656.8,454.8 653.4,454.8 653.4,529 640.4,529 640.4,710.8 653.4,710.8 653.4,760.4 
		656.8,760.4 656.8,710.8 670.1,710.8 670.1,529 656.8,529 	"/>
	<polygon id="XMLID_90_" class="st1" points="874.6,417.6 871.3,417.6 871.3,490.7 859.5,490.7 859.5,611 871.3,611 871.3,672.9 
		874.6,672.9 874.6,611 889.2,611 889.2,490.7 874.6,490.7 	"/>
	<polygon id="XMLID_85_" class="st1" points="64.1,239.2 60.7,239.2 60.7,292.6 46.5,292.6 46.5,612.7 60.7,612.7 60.7,659.8 
		64.1,659.8 64.1,612.7 76.2,612.7 76.2,292.6 64.1,292.6 	"/>
	<polygon id="XMLID_83_" class="st1" points="165.6,198.2 162.2,198.2 162.2,279.3 149.4,279.3 149.4,394.7 162.2,394.7 
		162.2,473.7 165.6,473.7 165.6,394.7 179.1,394.7 179.1,279.3 165.6,279.3 	"/>
	<polygon id="XMLID_82_" class="st1" points="262.2,258.2 258.9,258.2 258.9,383.8 247.3,383.8 247.3,583 258.9,583 258.9,678.9 
		262.2,678.9 262.2,583 277,583 277,383.8 262.2,383.8 	"/>
	<polygon id="XMLID_79_" class="st1" points="373,378.9 369.6,378.9 369.6,412.1 357.6,412.1 357.6,546 369.6,546 369.6,573 
		373,573 373,546 387.4,546 387.4,412.1 373,412.1 	"/>
	<polygon id="XMLID_77_" class="st1" points="469.1,326.4 465.7,326.4 465.7,372.9 453,372.9 453,506.8 465.7,506.8 465.7,547 
		469.1,547 469.1,506.8 482.8,506.8 482.8,372.9 469.1,372.9 	"/>
	<polygon id="XMLID_75_" class="st1" points="568.6,17.1 565.2,17.1 565.2,87.6 551.5,87.6 551.5,327.1 565.2,327.1 565.2,360 
		568.6,360 568.6,327.1 581.2,327.1 581.2,87.6 568.6,87.6 	"/>
	<polygon id="XMLID_70_" class="st1" points="1779.9,671.3 1783.2,671.3 1783.2,632.6 1796.4,632.6 1796.4,456.8 1783.2,456.8 
		1783.2,447.6 1779.9,447.6 1779.9,456.8 1766.6,456.8 1766.6,632.6 1779.9,632.6 	"/>
	<polygon id="XMLID_68_" class="st1" points="1716.7,375 1720.1,375 1720.1,328.1 1731.7,328.1 1731.7,88.6 1720.1,88.6 
		1720.1,21.5 1716.7,21.5 1716.7,88.6 1701.9,88.6 1701.9,328.1 1716.7,328.1 	"/>
	<polygon id="XMLID_66_" class="st1" points="1823.5,383.4 1826.9,383.4 1826.9,321.5 1840.8,321.5 1840.8,193.1 1826.9,193.1 
		1826.9,140.5 1823.5,140.5 1823.5,193.1 1811,193.1 1811,321.5 1823.5,321.5 	"/>
	<polygon id="XMLID_64_" class="st1" points="1603.8,433.8 1607.1,433.8 1607.1,380.3 1621.4,380.3 1621.4,60.3 1607.1,60.3 
		1607.1,13.2 1603.8,13.2 1603.8,60.3 1591.6,60.3 1591.6,380.3 1603.8,380.3 	"/>
	<polygon id="XMLID_62_" class="st1" points="1502.3,474.7 1505.7,474.7 1505.7,393.7 1518.5,393.7 1518.5,278.3 1505.7,278.3 
		1505.7,199.3 1502.3,199.3 1502.3,278.3 1488.7,278.3 1488.7,393.7 1502.3,393.7 	"/>
	<polygon id="XMLID_61_" class="st1" points="1405.6,495.5 1409,495.5 1409,369.9 1420.6,369.9 1420.6,170.7 1409,170.7 1409,74.8 
		1405.6,74.8 1405.6,170.7 1390.8,170.7 1390.8,369.9 1405.6,369.9 	"/>
	<polygon id="XMLID_58_" class="st1" points="1294.9,294 1298.3,294 1298.3,260.9 1310.3,260.9 1310.3,127 1298.3,127 1298.3,100 
		1294.9,100 1294.9,127 1280.5,127 1280.5,260.9 1294.9,260.9 	"/>
	<polygon id="XMLID_56_" class="st1" points="1198.8,346.6 1202.2,346.6 1202.2,300.1 1214.8,300.1 1214.8,166.2 1202.2,166.2 
		1202.2,125.9 1198.8,125.9 1198.8,166.2 1185.1,166.2 1185.1,300.1 1198.8,300.1 	"/>
	<polygon id="XMLID_54_" class="st1" points="1099.3,655.8 1102.7,655.8 1102.7,585.3 1116.4,585.3 1116.4,345.8 1102.7,345.8 
		1102.7,313 1099.3,313 1099.3,345.8 1086.6,345.8 1086.6,585.3 1099.3,585.3 	"/>
	<polygon id="XMLID_52_" class="st1" points="992.2,634.4 995.6,634.4 995.6,564 1007.9,564 1007.9,443.7 995.6,443.7 995.6,380.4 
		992.2,380.4 992.2,443.7 978.2,443.7 978.2,564 992.2,564 	"/>
</g>
<g id="itemsdown">
	<polygon id="XMLID_94_" class="st1" points="707.7,359.4 704.3,359.4 704.3,394.3 692.2,394.3 692.2,570.1 704.3,570.1 
		704.3,689.7 707.7,689.7 707.7,570.1 721.9,570.1 721.9,394.3 707.7,394.3 	"/>
	<polygon id="XMLID_92_" class="st1" points="818.4,453.2 815.1,453.2 815.1,514.1 801.8,514.1 801.8,689.9 815.1,689.9 
		815.1,758.8 818.4,758.8 818.4,689.9 831.6,689.9 831.6,514.1 818.4,514.1 	"/>
	<polygon id="XMLID_84_" class="st1" points="116.4,274 113,274 113,354.4 99.8,354.4 99.8,544.9 113,544.9 113,627.5 116.4,627.5 
		116.4,544.9 129.5,544.9 129.5,354.4 116.4,354.4 	"/>
	<polygon id="XMLID_81_" class="st1" points="213.6,305.6 210.2,305.6 210.2,333.7 197.7,333.7 197.7,449.1 210.2,449.1 
		210.2,456.7 213.6,456.7 213.6,449.1 227.5,449.1 227.5,333.7 213.6,333.7 	"/>
	<polygon id="XMLID_80_" class="st1" points="320.7,290.1 317.3,290.1 317.3,301.1 304.3,301.1 304.3,435 317.3,435 317.3,485.6 
		320.7,485.6 320.7,435 334.1,435 334.1,301.1 320.7,301.1 	"/>
	<polygon id="XMLID_78_" class="st1" points="423.6,359.7 420.2,359.7 420.2,439.3 405.9,439.3 405.9,573.2 420.2,573.2 
		420.2,632.9 423.6,632.9 423.6,573.2 435.7,573.2 435.7,439.3 423.6,439.3 	"/>
	<polygon id="XMLID_76_" class="st1" points="515.5,269.3 512.1,269.3 512.1,296.2 498.6,296.2 498.6,424.7 512.1,424.7 512.1,547 
		515.5,547 515.5,424.7 528.4,424.7 528.4,296.2 515.5,296.2 	"/>
	<polygon id="XMLID_74_" class="st1" points="622.5,45.9 619.2,45.9 619.2,85.3 606,85.3 606,405.4 619.2,405.4 619.2,451 
		622.5,451 622.5,405.4 635.8,405.4 635.8,85.3 622.5,85.3 	"/>
	<polygon id="XMLID_73_" class="st1" points="675.7,38.6 672.3,38.6 672.3,109 660,109 660,229.2 672.3,229.2 672.3,292.6 
		675.7,292.6 675.7,229.2 689.7,229.2 689.7,109 675.7,109 	"/>
	<polygon id="XMLID_71_" class="st1" points="1903.6,681.5 1903.6,534.6 1889.5,534.6 1889.5,500 1886.1,500 1886.1,534.6 
		1873.8,534.6 1873.8,681.5 	"/>
	<polygon id="XMLID_69_" class="st1" points="1770.1,404.7 1773.5,404.7 1773.5,385.8 1786.2,385.8 1786.2,257.3 1773.5,257.3 
		1773.5,235.3 1770.1,235.3 1770.1,257.3 1756.5,257.3 1756.5,385.8 1770.1,385.8 	"/>
	<polygon id="XMLID_67_" class="st1" points="1883.7,363.7 1887.1,363.7 1887.1,239.9 1899,239.9 1899,112.5 1887.1,112.5 
		1887.1,58.1 1883.7,58.1 1883.7,112.5 1869.3,112.5 1869.3,239.9 1883.7,239.9 	"/>
	<polygon id="XMLID_65_" class="st1" points="1661.7,580.6 1665,580.6 1665,467.8 1677.2,467.8 1677.2,147.7 1665,147.7 1665,112.6 
		1661.7,112.6 1661.7,147.7 1647.4,147.7 1647.4,467.8 1661.7,467.8 	"/>
	<polygon id="XMLID_63_" class="st1" points="1551.5,399 1554.9,399 1554.9,318.6 1568.1,318.6 1568.1,128.1 1554.9,128.1 
		1554.9,45.5 1551.5,45.5 1551.5,128.1 1538.3,128.1 1538.3,318.6 1551.5,318.6 	"/>
	<polygon id="XMLID_60_" class="st1" points="1454.3,367.4 1457.6,367.4 1457.6,339.3 1470.2,339.3 1470.2,223.9 1457.6,223.9 
		1457.6,216.3 1454.3,216.3 1454.3,223.9 1440.4,223.9 1440.4,339.3 1454.3,339.3 	"/>
	<polygon id="XMLID_59_" class="st1" points="1347.2,382.9 1350.5,382.9 1350.5,371.9 1363.6,371.9 1363.6,238 1350.5,238 
		1350.5,187.4 1347.2,187.4 1347.2,238 1333.8,238 1333.8,371.9 1347.2,371.9 	"/>
	<polygon id="XMLID_57_" class="st1" points="1244.3,313.3 1247.7,313.3 1247.7,233.7 1261.9,233.7 1261.9,99.8 1247.7,99.8 
		1247.7,40 1244.3,40 1244.3,99.8 1232.2,99.8 1232.2,233.7 1244.3,233.7 	"/>
	<polygon id="XMLID_55_" class="st1" points="1152.4,403.6 1155.8,403.6 1155.8,376.8 1169.2,376.8 1169.2,248.3 1155.8,248.3 
		1155.8,125.9 1152.4,125.9 1152.4,248.3 1139.5,248.3 1139.5,376.8 1152.4,376.8 	"/>
	<polygon id="XMLID_53_" class="st1" points="1045.3,627.1 1048.7,627.1 1048.7,587.7 1061.9,587.7 1061.9,267.6 1048.7,267.6 
		1048.7,222 1045.3,222 1045.3,267.6 1032.1,267.6 1032.1,587.7 1045.3,587.7 	"/>
	<polygon id="XMLID_51_" class="st1" points="953.4,681.5 953.4,462.2 939.9,462.2 939.9,431.4 936.6,431.4 936.6,462.2 
		923.6,462.2 923.6,681.5 	"/>
</g>
</svg>
