<?xml version="1.0" encoding="utf-8"?>
<!-- Generator: Adobe Illustrator 19.0.0, SVG Export Plug-In . SVG Version: 6.00 Build 0)  -->
<svg version="1.1" id="Layer_1" xmlns="http://www.w3.org/2000/svg" xmlns:xlink="http://www.w3.org/1999/xlink" x="0px" y="0px"
	 viewBox="0 0 327.2 288.2" style="enable-background:new 0 0 327.2 288.2;" xml:space="preserve">
<style type="text/css">
	.st0{fill:#808184;}
	.st1{fill:#FFFFFF;}
	.st2{fill:#EF5C78;}

	#innerCycle
	{
		-webkit-animation: fade-in-loop-around 5s linear infinite;
				animation: fade-in-loop-around 5s linear infinite;
	}
	#outerCycle
	{
		-webkit-animation: fade-in-loop-around 10s linear infinite;
	        	animation: fade-in-loop-around 10s linear infinite;
	}
	#redLine
	{
		-webkit-animation: tilt-in-fwd-tl 0.6s cubic-bezier(0.250, 0.460, 0.450, 0.940) 1s both;
	        	animation: tilt-in-fwd-tl 0.6s cubic-bezier(0.250, 0.460, 0.450, 0.940) 1s both;
	}
	.st1
	{
		-webkit-animation: fade-in 0.5s linear;
	        	animation: fade-in 0.5s linear;
	}
	@-webkit-keyframes tilt-in-fwd-tl {
		0% {
			-webkit-transform: rotateY(-20deg) rotateX(35deg) translate(-300px, -300px) skew(35deg, -10deg);
					transform: rotateY(-20deg) rotateX(35deg) translate(-300px, -300px) skew(35deg, -10deg);
			opacity: 0;
		}
		100% {
			-webkit-transform: rotateY(0) rotateX(0deg) translate(0, 0) skew(0deg, 0deg);
					transform: rotateY(0) rotateX(0deg) translate(0, 0) skew(0deg, 0deg);
			opacity: 1;
		}
	}
	@keyframes tilt-in-fwd-tl {
		0% {
			-webkit-transform: rotateY(-20deg) rotateX(35deg) translate(-300px, -300px) skew(35deg, -10deg);
					transform: rotateY(-20deg) rotateX(35deg) translate(-300px, -300px) skew(35deg, -10deg);
			opacity: 0;
		}
		100% {
			-webkit-transform: rotateY(0) rotateX(0deg) translate(0, 0) skew(0deg, 0deg);
					transform: rotateY(0) rotateX(0deg) translate(0, 0) skew(0deg, 0deg);
			opacity: 1;
		}
	}
	
	@-webkit-keyframes fade-in-loop-around {
		0%,100% {
			-webkit-transform: rotate(0deg);
					transform: rotate(0deg);
			-webkit-transform-origin: 50% 50%;
        			transform-origin: 50% 50%;
			opacity: 0;
		}
		50% {
			-webkit-transform: rotate(-360deg);
					transform: rotate(-360deg);
			-webkit-transform-origin: 50% 50%;
        			transform-origin: 50% 50%;
			opacity: 1;
		}
	}
	@keyframes fade-in-loop-around {
		0%,100% {
			-webkit-transform: rotate(0deg);
					transform: rotate(0deg);
			-webkit-transform-origin: 50% 50%;
        			transform-origin: 50% 50%;
		}
		50% {
			-webkit-transform: rotate(-360deg);
					transform: rotate(-360deg);
			-webkit-transform-origin: 50% 50%;
        			transform-origin: 50% 50%;
		}
	}

	@-webkit-keyframes fade-in {
		0% {opacity: 0;}
		100% {opacity: 1;}
	}
	@keyframes fade-in {
		0% {opacity: 0;}
		100% {opacity: 1;}
	}
</style>
<g id="innerCycle">
	<path id="XMLID_7_" class="st1" d="M110.1,177.7c-15.3-24.4-12.5-57.1,8.8-78.3c21.2-21.2,53.9-24.1,78.3-8.7L209.8,78
		c-31.5-22.1-75.2-19.1-103.3,9c-28.1,28.1-31.1,71.8-9,103.3L110.1,177.7z"/>
	<path id="XMLID_6_" class="st1" d="M217.2,110.7c15.2,24.4,12.3,56.9-8.9,78.1c-21.2,21.2-53.7,24.1-78.1,8.9l-12.6,12.6
		c31.5,21.9,75,18.9,103.1-9.1c28.1-28.1,31.1-71.6,9.1-103.1L217.2,110.7z"/>
</g>
<g id="redLine">
	<path id="XMLID_5_" class="st2" d="M163.5,124.3L63.1,23.8c-5.5-5.5-14.5-5.5-20,0c-5.5,5.5-5.5,14.5,0,20l100.5,100.5L163.5,124.3
		z"/>
	<path id="XMLID_4_" class="st2" d="M163.5,164.3L264,264.8c5.5,5.5,14.5,5.5,20,0c5.5-5.5,5.5-14.5,0-20L183.6,144.3L163.5,164.3z"
		/>
</g>
<g id="outerCycle">
	<path id="XMLID_3_" class="st1" d="M82.1,205.7c-30.3-40-27.3-97.4,9.2-133.9c36.5-36.5,93.8-39.5,133.9-9.2l20.2-20.3
		C194.1,1,118.9,4.1,71.2,51.7C23.6,99.4,20.5,174.7,61.9,226L82.1,205.7z"/>
	<path id="XMLID_2_" class="st1" d="M245.2,82.6c30.2,40,27.2,97.3-9.3,133.8c-36.4,36.4-93.7,39.5-133.7,9.3L81.9,246
		c51.3,41.2,126.4,38,174-9.5c47.6-47.6,50.7-122.8,9.5-174.1L245.2,82.6z"/>
</g>
</svg>
