<?xml version="1.0" encoding="utf-8"?>
<!-- Generator: Adobe Illustrator 19.0.0, SVG Export Plug-In . SVG Version: 6.00 Build 0)  -->
<svg version="1.1" id="Layer_1" xmlns="http://www.w3.org/2000/svg" xmlns:xlink="http://www.w3.org/1999/xlink" x="0px" y="0px"
	 viewBox="0 0 156.7 88" style="enable-background:new 0 0 156.7 88;" xml:space="preserve">
<style type="text/css">
	.st0{fill:#333333;}
	.st1{fill:#FFFFFF;}
	.st2{fill:#F05B78;}

/**
 * ----------------------------------------
 * animation puff-in-top
 * ----------------------------------------
 */
@-webkit-keyframes puff-in-top {
  0% {
    -webkit-transform: scale(2);
            transform: scale(2);
    -webkit-transform-origin: 50% 0%;
            transform-origin: 50% 0%;
    -webkit-filter: blur(4px);
            filter: blur(4px);
    opacity: 0;
  }
  100% {
    -webkit-transform: scale(1);
            transform: scale(1);
    -webkit-transform-origin: 50% 0%;
            transform-origin: 50% 0%;
    -webkit-filter: blur(0px);
            filter: blur(0px);
    opacity: 1;
  }
}
@keyframes puff-in-top {
  0% {
    -webkit-transform: scale(2);
            transform: scale(2);
    -webkit-transform-origin: 50% 0%;
            transform-origin: 50% 0%;
    -webkit-filter: blur(4px);
            filter: blur(4px);
    opacity: 0;
  }
  100% {
    -webkit-transform: scale(1);
            transform: scale(1);
    -webkit-transform-origin: 50% 0%;
            transform-origin: 50% 0%;
    -webkit-filter: blur(0px);
            filter: blur(0px);
    opacity: 1;
  }
}
/**
 * ----------------------------------------
 * animation slide-in-blurred-right
 * ----------------------------------------
 */
@-webkit-keyframes slide-in-blurred-right {
  0% {
    -webkit-transform: translateX(1000px) scaleX(2.5) scaleY(0.2);
            transform: translateX(1000px) scaleX(2.5) scaleY(0.2);
    -webkit-transform-origin: 0% 50%;
            transform-origin: 0% 50%;
    -webkit-filter: blur(40px);
            filter: blur(40px);
    opacity: 0;
  }
  100% {
    -webkit-transform: translateX(0) scaleY(1) scaleX(1);
            transform: translateX(0) scaleY(1) scaleX(1);
    -webkit-transform-origin: 50% 50%;
            transform-origin: 50% 50%;
    -webkit-filter: blur(0);
            filter: blur(0);
    opacity: 1;
  }
}
@keyframes slide-in-blurred-right {
  0% {
    -webkit-transform: translateX(1000px) scaleX(2.5) scaleY(0.2);
            transform: translateX(1000px) scaleX(2.5) scaleY(0.2);
    -webkit-transform-origin: 0% 50%;
            transform-origin: 0% 50%;
    -webkit-filter: blur(40px);
            filter: blur(40px);
    opacity: 0;
  }
  100% {
    -webkit-transform: translateX(0) scaleY(1) scaleX(1);
            transform: translateX(0) scaleY(1) scaleX(1);
    -webkit-transform-origin: 50% 50%;
            transform-origin: 50% 50%;
    -webkit-filter: blur(0);
            filter: blur(0);
    opacity: 1;
  }
}
/**
 * ----------------------------------------
 * animation slide-in-blurred-left
 * ----------------------------------------
 */
@-webkit-keyframes slide-in-blurred-left {
  0% {
    -webkit-transform: translateX(-1000px) scaleX(2.5) scaleY(0.2);
            transform: translateX(-1000px) scaleX(2.5) scaleY(0.2);
    -webkit-transform-origin: 100% 50%;
            transform-origin: 100% 50%;
    -webkit-filter: blur(40px);
            filter: blur(40px);
    opacity: 0;
  }
  100% {
    -webkit-transform: translateX(0) scaleY(1) scaleX(1);
            transform: translateX(0) scaleY(1) scaleX(1);
    -webkit-transform-origin: 50% 50%;
            transform-origin: 50% 50%;
    -webkit-filter: blur(0);
            filter: blur(0);
    opacity: 1;
  }
}
@keyframes slide-in-blurred-left {
  0% {
    -webkit-transform: translateX(-1000px) scaleX(2.5) scaleY(0.2);
            transform: translateX(-1000px) scaleX(2.5) scaleY(0.2);
    -webkit-transform-origin: 100% 50%;
            transform-origin: 100% 50%;
    -webkit-filter: blur(40px);
            filter: blur(40px);
    opacity: 0;
  }
  100% {
    -webkit-transform: translateX(0) scaleY(1) scaleX(1);
            transform: translateX(0) scaleY(1) scaleX(1);
    -webkit-transform-origin: 50% 50%;
            transform-origin: 50% 50%;
    -webkit-filter: blur(0);
            filter: blur(0);
    opacity: 1;
  }
}
/**
 * ----------------------------------------
 * animation slide-in-blurred-top
 * ----------------------------------------
 */
@-webkit-keyframes slide-in-blurred-top {
  0% {
    -webkit-transform: translateY(-1000px) scaleY(2.5) scaleX(0.2);
            transform: translateY(-1000px) scaleY(2.5) scaleX(0.2);
    -webkit-transform-origin: 50% 0%;
            transform-origin: 50% 0%;
    -webkit-filter: blur(40px);
            filter: blur(40px);
    opacity: 0;
  }
  100% {
    -webkit-transform: translateY(0) scaleY(1) scaleX(1);
            transform: translateY(0) scaleY(1) scaleX(1);
    -webkit-transform-origin: 50% 50%;
            transform-origin: 50% 50%;
    -webkit-filter: blur(0);
            filter: blur(0);
    opacity: 1;
  }
}
@keyframes slide-in-blurred-top {
  0% {
    -webkit-transform: translateY(-1000px) scaleY(2.5) scaleX(0.2);
            transform: translateY(-1000px) scaleY(2.5) scaleX(0.2);
    -webkit-transform-origin: 50% 0%;
            transform-origin: 50% 0%;
    -webkit-filter: blur(40px);
            filter: blur(40px);
    opacity: 0;
  }
  100% {
    -webkit-transform: translateY(0) scaleY(1) scaleX(1);
            transform: translateY(0) scaleY(1) scaleX(1);
    -webkit-transform-origin: 50% 50%;
            transform-origin: 50% 50%;
    -webkit-filter: blur(0);
            filter: blur(0);
    opacity: 1;
  }
}
: translateY(0) scaleY(1) scaleX(1);
    -webkit-transform-origin: 50% 50%;
            transform-origin: 50% 50%;
    -webkit-filter: blur(0);
            filter: blur(0);
    opacity: 1;
  }
}
@keyframes slide-in-blurred-bottom {
  0% {
    -webkit-transform: translateY(1000px) scaleY(2.5) scaleX(0.2);
            transform: translateY(1000px) scaleY(2.5) scaleX(0.2);
    -webkit-transform-origin: 50% 100%;
            transform-origin: 50% 100%;
    -webkit-filter: blur(40px);
            filter: blur(40px);
    opacity: 0;
  }
  100% {
    -webkit-transform: translateY(0) scaleY(1) scaleX(1);
            transform: translateY(0) scaleY(1) scaleX(1);
    -webkit-transform-origin: 50% 50%;
            transform-origin: 50% 50%;
    -webkit-filter: blur(0);
            filter: blur(0);
    opacity: 1;
  }
}
/**
 * ----------------------------------------
 * animation slide-in-elliptic-right-bck
 * ----------------------------------------
 */
@-webkit-keyframes slide-in-elliptic-right-bck {
  0% {
    -webkit-transform: translateX(800px) rotateY(30deg) scale(6.5);
            transform: translateX(800px) rotateY(30deg) scale(6.5);
    -webkit-transform-origin: -100% 50%;
            transform-origin: -100% 50%;
    opacity: 0;
  }
  100% {
    -webkit-transform: translateX(0) rotateY(0) scale(1);
            transform: translateX(0) rotateY(0) scale(1);
    -webkit-transform-origin: 600px 50%;
            transform-origin: 600px 50%;
    opacity: 1;
  }
}
@keyframes slide-in-elliptic-right-bck {
  0% {
    -webkit-transform: translateX(800px) rotateY(30deg) scale(6.5);
            transform: translateX(800px) rotateY(30deg) scale(6.5);
    -webkit-transform-origin: -100% 50%;
            transform-origin: -100% 50%;
    opacity: 0;
  }
  100% {
    -webkit-transform: translateX(0) rotateY(0) scale(1);
            transform: translateX(0) rotateY(0) scale(1);
    -webkit-transform-origin: 600px 50%;
            transform-origin: 600px 50%;
    opacity: 1;
  }
}
/**
 * ----------------------------------------
 * animation fade-out
 * ----------------------------------------
 */
@-webkit-keyframes fade-out {
  0% {
    opacity: 1;
  }
  100% {
    opacity: 0;
  }
}
@keyframes fade-out {
  0% {
    opacity: 1;
  }
  100% {
    opacity: 0;
  }
}
/**
 * ----------------------------------------
 * animation bounce-in-right
 * ----------------------------------------
 */
@-webkit-keyframes bounce-in-right {
  0% {
    -webkit-transform: translateX(600px);
            transform: translateX(600px);
    -webkit-animation-timing-function: ease-in;
            animation-timing-function: ease-in;
    opacity: 0;
  }
  38% {
    -webkit-transform: translateX(0);
            transform: translateX(0);
    -webkit-animation-timing-function: ease-out;
            animation-timing-function: ease-out;
    opacity: 1;
  }
  55% {
    -webkit-transform: translateX(68px);
            transform: translateX(68px);
    -webkit-animation-timing-function: ease-in;
            animation-timing-function: ease-in;
  }
  72% {
    -webkit-transform: translateX(0);
            transform: translateX(0);
    -webkit-animation-timing-function: ease-out;
            animation-timing-function: ease-out;
  }
  81% {
    -webkit-transform: translateX(32px);
            transform: translateX(32px);
    -webkit-animation-timing-function: ease-in;
            animation-timing-function: ease-in;
  }
  90% {
    -webkit-transform: translateX(0);
            transform: translateX(0);
    -webkit-animation-timing-function: ease-out;
            animation-timing-function: ease-out;
  }
  95% {
    -webkit-transform: translateX(8px);
            transform: translateX(8px);
    -webkit-animation-timing-function: ease-in;
            animation-timing-function: ease-in;
  }
  100% {
    -webkit-transform: translateX(0);
            transform: translateX(0);
    -webkit-animation-timing-function: ease-out;
            animation-timing-function: ease-out;
  }
}
@keyframes bounce-in-right {
  0% {
    -webkit-transform: translateX(600px);
            transform: translateX(600px);
    -webkit-animation-timing-function: ease-in;
            animation-timing-function: ease-in;
    opacity: 0;
  }
  38% {
    -webkit-transform: translateX(0);
            transform: translateX(0);
    -webkit-animation-timing-function: ease-out;
            animation-timing-function: ease-out;
    opacity: 1;
  }
  55% {
    -webkit-transform: translateX(68px);
            transform: translateX(68px);
    -webkit-animation-timing-function: ease-in;
            animation-timing-function: ease-in;
  }
  72% {
    -webkit-transform: translateX(0);
            transform: translateX(0);
    -webkit-animation-timing-function: ease-out;
            animation-timing-function: ease-out;
  }
  81% {
    -webkit-transform: translateX(32px);
            transform: translateX(32px);
    -webkit-animation-timing-function: ease-in;
            animation-timing-function: ease-in;
  }
  90% {
    -webkit-transform: translateX(0);
            transform: translateX(0);
    -webkit-animation-timing-function: ease-out;
            animation-timing-function: ease-out;
  }
  95% {
    -webkit-transform: translateX(8px);
            transform: translateX(8px);
    -webkit-animation-timing-function: ease-in;
            animation-timing-function: ease-in;
  }
  100% {
    -webkit-transform: translateX(0);
            transform: translateX(0);
    -webkit-animation-timing-function: ease-out;
            animation-timing-function: ease-out;
  }
}


#X,#O,#G
{
    -webkit-animation: puff-in-top 0.7s cubic-bezier(0.470, 0.000, 0.745, 0.715) 1s both;
    animation: puff-in-top 0.7s cubic-bezier(0.470, 0.000, 0.745, 0.715) 1s both;
}
#bullet
{
    -webkit-animation: slide-in-elliptic-right-bck 0.7s cubic-bezier(0.250, 0.460, 0.450, 0.940) 1.7s both;
    animation: slide-in-elliptic-right-bck 0.7s cubic-bezier(0.250, 0.460, 0.450, 0.940) 1.7s both;
}
#remove
{
    -webkit-animation: puff-in-top 0.7s cubic-bezier(0.470, 0.000, 0.745, 0.715) 1s both , fade-out 1s ease-out 2s both;
    animation: puff-in-top 0.7s cubic-bezier(0.470, 0.000, 0.745, 0.715) 1s both,fade-out 1s ease-out 2s both;
}
#hlbtn
{
    -webkit-animation: slide-in-blurred-right 0.5s cubic-bezier(0.230, 1.000, 0.320, 1.000) both;
    animation: slide-in-blurred-right 0.5s cubic-bezier(0.230, 1.000, 0.320, 1.000) both;
}
#hltop
{
    -webkit-animation: slide-in-blurred-left 0.5s cubic-bezier(0.230, 1.000, 0.320, 1.000) both;
    animation: slide-in-blurred-left 0.5s cubic-bezier(0.230, 1.000, 0.320, 1.000) both;
}
#vlright
{
    -webkit-animation: slide-in-blurred-top 0.5s cubic-bezier(0.230, 1.000, 0.320, 1.000) both;
    animation: slide-in-blurred-top 0.5s cubic-bezier(0.230, 1.000, 0.320, 1.000) both;
}
#vlleft
{
    -webkit-animation: slide-in-blurred-bottom 0.6s cubic-bezier(0.230, 1.000, 0.320, 1.000) both;
    animation: slide-in-blurred-bottom 0.6s cubic-bezier(0.230, 1.000, 0.320, 1.000) both;
}
#agency
{
    -webkit-animation: bounce-in-right 1.1s 2s both;
	        animation: bounce-in-right 1.1s 2s both;
}
</style>

<path id="vlright" class="st1" d="M103.6,54.5c-0.3,0-0.6-0.3-0.6-0.6V3.5c0-0.3,0.3-0.6,0.6-0.6s0.6,0.3,0.6,0.6v50.4
	C104.1,54.2,103.9,54.5,103.6,54.5"/>
<path id="vlleft" class="st1" d="M53.2,85c-0.3,0-0.6-0.3-0.6-0.6V34.1c0-0.3,0.3-0.6,0.6-0.6s0.6,0.3,0.6,0.6v50.4
	C53.8,84.8,53.5,85,53.2,85"/>
<path id="hltop" class="st1" d="M134.8,19.6H2.9c-0.3,0-0.6-0.3-0.6-0.6c0-0.3,0.3-0.6,0.6-0.6h131.9c0.3,0,0.6,0.3,0.6,0.6
	C135.3,19.3,135.1,19.6,134.8,19.6"/>
<path id="hlbtn" class="st1" d="M153.7,69.8H21.9c-0.3,0-0.6-0.3-0.6-0.6c0-0.3,0.3-0.6,0.6-0.6h131.9c0.3,0,0.6,0.3,0.6,0.6
	C154.3,69.6,154.1,69.8,153.7,69.8"/>
<g id="X">
	<path id="XMLID_15_" class="st2" d="M33.5,41.9l13.7-13.7c0.9-0.9,0.9-2.3,0-3.2c-0.9-0.9-2.3-0.9-3.2,0l-16,16l-16-16
		c-0.9-0.9-2.3-0.9-3.2,0c-0.9,0.9-0.9,2.3,0,3.2l13.7,13.7L33.5,41.9z"/>
	<path id="XMLID_14_" class="st2" d="M22.6,46.4L8.9,60.1c-0.9,0.9-0.9,2.3,0,3.2c0.9,0.9,2.3,0.9,3.2,0l16-16l16,16
		c0.9,0.9,2.3,0.9,3.2,0c0.9-0.9,0.9-2.3,0-3.2L33.5,46.4L22.6,46.4z"/>
</g>
<g id="G">
	<path id="XMLID_13_" class="st1" d="M62.4,41.9c1.1-7.9,7.9-14,16.1-14c5.3,0,10.1,2.6,13,6.6c0.7,0.9,1.9,1.1,2.9,0.5
		c1.2-0.7,1.5-2.2,0.7-3.3c-3.8-5-9.8-8.3-16.6-8.3c-10.7,0-19.5,8.1-20.6,18.6L62.4,41.9z"/>
	<path id="XMLID_12_" class="st1" d="M94.5,46.4c-1.1,7.9-7.9,14-16.1,14c-8.2,0-15-6.1-16.1-14l-4.6,0c1.1,10.4,9.9,18.5,20.6,18.5
		c10.7,0,19.5-8.1,20.6-18.5L94.5,46.4z"/>
</g>
<g id="O">
	<path id="XMLID_11_" class="st1" d="M112.7,41.9c1.1-7.9,7.9-14,16.1-14c8.2,0,15,6.1,16.1,14l4.6,0c-1.1-10.4-9.9-18.5-20.6-18.5
		c-10.7,0-19.5,8.1-20.6,18.5L112.7,41.9z"/>
	<path id="XMLID_10_" class="st1" d="M144.9,46.4c-1.1,7.9-7.9,14-16.1,14c-8.2,0-15-6.1-16.1-14l-4.6,0
		c1.1,10.4,9.9,18.5,20.6,18.5c10.7,0,19.5-8.1,20.6-18.5L144.9,46.4z"/>
</g>
<path id="bullet" class="st1" d="M78.5,44.1L78.5,44.1c0-1.2,1-2.3,2.3-2.3l13.9,0l0,4.5l-13.9,0C79.5,46.4,78.5,45.4,78.5,44.1"/>
<g id="agency">
	<path class="st2" d="M71.6,84.1h-1.1c-0.1,0-0.2,0-0.3-0.1c-0.1-0.1-0.1-0.1-0.2-0.2l-1-2.5h-4.6l-1,2.5c0,0.1-0.1,0.2-0.2,0.2
		c-0.1,0.1-0.2,0.1-0.3,0.1H62l4.1-10.3h1.4L71.6,84.1z M68.7,80.3l-1.6-4.2c0-0.1-0.1-0.3-0.2-0.4c-0.1-0.2-0.1-0.3-0.2-0.5
		c-0.1,0.4-0.2,0.7-0.3,1l-1.6,4.2H68.7z"/>
	<path id="XMLID_6_" class="st2" d="M86.6,79.2v3.9c-0.5,0.4-1.1,0.7-1.7,0.8c-0.6,0.2-1.2,0.3-1.9,0.3c-0.8,0-1.6-0.1-2.2-0.4
		c-0.7-0.3-1.2-0.6-1.7-1.1c-0.5-0.5-0.8-1-1.1-1.7c-0.3-0.6-0.4-1.4-0.4-2.1c0-0.8,0.1-1.5,0.4-2.1c0.2-0.6,0.6-1.2,1.1-1.7
		c0.5-0.5,1-0.8,1.7-1.1c0.7-0.3,1.4-0.4,2.2-0.4c0.4,0,0.8,0,1.1,0.1c0.4,0.1,0.7,0.1,1,0.3c0.3,0.1,0.6,0.2,0.8,0.4
		c0.3,0.2,0.5,0.3,0.7,0.5l-0.4,0.6c-0.1,0.1-0.1,0.2-0.2,0.2c-0.1,0-0.2,0-0.3-0.1c-0.1-0.1-0.2-0.1-0.4-0.2
		c-0.1-0.1-0.3-0.2-0.5-0.3c-0.2-0.1-0.5-0.2-0.8-0.2c-0.3-0.1-0.6-0.1-1-0.1c-0.6,0-1.1,0.1-1.6,0.3c-0.5,0.2-0.9,0.5-1.2,0.8
		c-0.3,0.4-0.6,0.8-0.8,1.3S79,78.4,79,79c0,0.6,0.1,1.2,0.3,1.7c0.2,0.5,0.4,0.9,0.8,1.3c0.3,0.4,0.8,0.6,1.2,0.8
		c0.5,0.2,1,0.3,1.6,0.3c0.5,0,0.9-0.1,1.3-0.2c0.4-0.1,0.7-0.3,1.1-0.4v-2.3h-1.6c-0.1,0-0.2,0-0.2-0.1c-0.1-0.1-0.1-0.1-0.1-0.2
		v-0.8H86.6z"/>
	<polygon id="XMLID_5_" class="st2" points="100.6,83 100.6,84.1 94.2,84.1 94.2,73.9 100.6,73.9 100.6,75 95.6,75 95.6,78.4 
		99.6,78.4 99.6,79.5 95.6,79.5 95.6,83 	"/>
	<path id="XMLID_4_" class="st2" d="M116.4,73.9v10.3h-0.7c-0.1,0-0.2,0-0.3-0.1c-0.1,0-0.1-0.1-0.2-0.2l-5.9-7.7c0,0.1,0,0.2,0,0.4
		c0,0.1,0,0.2,0,0.3v7.3h-1.2V73.9h0.7c0.1,0,0.1,0,0.2,0c0,0,0.1,0,0.1,0c0,0,0.1,0,0.1,0.1c0,0,0.1,0.1,0.1,0.1l5.9,7.7
		c0-0.1,0-0.2,0-0.4c0-0.1,0-0.2,0-0.3v-7.3H116.4z"/>
	<path id="XMLID_3_" class="st2" d="M131.8,82c0.1,0,0.1,0,0.2,0.1l0.6,0.6c-0.4,0.5-0.9,0.9-1.5,1.1c-0.6,0.3-1.3,0.4-2.2,0.4
		c-0.7,0-1.4-0.1-2-0.4s-1.1-0.6-1.5-1.1c-0.4-0.5-0.8-1-1-1.7c-0.2-0.6-0.4-1.4-0.4-2.1c0-0.8,0.1-1.5,0.4-2.1
		c0.2-0.6,0.6-1.2,1-1.7c0.4-0.5,1-0.8,1.6-1.1c0.6-0.3,1.3-0.4,2-0.4c0.7,0,1.4,0.1,1.9,0.4c0.6,0.2,1.1,0.6,1.5,1l-0.5,0.6
		c0,0-0.1,0.1-0.1,0.1c0,0-0.1,0-0.2,0c-0.1,0-0.2,0-0.3-0.1c-0.1-0.1-0.3-0.2-0.5-0.3c-0.2-0.1-0.5-0.2-0.8-0.3
		c-0.3-0.1-0.7-0.1-1.1-0.1c-0.5,0-1,0.1-1.5,0.3c-0.4,0.2-0.8,0.5-1.1,0.8c-0.3,0.3-0.6,0.8-0.7,1.3c-0.2,0.5-0.3,1.1-0.3,1.7
		c0,0.6,0.1,1.2,0.3,1.7c0.2,0.5,0.4,0.9,0.8,1.3c0.3,0.3,0.7,0.6,1.1,0.8c0.4,0.2,0.9,0.3,1.4,0.3c0.3,0,0.6,0,0.8-0.1
		c0.2,0,0.5-0.1,0.7-0.2c0.2-0.1,0.4-0.2,0.6-0.3c0.2-0.1,0.4-0.3,0.5-0.4C131.6,82,131.7,82,131.8,82"/>
	<path id="XMLID_2_" class="st2" d="M143.5,80v4.1h-1.4V80l-3.8-6.2h1.2c0.1,0,0.2,0,0.3,0.1c0.1,0.1,0.1,0.1,0.2,0.2l2.4,4
		c0.1,0.2,0.2,0.3,0.2,0.5c0.1,0.1,0.1,0.3,0.2,0.4c0.1-0.1,0.1-0.3,0.2-0.4c0.1-0.1,0.1-0.3,0.2-0.5l2.3-4c0-0.1,0.1-0.2,0.2-0.2
		s0.2-0.1,0.3-0.1h1.2L143.5,80z"/>
</g>
<g id="remove">
	<polygon id="XMLID_53_" class="st2" points="22.7,41.9 28.5,47.7 34.5,47.4 28.1,40.9 	"/>
	<polygon id="XMLID_54_" class="st2" points="28.9,40.2 33.5,41.9 27.5,47.9 22.3,46.7 	"/>
	<polygon id="XMLID_55_" class="st1" points="62.4,46.4 62.4,41.9 57.8,41.9 57.8,46.4 	"/>
	<polygon id="XMLID_56_" class="st1" points="108.2,41.9 108.2,46.4 112.7,46.4 112.7,41.9 	"/>
	<polygon id="XMLID_57_" class="st1" points="144.9,41.9 144.9,46.4 149.5,46.4 149.3,41.9 	"/>
</g>
</svg>
