<?xml version="1.0" encoding="utf-8"?>
<svg id="btnSVG" version="1.1" xmlns="http://www.w3.org/2000/svg" xmlns:xlink="http://www.w3.org/1999/xlink" x="0px" y="0px"
        viewBox="0 0 1920 1080" style="enable-background:new 0 0 1920 1080;" xml:space="preserve">
    <style type="text/css">
        .st211{fill:#F05B78;}
        .st212{enable-background:new    ;}
        .st213{fill:#83858C;}
        .st214{fill:#EBEBEC;}
        .st215{fill:#FCFDFF;}
        .st216{fill:#DCDDDF;}
        .st217{fill:#C3C4C7;}
        .st218{fill:#7C787D;}
        .st219{fill:#293241;}
        .st220{fill:#C7C6C5;}
        .st221{fill:#F593A6;}
        .st222{opacity:0.5;fill:#F05B78;}
        .st223{fill:#F37C93;}
        .st224{fill:#FBD6D6;}
        .st225{opacity:0.5;fill:#FFFFFF;}
        .st226{fill:#747B83;}
        .st227{opacity:0.65;fill:#FFFFFF;}
        .st228{opacity:0.8;fill:#F05B78;}
        .st229{opacity:0.75;fill:#F05B78;}
        .st230{opacity:0.7;fill:#F05B78;}
        .st231{opacity:0.6;fill:#F05B78;}
        .st232{opacity:0.4;fill:#F05B78;}
        .st233{opacity:0.9;fill:#F05B78;}
        #b1
        {
            -webkit-animation: slide-in-blurred-left 1s cubic-bezier(0.230, 1.000, 0.320, 1.000) both;
            animation: slide-in-blurred-left 1s cubic-bezier(0.230, 1.000, 0.320, 1.000) both;
        }
        #b2
        {
            -webkit-animation: slide-in-blurred-left 1s cubic-bezier(0.230, 1.000, 0.320, 1.000) 1s both;
            animation: slide-in-blurred-left 1s cubic-bezier(0.230, 1.000, 0.320, 1.000) 1s both;
        }
        #b3
        {
            -webkit-animation: slide-in-blurred-left 1s cubic-bezier(0.230, 1.000, 0.320, 1.000) 2s both;
            animation: slide-in-blurred-left 1s cubic-bezier(0.230, 1.000, 0.320, 1.000) 2s both;
        }
        #b4_1_
        {
            -webkit-animation: slide-in-blurred-left 1s cubic-bezier(0.230, 1.000, 0.320, 1.000) 3s both;
            animation: slide-in-blurred-left 1s cubic-bezier(0.230, 1.000, 0.320, 1.000) 3s both;
        }
        #b4_1_
        {
            -webkit-animation: slide-in-blurred-left 1s cubic-bezier(0.230, 1.000, 0.320, 1.000) 4s both;
            animation: slide-in-blurred-left 1s cubic-bezier(0.230, 1.000, 0.320, 1.000) 4s both;
        }
        #b5
        {
            -webkit-animation: slide-in-blurred-left 1s cubic-bezier(0.230, 1.000, 0.320, 1.000) 5s both;
            animation: slide-in-blurred-left 1s cubic-bezier(0.230, 1.000, 0.320, 1.000) 5s both;
        }
        #Joystick
        {
            -webkit-animation: slide-in-elliptic-top-fwd 1s cubic-bezier(0.250, 0.460, 0.450, 0.940) 6s both;
            animation: slide-in-elliptic-top-fwd 1s cubic-bezier(0.250, 0.460, 0.450, 0.940) 6s both;
        }
        
        /**
        * ----------------------------------------
        * animation shake-vertical
        * ----------------------------------------
        */
        @-webkit-keyframes shake-vertical {
        0%,100%
        {
        -webkit-transform: translateY(0);
                transform: translateY(0);
        }
        50% {
        -webkit-transform: translateY(100px);
                transform: translateY(100px);
        }

        }
        @keyframes shake-vertical {
        0%,100%
        {
        -webkit-transform: translateY(0);
                transform: translateY(0);
        }
        50% {
        -webkit-transform: translateY(100px);
                transform: translateY(100px);
        }

        }


        /**
        * ----------------------------------------
        * animation slide-in-elliptic-top-fwd
        * ----------------------------------------
        */
        @-webkit-keyframes slide-in-elliptic-top-fwd {
        0% {
        -webkit-transform: translateY(-600px) rotateX(-30deg) scale(0);
                transform: translateY(-600px) rotateX(-30deg) scale(0);
        -webkit-transform-origin: 50% 100%;
                transform-origin: 50% 100%;
        opacity: 0;
        }
        100% {
        -webkit-transform: translateY(0) rotateX(0) scale(1);
                transform: translateY(0) rotateX(0) scale(1);
        -webkit-transform-origin: 50% 1400px;
                transform-origin: 50% 1400px;
        opacity: 1;
        }
        }
        @keyframes slide-in-elliptic-top-fwd {
        0% {
        -webkit-transform: translateY(-600px) rotateX(-30deg) scale(0);
                transform: translateY(-600px) rotateX(-30deg) scale(0);
        -webkit-transform-origin: 50% 100%;
                transform-origin: 50% 100%;
        opacity: 0;
        }
        100% {
        -webkit-transform: translateY(0) rotateX(0) scale(1);
                transform: translateY(0) rotateX(0) scale(1);
        -webkit-transform-origin: 50% 1400px;
                transform-origin: 50% 1400px;
        opacity: 1;
        }
        }

        /**
        * ----------------------------------------
        * animation slide-in-blurred-left
        * ----------------------------------------
        */
        @-webkit-keyframes slide-in-blurred-left {
        0% {
        -webkit-transform: translateX(-1000px) scaleX(2.5) scaleY(0.2);
                transform: translateX(-1000px) scaleX(2.5) scaleY(0.2);
        -webkit-transform-origin: 100% 50%;
                transform-origin: 100% 50%;
        -webkit-filter: blur(40px);
                filter: blur(40px);
        opacity: 0;
        }
        100% {
        -webkit-transform: translateX(0) scaleY(1) scaleX(1);
                transform: translateX(0) scaleY(1) scaleX(1);
        -webkit-transform-origin: 50% 50%;
                transform-origin: 50% 50%;
        -webkit-filter: blur(0);
                filter: blur(0);
        opacity: 1;
        }
        }
        @keyframes slide-in-blurred-left {
        0% {
        -webkit-transform: translateX(-1000px) scaleX(2.5) scaleY(0.2);
                transform: translateX(-1000px) scaleX(2.5) scaleY(0.2);
        -webkit-transform-origin: 100% 50%;
                transform-origin: 100% 50%;
        -webkit-filter: blur(40px);
                filter: blur(40px);
        opacity: 0;
        }
        100% {
        -webkit-transform: translateX(0) scaleY(1) scaleX(1);
                transform: translateX(0) scaleY(1) scaleX(1);
        -webkit-transform-origin: 50% 50%;
                transform-origin: 50% 50%;
        -webkit-filter: blur(0);
                filter: blur(0);
        opacity: 1;
        }
        }

        /**
        * ----------------------------------------
        * animation blink-1
        * ----------------------------------------
        */
        @-webkit-keyframes blink-1 {
        0%,
        50%,
        100% {
        opacity: 1;
        }
        25%,
        75% {
        opacity: 0;
        }
        }
        @keyframes blink-1 {
        0%,
        50%,
        100% {
        opacity: 1;
        }
        25%,
        75% {
        opacity: 0;
        }
        }
        
    </style>

    <rect id="b1" x="-1.5" y="797.6" class="st211" width="1921.5" height="282.4"/>
   
    <g id="Joystick">
        <path class="st147" d="M1680.5,1053.3c3.8,2.2,10,2.2,13.8,0l169.6-98.5c3.8-2.2,3.8-5.8,0-8l-170.7-98.5c-3.8-2.2-10-2.2-13.8,0
            l-169.6,98.5c-3.8,2.2-3.8,5.8,0,8L1680.5,1053.3z"/>
        <g>
            <g class="st212">
                <g>
                    <path class="st213" d="M1677.1,1047.9c-0.2-0.1-0.4-0.1-0.6-0.2c-0.1,0-0.2-0.1-0.3-0.1c-0.2-0.1-0.4-0.2-0.6-0.2
                        c-0.1,0-0.2-0.1-0.3-0.1c-0.2-0.1-0.4-0.2-0.6-0.3l-0.3-0.2l0,0c0,0-0.1,0-0.1-0.1c-0.2-0.1-0.3-0.2-0.5-0.3
                        c-0.1-0.1-0.2-0.1-0.3-0.2l0,0c-0.2-0.2-0.4-0.3-0.6-0.5l0,0c-0.1-0.1-0.2-0.2-0.3-0.3c-0.2-0.2-0.4-0.5-0.6-0.7
                        c-0.1-0.2-0.2-0.3-0.3-0.5c-0.4-0.7-0.6-1.4-0.6-2.1l0,5.2c0,0.7,0.2,1.5,0.6,2.2c0.1,0.2,0.2,0.3,0.3,0.5
                        c0.2,0.2,0.4,0.5,0.6,0.7c0.1,0.1,0.2,0.2,0.3,0.3c0.2,0.2,0.4,0.3,0.6,0.5c0.1,0.1,0.2,0.1,0.3,0.2c0.1,0.1,0.3,0.2,0.4,0.3
                        c0.1,0,0.1,0.1,0.2,0.1c0.1,0.1,0.2,0.1,0.3,0.2c0.2,0.1,0.4,0.2,0.6,0.3c0.1,0,0.2,0.1,0.3,0.1c0.2,0.1,0.4,0.2,0.6,0.2
                        c0.1,0,0.2,0.1,0.3,0.1c0.2,0.1,0.4,0.1,0.6,0.2c0.1,0,0.2,0.1,0.3,0.1c0.2,0,0.4,0.1,0.6,0.1l0-5.2c-0.2,0-0.4-0.1-0.6-0.1
                        C1677.4,1047.9,1677.2,1047.9,1677.1,1047.9z"/>
                    <path class="st213" d="M1692.5,1044.4c-0.1,0.1-0.2,0.3-0.3,0.4c-0.2,0.2-0.4,0.5-0.6,0.7c-0.1,0.1-0.2,0.2-0.3,0.3
                        c-0.2,0.2-0.4,0.3-0.6,0.5c-0.1,0.1-0.2,0.1-0.3,0.2c-0.1,0.1-0.2,0.1-0.3,0.2c-0.1,0.1-0.2,0.1-0.3,0.2
                        c-0.1,0.1-0.2,0.1-0.3,0.2c-0.2,0.1-0.4,0.2-0.6,0.3c-0.1,0-0.2,0.1-0.3,0.1c-0.2,0.1-0.4,0.2-0.6,0.2c-0.1,0-0.2,0.1-0.3,0.1
                        c0,0,0,0,0,0c-0.2,0.1-0.4,0.1-0.6,0.2c-0.1,0-0.2,0.1-0.3,0.1c-0.2,0.1-0.4,0.1-0.6,0.1c-0.1,0-0.2,0-0.3,0.1
                        c-0.2,0-0.4,0.1-0.6,0.1c-0.1,0-0.2,0-0.3,0c-0.2,0-0.4,0.1-0.6,0.1c-0.1,0-0.2,0-0.3,0c-0.2,0-0.4,0-0.6,0c-0.1,0-0.2,0-0.3,0
                        c-0.2,0-0.4,0-0.6,0h-0.1l0,4.9l0-4.9c-0.1,0-0.2,0-0.3,0c-0.2,0-0.4,0-0.6,0c-0.1,0-0.2,0-0.3,0c-0.2,0-0.4,0-0.6,0
                        c-0.1,0-0.2,0-0.3,0c-0.2,0-0.4,0-0.6-0.1c-0.1,0-0.2,0-0.3,0c-0.2,0-0.4-0.1-0.6-0.1c-0.1,0-0.2,0-0.3-0.1c0,0,0,0,0,0l0,5.2
                        c0,0,0,0,0.1,0c0.1,0,0.2,0,0.3,0.1c0.2,0,0.4,0.1,0.6,0.1c0.1,0,0.2,0,0.3,0c0.2,0,0.4,0.1,0.6,0.1c0.1,0,0.2,0,0.3,0
                        c0.2,0,0.4,0,0.6,0c0.1,0,0.2,0,0.3,0c0.2,0,0.4,0,0.6,0c0.1,0,0.1,0,0.2,0v0h0.1c0.2,0,0.4,0,0.6,0c0.1,0,0.2,0,0.3,0
                        c0.2,0,0.4,0,0.6,0c0.1,0,0.2,0,0.3,0c0.2,0,0.4,0,0.6-0.1c0.1,0,0.2,0,0.3,0c0.2,0,0.4-0.1,0.6-0.1c0.1,0,0.2,0,0.3-0.1
                        c0.2,0,0.4-0.1,0.6-0.1c0.1,0,0.2-0.1,0.3-0.1c0.2-0.1,0.4-0.1,0.6-0.2c0,0,0,0,0.1,0c0.1,0,0.2-0.1,0.3-0.1
                        c0.2-0.1,0.4-0.1,0.6-0.2c0.1,0,0.2-0.1,0.3-0.1c0.2-0.1,0.4-0.2,0.6-0.3c0.1-0.1,0.2-0.1,0.3-0.2c0.1,0,0.2-0.1,0.3-0.1
                        c0.1-0.1,0.2-0.1,0.3-0.2c0.1-0.1,0.2-0.1,0.3-0.2c0.2-0.2,0.4-0.3,0.6-0.5c0.1-0.1,0.2-0.2,0.3-0.3c0.2-0.2,0.4-0.4,0.6-0.7
                        c0.1-0.1,0.2-0.3,0.3-0.5c0.5-0.7,0.7-1.5,0.7-2.2l0-5.2C1693.2,1042.9,1693,1043.7,1692.5,1044.4z"/>
                </g>
                <path class="st146" d="M1693.2,1042.1l0,5.2c0,0.8-0.2,1.5-0.7,2.2c-0.1,0.2-0.2,0.3-0.3,0.5c-0.2,0.2-0.4,0.5-0.6,0.7
                    c-0.1,0.1-0.2,0.2-0.3,0.3c-0.2,0.2-0.4,0.3-0.6,0.5c-0.1,0.1-0.2,0.1-0.3,0.2c-0.1,0.1-0.2,0.1-0.3,0.2c-0.1,0-0.2,0.1-0.3,0.1
                    c-0.1,0.1-0.2,0.1-0.3,0.2c-0.2,0.1-0.4,0.2-0.6,0.3c-0.1,0-0.2,0.1-0.3,0.1c-0.2,0.1-0.4,0.2-0.6,0.2c-0.1,0-0.2,0.1-0.3,0.1
                    c0,0,0,0-0.1,0v-5.2c0,0,0,0,0,0c0.1,0,0.2-0.1,0.3-0.1c0.2-0.1,0.4-0.2,0.6-0.2c0.1,0,0.2-0.1,0.3-0.1c0.2-0.1,0.4-0.2,0.6-0.3
                    c0.1-0.1,0.2-0.1,0.3-0.2c0.1-0.1,0.2-0.1,0.3-0.2c0.1-0.1,0.2-0.1,0.3-0.2c0.1-0.1,0.2-0.1,0.3-0.2c0.2-0.2,0.4-0.3,0.6-0.5
                    c0.1-0.1,0.2-0.2,0.3-0.3c0.2-0.2,0.4-0.4,0.6-0.7c0.1-0.1,0.2-0.3,0.3-0.4C1693,1043.7,1693.2,1042.9,1693.2,1042.1z"/>
            </g>
        </g>
        <g>
            <g class="st212">
                <g>
                    <path class="st213" d="M1512.4,953.3c-0.2-0.1-0.4-0.1-0.6-0.2c-0.1,0-0.2-0.1-0.3-0.1c-0.2-0.1-0.4-0.2-0.6-0.2
                        c-0.1,0-0.2-0.1-0.3-0.1c-0.2-0.1-0.4-0.2-0.6-0.3l-0.3-0.2l0,0c0,0-0.1,0-0.1-0.1c-0.2-0.1-0.3-0.2-0.5-0.3
                        c-0.1-0.1-0.2-0.1-0.3-0.2l0,0c-0.2-0.2-0.4-0.3-0.6-0.5l0,0c-0.1-0.1-0.2-0.2-0.3-0.3c-0.2-0.2-0.4-0.5-0.6-0.7
                        c-0.1-0.2-0.2-0.3-0.3-0.5c-0.4-0.7-0.6-1.4-0.6-2.1l0,5.2c0,0.7,0.2,1.5,0.6,2.2c0.1,0.2,0.2,0.3,0.3,0.5
                        c0.2,0.2,0.4,0.5,0.6,0.7c0.1,0.1,0.2,0.2,0.3,0.3c0.2,0.2,0.4,0.3,0.6,0.5c0.1,0.1,0.2,0.1,0.3,0.2c0.1,0.1,0.3,0.2,0.4,0.3
                        c0.1,0,0.1,0.1,0.2,0.1c0.1,0.1,0.2,0.1,0.3,0.2c0.2,0.1,0.4,0.2,0.6,0.3c0.1,0,0.2,0.1,0.3,0.1c0.2,0.1,0.4,0.2,0.6,0.2
                        c0.1,0,0.2,0.1,0.3,0.1c0.2,0.1,0.4,0.1,0.6,0.2c0.1,0,0.2,0.1,0.3,0.1c0.2,0,0.4,0.1,0.6,0.1l0-5.2c-0.2,0-0.4-0.1-0.6-0.1
                        C1512.6,953.4,1512.5,953.3,1512.4,953.3z"/>
                    <path class="st213" d="M1527.8,949.8c-0.1,0.1-0.2,0.3-0.3,0.4c-0.2,0.2-0.4,0.5-0.6,0.7c-0.1,0.1-0.2,0.2-0.3,0.3
                        c-0.2,0.2-0.4,0.3-0.6,0.5c-0.1,0.1-0.2,0.1-0.3,0.2c-0.1,0.1-0.2,0.1-0.3,0.2c-0.1,0.1-0.2,0.1-0.3,0.2
                        c-0.1,0.1-0.2,0.1-0.3,0.2c-0.2,0.1-0.4,0.2-0.6,0.3c-0.1,0-0.2,0.1-0.3,0.1c-0.2,0.1-0.4,0.2-0.6,0.2c-0.1,0-0.2,0.1-0.3,0.1
                        c0,0,0,0,0,0c-0.2,0.1-0.4,0.1-0.6,0.2c-0.1,0-0.2,0.1-0.3,0.1c-0.2,0.1-0.4,0.1-0.6,0.1c-0.1,0-0.2,0-0.3,0.1
                        c-0.2,0-0.4,0.1-0.6,0.1c-0.1,0-0.2,0-0.3,0c-0.2,0-0.4,0.1-0.6,0.1c-0.1,0-0.2,0-0.3,0c-0.2,0-0.4,0-0.6,0c-0.1,0-0.2,0-0.3,0
                        c-0.2,0-0.4,0-0.6,0h-0.1l0,4.9l0-4.9c-0.1,0-0.2,0-0.3,0c-0.2,0-0.4,0-0.6,0c-0.1,0-0.2,0-0.3,0c-0.2,0-0.4,0-0.6,0
                        c-0.1,0-0.2,0-0.3,0c-0.2,0-0.4,0-0.6-0.1c-0.1,0-0.2,0-0.3,0c-0.2,0-0.4-0.1-0.6-0.1c-0.1,0-0.2,0-0.3-0.1c0,0,0,0,0,0l0,5.2
                        c0,0,0,0,0.1,0c0.1,0,0.2,0,0.3,0.1c0.2,0,0.4,0.1,0.6,0.1c0.1,0,0.2,0,0.3,0c0.2,0,0.4,0.1,0.6,0.1c0.1,0,0.2,0,0.3,0
                        c0.2,0,0.4,0,0.6,0c0.1,0,0.2,0,0.3,0c0.2,0,0.4,0,0.6,0c0.1,0,0.1,0,0.2,0v0h0.1c0.2,0,0.4,0,0.6,0c0.1,0,0.2,0,0.3,0
                        c0.2,0,0.4,0,0.6,0c0.1,0,0.2,0,0.3,0c0.2,0,0.4,0,0.6-0.1c0.1,0,0.2,0,0.3,0c0.2,0,0.4-0.1,0.6-0.1c0.1,0,0.2,0,0.3-0.1
                        c0.2,0,0.4-0.1,0.6-0.1c0.1,0,0.2-0.1,0.3-0.1c0.2-0.1,0.4-0.1,0.6-0.2c0,0,0,0,0.1,0c0.1,0,0.2-0.1,0.3-0.1
                        c0.2-0.1,0.4-0.1,0.6-0.2c0.1,0,0.2-0.1,0.3-0.1c0.2-0.1,0.4-0.2,0.6-0.3c0.1-0.1,0.2-0.1,0.3-0.2c0.1,0,0.2-0.1,0.3-0.1
                        c0.1-0.1,0.2-0.1,0.3-0.2c0.1-0.1,0.2-0.1,0.3-0.2c0.2-0.2,0.4-0.3,0.6-0.5c0.1-0.1,0.2-0.2,0.3-0.3c0.2-0.2,0.4-0.4,0.6-0.7
                        c0.1-0.1,0.2-0.3,0.3-0.5c0.5-0.7,0.7-1.5,0.7-2.2l0-5.2C1528.5,948.3,1528.2,949.1,1527.8,949.8z"/>
                </g>
                <path class="st146" d="M1528.5,947.5l0,5.2c0,0.8-0.2,1.5-0.7,2.2c-0.1,0.2-0.2,0.3-0.3,0.5c-0.2,0.2-0.4,0.5-0.6,0.7
                    c-0.1,0.1-0.2,0.2-0.3,0.3c-0.2,0.2-0.4,0.3-0.6,0.5c-0.1,0.1-0.2,0.1-0.3,0.2c-0.1,0.1-0.2,0.1-0.3,0.2c-0.1,0-0.2,0.1-0.3,0.1
                    c-0.1,0.1-0.2,0.1-0.3,0.2c-0.2,0.1-0.4,0.2-0.6,0.3c-0.1,0-0.2,0.1-0.3,0.1c-0.2,0.1-0.4,0.2-0.6,0.2c-0.1,0-0.2,0.1-0.3,0.1
                    c0,0,0,0-0.1,0v-5.2c0,0,0,0,0,0c0.1,0,0.2-0.1,0.3-0.1c0.2-0.1,0.4-0.2,0.6-0.2c0.1,0,0.2-0.1,0.3-0.1c0.2-0.1,0.4-0.2,0.6-0.3
                    c0.1-0.1,0.2-0.1,0.3-0.2c0.1-0.1,0.2-0.1,0.3-0.2c0.1-0.1,0.2-0.1,0.3-0.2c0.1-0.1,0.2-0.1,0.3-0.2c0.2-0.2,0.4-0.3,0.6-0.5
                    c0.1-0.1,0.2-0.2,0.3-0.3c0.2-0.2,0.4-0.4,0.6-0.7c0.1-0.1,0.2-0.3,0.3-0.4C1528.2,949.1,1528.5,948.3,1528.5,947.5z"/>
            </g>
        </g>
        <g>
            <g class="st212">
                <g>
                    <path class="st213" d="M1842.3,952.2c-0.2-0.1-0.4-0.1-0.6-0.2c-0.1,0-0.2-0.1-0.3-0.1c-0.2-0.1-0.4-0.2-0.6-0.2
                        c-0.1,0-0.2-0.1-0.3-0.1c-0.2-0.1-0.4-0.2-0.6-0.3l-0.3-0.2l0,0c0,0-0.1,0-0.1-0.1c-0.2-0.1-0.3-0.2-0.5-0.3
                        c-0.1-0.1-0.2-0.1-0.3-0.2l0,0c-0.2-0.2-0.4-0.3-0.6-0.5l0,0c-0.1-0.1-0.2-0.2-0.3-0.3c-0.2-0.2-0.4-0.5-0.6-0.7
                        c-0.1-0.2-0.2-0.3-0.3-0.5c-0.4-0.7-0.6-1.4-0.6-2.1l0,5.2c0,0.7,0.2,1.5,0.6,2.2c0.1,0.2,0.2,0.3,0.3,0.5
                        c0.2,0.2,0.4,0.5,0.6,0.7c0.1,0.1,0.2,0.2,0.3,0.3c0.2,0.2,0.4,0.3,0.6,0.5c0.1,0.1,0.2,0.1,0.3,0.2c0.1,0.1,0.3,0.2,0.4,0.3
                        c0.1,0,0.1,0.1,0.2,0.1c0.1,0.1,0.2,0.1,0.3,0.2c0.2,0.1,0.4,0.2,0.6,0.3c0.1,0,0.2,0.1,0.3,0.1c0.2,0.1,0.4,0.2,0.6,0.2
                        c0.1,0,0.2,0.1,0.3,0.1c0.2,0.1,0.4,0.1,0.6,0.2c0.1,0,0.2,0.1,0.3,0.1c0.2,0,0.4,0.1,0.6,0.1l0-5.2c-0.2,0-0.4-0.1-0.6-0.1
                        C1842.5,952.2,1842.4,952.2,1842.3,952.2z"/>
                    <path class="st213" d="M1857.6,948.7c-0.1,0.1-0.2,0.3-0.3,0.4c-0.2,0.2-0.4,0.5-0.6,0.7c-0.1,0.1-0.2,0.2-0.3,0.3
                        c-0.2,0.2-0.4,0.3-0.6,0.5c-0.1,0.1-0.2,0.1-0.3,0.2c-0.1,0.1-0.2,0.1-0.3,0.2c-0.1,0.1-0.2,0.1-0.3,0.2
                        c-0.1,0.1-0.2,0.1-0.3,0.2c-0.2,0.1-0.4,0.2-0.6,0.3c-0.1,0-0.2,0.1-0.3,0.1c-0.2,0.1-0.4,0.2-0.6,0.2c-0.1,0-0.2,0.1-0.3,0.1
                        c0,0,0,0,0,0c-0.2,0.1-0.4,0.1-0.6,0.2c-0.1,0-0.2,0.1-0.3,0.1c-0.2,0.1-0.4,0.1-0.6,0.1c-0.1,0-0.2,0-0.3,0.1
                        c-0.2,0-0.4,0.1-0.6,0.1c-0.1,0-0.2,0-0.3,0c-0.2,0-0.4,0.1-0.6,0.1c-0.1,0-0.2,0-0.3,0c-0.2,0-0.4,0-0.6,0c-0.1,0-0.2,0-0.3,0
                        c-0.2,0-0.4,0-0.6,0h-0.1l0,4.9l0-4.9c-0.1,0-0.2,0-0.3,0c-0.2,0-0.4,0-0.6,0c-0.1,0-0.2,0-0.3,0c-0.2,0-0.4,0-0.6,0
                        c-0.1,0-0.2,0-0.3,0c-0.2,0-0.4,0-0.6-0.1c-0.1,0-0.2,0-0.3,0c-0.2,0-0.4-0.1-0.6-0.1c-0.1,0-0.2,0-0.3-0.1c0,0,0,0,0,0l0,5.2
                        c0,0,0,0,0.1,0c0.1,0,0.2,0,0.3,0.1c0.2,0,0.4,0.1,0.6,0.1c0.1,0,0.2,0,0.3,0c0.2,0,0.4,0.1,0.6,0.1c0.1,0,0.2,0,0.3,0
                        c0.2,0,0.4,0,0.6,0c0.1,0,0.2,0,0.3,0c0.2,0,0.4,0,0.6,0c0.1,0,0.1,0,0.2,0v0h0.1c0.2,0,0.4,0,0.6,0c0.1,0,0.2,0,0.3,0
                        c0.2,0,0.4,0,0.6,0c0.1,0,0.2,0,0.3,0c0.2,0,0.4,0,0.6-0.1c0.1,0,0.2,0,0.3,0c0.2,0,0.4-0.1,0.6-0.1c0.1,0,0.2,0,0.3-0.1
                        c0.2,0,0.4-0.1,0.6-0.1c0.1,0,0.2-0.1,0.3-0.1c0.2-0.1,0.4-0.1,0.6-0.2c0,0,0,0,0.1,0c0.1,0,0.2-0.1,0.3-0.1
                        c0.2-0.1,0.4-0.1,0.6-0.2c0.1,0,0.2-0.1,0.3-0.1c0.2-0.1,0.4-0.2,0.6-0.3c0.1-0.1,0.2-0.1,0.3-0.2c0.1,0,0.2-0.1,0.3-0.1
                        c0.1-0.1,0.2-0.1,0.3-0.2c0.1-0.1,0.2-0.1,0.3-0.2c0.2-0.2,0.4-0.3,0.6-0.5c0.1-0.1,0.2-0.2,0.3-0.3c0.2-0.2,0.4-0.4,0.6-0.7
                        c0.1-0.1,0.2-0.3,0.3-0.5c0.5-0.7,0.7-1.5,0.7-2.2l0-5.2C1858.3,947.2,1858.1,948,1857.6,948.7z"/>
                </g>
                <path class="st146" d="M1858.3,946.4l0,5.2c0,0.8-0.2,1.5-0.7,2.2c-0.1,0.2-0.2,0.3-0.3,0.5c-0.2,0.2-0.4,0.5-0.6,0.7
                    c-0.1,0.1-0.2,0.2-0.3,0.3c-0.2,0.2-0.4,0.3-0.6,0.5c-0.1,0.1-0.2,0.1-0.3,0.2c-0.1,0.1-0.2,0.1-0.3,0.2c-0.1,0-0.2,0.1-0.3,0.1
                    c-0.1,0.1-0.2,0.1-0.3,0.2c-0.2,0.1-0.4,0.2-0.6,0.3c-0.1,0-0.2,0.1-0.3,0.1c-0.2,0.1-0.4,0.2-0.6,0.2c-0.1,0-0.2,0.1-0.3,0.1
                    c0,0,0,0-0.1,0V952c0,0,0,0,0,0c0.1,0,0.2-0.1,0.3-0.1c0.2-0.1,0.4-0.2,0.6-0.2c0.1,0,0.2-0.1,0.3-0.1c0.2-0.1,0.4-0.2,0.6-0.3
                    c0.1-0.1,0.2-0.1,0.3-0.2c0.1-0.1,0.2-0.1,0.3-0.2c0.1-0.1,0.2-0.1,0.3-0.2c0.1-0.1,0.2-0.1,0.3-0.2c0.2-0.2,0.4-0.3,0.6-0.5
                    c0.1-0.1,0.2-0.2,0.3-0.3c0.2-0.2,0.4-0.4,0.6-0.7c0.1-0.1,0.2-0.3,0.3-0.4C1858.1,948,1858.3,947.2,1858.3,946.4z"/>
            </g>
        </g>
        <g>
            <g class="st212">
                <path class="st214" d="M1675.1,797.1l-0.6,208.6c1.1-0.7,2.5-1.1,4-1.4l0.6-208.6C1677.7,796,1676.3,796.5,1675.1,797.1
                    L1675.1,797.1z"/>
                <path class="st215" d="M1679.1,795.8l-0.6,208.6c3.2-0.6,6.8-0.1,9.4,1.3l0.6-208.6C1685.9,795.7,1682.3,795.2,1679.1,795.8
                    L1679.1,795.8z"/>
                <path class="st214" d="M1688.5,797.1l-0.6,208.6c0,0,0,0,0.1,0L1688.5,797.1C1688.5,797.1,1688.5,797.1,1688.5,797.1
                    L1688.5,797.1z"/>
            </g>
            <polygon class="st216" points="1688.6,797.1 1688,1005.7 1834.3,943.7 1834.9,881.6 		"/>
            <polygon class="st217" points="1529.8,881.6 1529.2,943.7 1674.6,1005.7 1675.1,797.1 		"/>
            <g>
                <path class="st217" d="M1834.9,881.6l-0.6,62.1c1.9,1.1,2.8,2.5,2.8,3.9l0.6-62.1C1837.7,884.1,1836.8,882.7,1834.9,881.6
                    L1834.9,881.6z"/>
            </g>
            <g>
                <path class="st217" d="M1527,885.5l-0.6,62.1c0-1.4,0.9-2.8,2.8-3.9l0.6-62.1C1527.9,882.7,1527,884.1,1527,885.5L1527,885.5z"/>
            </g>
            <g>
                <path class="st214" d="M1832.6,888.9L1832,951c1.6-0.9,2.4-2.1,2.4-3.4l0.6-62.1C1835,886.8,1834.2,888,1832.6,888.9
                    L1832.6,888.9z"/>
            </g>
            <g>
                <path class="st214" d="M1529.7,885.5l-0.6,62.1c0,1.2,0.8,2.5,2.4,3.4l0.6-62.1C1530.5,888,1529.7,886.7,1529.7,885.5
                    L1529.7,885.5z"/>
            </g>
            <g>
                <path class="st214" d="M1858,890.1l-0.6,62.1c2.2-1.3,3.3-2.9,3.3-4.6l0.6-62.1C1861.3,887.2,1860.2,888.9,1858,890.1L1858,890.1
                    z"/>
            </g>
            <g>
                <path class="st214" d="M1503.4,885.5l-0.6,62.1c0,1.7,1.1,3.4,3.3,4.7l0.6-62.1C1504.5,888.9,1503.4,887.2,1503.4,885.5
                    L1503.4,885.5z"/>
            </g>
            <polygon class="st217" points="1688.7,972.5 1688.1,1034.6 1832,951 1832.6,888.9 		"/>
            <polygon class="st216" points="1532.2,888.9 1531.6,951 1676.4,1034.6 1677,972.5 		"/>
            <g class="st212">
                <path class="st214" d="M1677,972.5l-0.6,62.1c0,0,0,0,0,0L1677,972.5C1677,972.5,1677,972.5,1677,972.5L1677,972.5z"/>
                <path class="st215" d="M1677,972.6l-0.6,62.1c2.2,1.3,5.4,1.7,8.2,1.2l0.6-62.1C1682.4,974.2,1679.3,973.8,1677,972.6L1677,972.6
                    z"/>
                <path class="st214" d="M1685.2,973.7l-0.6,62.1c1.3-0.2,2.5-0.6,3.5-1.2l0.6-62.1C1687.7,973.1,1686.5,973.5,1685.2,973.7
                    L1685.2,973.7z"/>
            </g>
            <path class="st214" d="M1677,972.5c3.2,1.9,8.5,1.9,11.7,0l143.9-83.6c3.2-1.9,3.2-4.9,0-6.8l-144.8-83.6c-3.2-1.9-8.5-1.9-11.7,0
                l-143.9,83.6c-3.2,1.9-3.2,4.9,0,6.8L1677,972.5z"/>
            <polygon class="st217" points="1690.9,987.3 1690.3,1049.3 1857.4,952.2 1858,890.1 		"/>
            <polygon class="st216" points="1506.7,890.1 1506.1,952.2 1674.3,1049.3 1674.9,987.3 		"/>
            <path class="st214" d="M1506.7,890.1c-4.4-2.6-4.5-6.7-0.1-9.3l167.1-97.1c4.4-2.6,11.6-2.6,16,0l168.2,97.1
                c4.4,2.6,4.5,6.7,0.1,9.3l-167.1,97.1c-4.4,2.6-11.6,2.6-16,0L1506.7,890.1z M1834.9,889.4c3.7-2.1,3.7-5.6,0-7.8l-146.3-84.5
                c-3.7-2.1-9.7-2.1-13.4,0l-145.4,84.5c-3.7,2.1-3.7,5.6,0,7.8l146.3,84.5c3.7,2.1,9.7,2.1,13.4,0L1834.9,889.4L1834.9,889.4z"/>
            <g class="st212">
                <path class="st214" d="M1674.9,987.3l-0.6,62.1c0,0,0,0,0.1,0L1674.9,987.3C1675,987.3,1674.9,987.3,1674.9,987.3L1674.9,987.3z"
                    />
                <path class="st215" d="M1675,987.3l-0.6,62.1c3,1.7,7.4,2.3,11.2,1.6l0.6-62.1C1682.3,989.6,1678,989,1675,987.3L1675,987.3z"/>
                <path class="st214" d="M1686.2,988.9l-0.6,62.1c1.7-0.3,3.4-0.8,4.8-1.6l0.6-62.1C1689.5,988.1,1687.9,988.6,1686.2,988.9
                    L1686.2,988.9z"/>
            </g>
        </g>
        <g>
            <g>
                <g class="st212">
                    <path class="st146" d="M1552.1,885.5l0-0.9c0-4.6,3-9.2,8.9-12.8c0.9-0.5,1.8-1,2.7-1.5l0,0.9c-0.9,0.4-1.8,0.9-2.7,1.5
                        C1555.1,876.3,1552.1,880.9,1552.1,885.5L1552.1,885.5z"/>
                    <path class="st213" d="M1563.8,871.3l0-0.9c4.4-2.1,9.7-3.5,15.1-4l0,0.9C1573.4,867.8,1568.2,869.1,1563.8,871.3L1563.8,871.3z
                        "/>
                    <path class="st218" d="M1578.8,867.3l0-0.9c6.4-0.6,13.1-0.1,19.1,1.5l0,0.9C1591.9,867.2,1585.2,866.7,1578.8,867.3
                        L1578.8,867.3z"/>
                    <path class="st213" d="M1597.9,868.8l0-0.9c3.1,0.8,6,2,8.6,3.4c1.6,0.9,3,1.9,4.2,2.9l0,0.9c-1.2-1-2.6-2-4.2-2.9
                        C1603.9,870.8,1601,869.6,1597.9,868.8L1597.9,868.8z"/>
                    <path class="st146" d="M1610.7,875.1l0-0.9c3.8,3.2,5.7,6.9,5.7,10.6l0,0.9C1616.4,882,1614.5,878.3,1610.7,875.1L1610.7,875.1z
                        "/>
                </g>
                <path class="st219" d="M1607.4,898.6c12.3-7.4,11.9-19.2-0.9-26.3c-12.8-7.1-33.2-6.9-45.4,0.5c-12.3,7.4-11.9,19.2,0.9,26.3
                    C1574.8,906.2,1595.2,906,1607.4,898.6z"/>
                <g class="st212">
                    <path class="st146" d="M1616.4,885.7l0-0.9c0,4.6-3,9.2-8.9,12.8l0,0.9C1613.4,895,1616.4,890.4,1616.4,885.7L1616.4,885.7z"/>
                </g>
                <path class="st219" d="M1599.5,891.8c8.1-4.9,7.8-12.6-0.6-17.3c-8.4-4.7-21.8-4.6-29.9,0.3c-8.1,4.9-7.8,12.6,0.6,17.3
                    C1578,896.8,1591.4,896.7,1599.5,891.8z"/>
                <g class="st212">
                    <path class="st213" d="M1607.4,897.7l-7.9-5.9c-8.1,4.9-21.5,5-29.9,0.3c-2.4-1.3-4.2-2.9-5.2-4.6l-10.3,3.6
                        c1.6,2.6,4.3,5,7.9,7.1C1574.8,905.3,1595.2,905.1,1607.4,897.7L1607.4,897.7z"/>
                    <path class="st146" d="M1554.1,891.1l10.3-3.6c-2.7-4.3-1.2-9.2,4.6-12.7c8.1-4.9,21.5-5,29.9-0.3c7.7,4.3,8.6,11.1,2.5,16
                        l8.9,5.2c9.2-7.4,7.8-17.8-3.9-24.3c-12.8-7.1-33.2-6.9-45.4,0.5C1552.3,877.1,1550,884.6,1554.1,891.1L1554.1,891.1z"/>
                    <path class="st213" d="M1610.4,895.7l-8.9-5.2c-0.6,0.5-1.2,0.9-1.9,1.3l7.9,5.9C1608.5,897,1609.5,896.4,1610.4,895.7
                        L1610.4,895.7z"/>
                </g>
                <g class="st212">
                    <path class="st146" d="M1607.4,898.6l0-0.9c-0.9,0.5-1.8,1-2.7,1.5l0,0.9C1605.7,899.6,1606.6,899.1,1607.4,898.6L1607.4,898.6z
                        "/>
                    <path class="st213" d="M1604.7,900l0-0.9c-4.4,2.1-9.7,3.5-15.1,4l0,0.9C1595.1,903.5,1600.3,902.1,1604.7,900L1604.7,900z"/>
                    <path class="st220" d="M1589.7,904l0-0.9c-6.4,0.6-13.1,0.1-19.1-1.5l0,0.9C1576.6,904.1,1583.3,904.6,1589.7,904L1589.7,904z"
                        />
                    <path class="st213" d="M1570.6,902.5l0-0.9c-3.1-0.8-6-2-8.6-3.4c-1.6-0.9-3-1.9-4.2-2.9l0,0.9c1.2,1,2.6,2,4.2,2.9
                        C1564.6,900.5,1567.5,901.6,1570.6,902.5L1570.6,902.5z"/>
                    <path class="st146" d="M1557.8,896.1l0-0.9c-3.8-3.2-5.7-6.9-5.7-10.6l0,0.9C1552.1,889.3,1554,893,1557.8,896.1L1557.8,896.1z"
                        />
                </g>
                <g>
                    <g class="st212">
                        <path class="st211" d="M1575.8,884c-0.2,0-0.4-0.1-0.6-0.2c-0.4-0.1-0.8-0.2-1.2-0.3c-0.2-0.1-0.4-0.1-0.6-0.2
                            c-0.4-0.1-0.8-0.3-1.2-0.5c-0.2-0.1-0.4-0.2-0.6-0.3c-0.4-0.2-0.8-0.4-1.2-0.6l-0.6-0.3l0,0c-0.1,0-0.2-0.1-0.2-0.1
                            c-0.3-0.2-0.6-0.4-0.9-0.6c-0.2-0.1-0.4-0.3-0.6-0.4l0,0c-0.4-0.3-0.8-0.6-1.2-0.9l0,0c-0.2-0.2-0.4-0.4-0.6-0.6
                            c-0.4-0.4-0.8-0.9-1.2-1.3c-0.2-0.3-0.4-0.6-0.6-0.9c-0.7-1.3-1.1-2.6-1.1-3.9l0,9.8c0,1.4,0.4,2.8,1.2,4.1
                            c0.2,0.3,0.4,0.6,0.6,0.9c0.3,0.4,0.7,0.9,1.2,1.3c0.2,0.2,0.4,0.4,0.6,0.5c0.4,0.3,0.7,0.6,1.2,0.9c0.2,0.1,0.4,0.3,0.6,0.4
                            c0.3,0.2,0.5,0.3,0.8,0.5c0.1,0.1,0.2,0.1,0.3,0.2c0.2,0.1,0.4,0.2,0.6,0.3c0.4,0.2,0.8,0.4,1.2,0.5c0.2,0.1,0.4,0.2,0.6,0.3
                            c0.4,0.2,0.8,0.3,1.2,0.4c0.2,0.1,0.4,0.1,0.6,0.2c0.4,0.1,0.8,0.2,1.2,0.3c0.2,0.1,0.4,0.1,0.6,0.2c0.3,0.1,0.7,0.2,1,0.2
                            l0-9.8C1576.6,884.2,1576.2,884.1,1575.8,884z"/>
                        <path class="st221" d="M1584.5,894.8l0-9.8c-0.2,0-0.3,0-0.5,0c-0.4,0-0.8,0-1.2,0c-0.2,0-0.4,0-0.6,0c-0.4,0-0.8,0-1.2-0.1
                            c-0.2,0-0.4,0-0.6-0.1c-0.4,0-0.8-0.1-1.2-0.1c-0.2,0-0.4-0.1-0.6-0.1c-0.4-0.1-0.8-0.1-1.2-0.2c-0.2,0-0.4-0.1-0.6-0.1
                            c0,0,0,0-0.1,0l0,9.8c0,0,0.1,0,0.1,0c0.2,0,0.4,0.1,0.6,0.1c0.4,0.1,0.8,0.2,1.2,0.2c0.2,0,0.4,0.1,0.6,0.1
                            c0.4,0.1,0.8,0.1,1.2,0.2c0.2,0,0.4,0,0.6,0.1c0.4,0,0.8,0.1,1.2,0.1c0.2,0,0.4,0,0.6,0c0.4,0,0.8,0,1.2,0
                            C1584.2,894.8,1584.3,894.9,1584.5,894.8z"/>
                        <path class="st211" d="M1605.2,873.1l0,9.8c0,1.4-0.4,2.8-1.3,4.2c-0.2,0.3-0.4,0.6-0.6,0.8c-0.3,0.4-0.7,0.9-1.2,1.2
                            c-0.2,0.2-0.4,0.4-0.6,0.5c-0.3,0.3-0.7,0.6-1.2,0.9c-0.2,0.1-0.4,0.3-0.6,0.4c-0.2,0.1-0.4,0.3-0.6,0.4
                            c-0.2,0.1-0.3,0.2-0.5,0.3c-0.2,0.1-0.4,0.2-0.6,0.3c-0.4,0.2-0.8,0.4-1.2,0.5c-0.2,0.1-0.4,0.2-0.6,0.3
                            c-0.4,0.2-0.8,0.3-1.2,0.4c-0.2,0.1-0.4,0.1-0.6,0.2c0,0-0.1,0-0.1,0c-0.3,0.1-0.7,0.2-1,0.3c-0.2,0.1-0.4,0.1-0.6,0.2
                            c-0.4,0.1-0.8,0.2-1.2,0.3c-0.2,0-0.4,0.1-0.6,0.1c-0.4,0.1-0.8,0.1-1.2,0.2c-0.2,0-0.4,0.1-0.6,0.1c-0.4,0.1-0.8,0.1-1.2,0.1
                            c-0.2,0-0.4,0-0.6,0.1c-0.4,0-0.8,0.1-1.2,0.1c-0.2,0-0.4,0-0.6,0c-0.4,0-0.8,0-1.2,0h-0.2l0-9.8h0.1c0.4,0,0.8,0,1.2,0
                            c0.2,0,0.4,0,0.6,0c0.4,0,0.8,0,1.2-0.1c0.2,0,0.4,0,0.6-0.1c0.4,0,0.8-0.1,1.2-0.1c0.2,0,0.4,0,0.6-0.1
                            c0.4-0.1,0.8-0.1,1.2-0.2c0.2,0,0.4-0.1,0.6-0.1c0.4-0.1,0.8-0.2,1.2-0.3c0.2,0,0.4-0.1,0.6-0.2c0.4-0.1,0.7-0.2,1.1-0.3
                            c0,0,0,0,0.1,0c0.2-0.1,0.4-0.1,0.6-0.2c0.4-0.1,0.8-0.3,1.2-0.4c0.2-0.1,0.4-0.2,0.6-0.3c0.4-0.2,0.8-0.3,1.2-0.5
                            c0.2-0.1,0.4-0.2,0.6-0.3c0.2-0.1,0.4-0.2,0.6-0.3c0.2-0.1,0.4-0.2,0.6-0.4c0.2-0.1,0.4-0.3,0.6-0.4c0.4-0.3,0.8-0.6,1.2-0.9
                            c0.2-0.2,0.4-0.3,0.6-0.5c0.4-0.4,0.8-0.8,1.2-1.2c0.2-0.3,0.4-0.5,0.6-0.8C1604.8,876,1605.2,874.6,1605.2,873.1z"/>
                        <path class="st222" d="M1605.2,873.1l0,9.8c0,1.4-0.4,2.8-1.3,4.2c-0.2,0.3-0.4,0.6-0.6,0.8c-0.3,0.4-0.7,0.9-1.2,1.2
                            c-0.2,0.2-0.4,0.4-0.6,0.5c-0.3,0.3-0.7,0.6-1.2,0.9c-0.2,0.1-0.4,0.3-0.6,0.4c-0.2,0.1-0.4,0.3-0.6,0.4
                            c-0.2,0.1-0.3,0.2-0.5,0.3c-0.2,0.1-0.4,0.2-0.6,0.3c-0.4,0.2-0.8,0.4-1.2,0.5c-0.2,0.1-0.4,0.2-0.6,0.3
                            c-0.4,0.2-0.8,0.3-1.2,0.4c-0.2,0.1-0.4,0.1-0.6,0.2c0,0-0.1,0-0.1,0v-9.7c0,0,0,0,0.1,0c0.2-0.1,0.4-0.1,0.6-0.2
                            c0.4-0.1,0.8-0.3,1.2-0.4c0.2-0.1,0.4-0.2,0.6-0.3c0.4-0.2,0.8-0.3,1.2-0.5c0.2-0.1,0.4-0.2,0.6-0.3c0.2-0.1,0.4-0.2,0.6-0.3
                            c0.2-0.1,0.4-0.2,0.6-0.4c0.2-0.1,0.4-0.3,0.6-0.4c0.4-0.3,0.8-0.6,1.2-0.9c0.2-0.2,0.4-0.3,0.6-0.5c0.4-0.4,0.8-0.8,1.2-1.2
                            c0.2-0.3,0.4-0.5,0.6-0.8C1604.8,876,1605.2,874.6,1605.2,873.1z"/>
                    </g>
                    <path class="st223" d="M1569.7,881.6c8.2,4.7,21.3,4.7,29.4,0c8.1-4.7,8.1-12.3-0.1-17.1c-8.2-4.7-21.3-4.7-29.4,0
                        C1561.5,869.2,1561.6,876.9,1569.7,881.6z"/>
                    <path class="st224" d="M1564.1,875.6c0,0,0.3,0.7,1,1.7c0.7,1,2,2.2,3.8,3.4c0.5,0.3,0.9,0.5,1.4,0.8c0.5,0.2,1.1,0.5,1.6,0.7
                        c1.1,0.5,2.3,0.9,3.6,1.2c0.6,0.2,1.3,0.3,2,0.4c0.7,0.1,1.3,0.2,2,0.3c0.7,0.1,1.4,0.2,2.1,0.2c0.7,0.1,1.4,0.1,2.1,0.1
                        c1.4,0,2.8,0,4.2-0.1c1.4-0.1,2.7-0.3,4-0.6c0.6-0.2,1.3-0.3,1.9-0.5c0.6-0.2,1.2-0.4,1.8-0.6c0.6-0.2,1.1-0.4,1.6-0.6
                        c0.5-0.2,1-0.5,1.5-0.7c1.9-1,3.3-2.1,4.1-3c0.9-0.9,1.2-1.5,1.2-1.5s-0.1,0.2-0.2,0.5c-0.2,0.3-0.4,0.7-0.8,1.2
                        c-0.8,1-2.1,2.3-4,3.5c-0.5,0.3-1,0.5-1.5,0.8c-0.5,0.2-1.1,0.5-1.7,0.8c-0.6,0.2-1.2,0.4-1.8,0.7c-0.6,0.2-1.3,0.4-1.9,0.6
                        c-1.3,0.3-2.7,0.6-4.2,0.7c-1.4,0.1-2.9,0.2-4.4,0.2c-0.7,0-1.5,0-2.2-0.1c-0.7-0.1-1.4-0.1-2.2-0.2c-0.7-0.1-1.4-0.2-2.1-0.4
                        c-0.7-0.1-1.4-0.3-2-0.5c-1.3-0.4-2.6-0.9-3.7-1.4c-0.6-0.2-1.1-0.6-1.6-0.8c-0.5-0.3-1-0.6-1.5-0.9c-1.8-1.3-3-2.7-3.7-3.8
                        c-0.3-0.5-0.5-1-0.6-1.3C1564.1,875.8,1564.1,875.6,1564.1,875.6z"/>
                    <path class="st225" d="M1572.8,879.2c6.2,3.6,28.4-9.4,22.2-12.9c-6.2-3.6-16.2-3.6-22.3,0
                        C1566.5,869.8,1566.6,875.6,1572.8,879.2z"/>
                </g>
            </g>
        </g>
        <g>
            <g>
                <g class="st212">
                    <path class="st146" d="M1650.2,941.2l0-0.9c0-4.6,3-9.2,8.9-12.8c0.9-0.5,1.8-1,2.7-1.5l0,0.9c-0.9,0.4-1.8,0.9-2.7,1.5
                        C1653.2,932,1650.2,936.6,1650.2,941.2L1650.2,941.2z"/>
                    <path class="st213" d="M1661.8,926.9l0-0.9c4.4-2.1,9.7-3.5,15.1-4l0,0.9C1671.5,923.5,1666.3,924.8,1661.8,926.9L1661.8,926.9z
                        "/>
                    <path class="st218" d="M1676.9,922.9l0-0.9c6.4-0.6,13.1-0.1,19.1,1.5l0,0.9C1690,922.8,1683.3,922.3,1676.9,922.9L1676.9,922.9
                        z"/>
                    <path class="st213" d="M1696,924.5l0-0.9c3.1,0.8,6,2,8.6,3.4c1.6,0.9,3,1.9,4.2,2.9l0,0.9c-1.2-1-2.6-2-4.2-2.9
                        C1702,926.5,1699.1,925.3,1696,924.5L1696,924.5z"/>
                    <path class="st146" d="M1708.8,930.8l0-0.9c3.8,3.2,5.7,6.9,5.7,10.6l0,0.9C1714.5,937.7,1712.6,934,1708.8,930.8L1708.8,930.8z
                        "/>
                </g>
                <path class="st219" d="M1705.5,954.2c12.3-7.4,11.9-19.2-0.9-26.3c-12.8-7.1-33.2-6.9-45.4,0.5c-12.3,7.4-11.9,19.2,0.9,26.3
                    C1672.9,961.8,1693.2,961.6,1705.5,954.2z"/>
                <g class="st212">
                    <path class="st146" d="M1714.5,941.4l0-0.9c0,4.6-3,9.2-8.9,12.8l0,0.9C1711.5,950.6,1714.5,946,1714.5,941.4L1714.5,941.4z"/>
                </g>
                <path class="st219" d="M1697.6,947.5c8.1-4.9,7.8-12.6-0.6-17.3c-8.4-4.7-21.8-4.6-29.9,0.3c-8.1,4.9-7.8,12.6,0.6,17.3
                    C1676.1,952.5,1689.5,952.3,1697.6,947.5z"/>
                <g class="st212">
                    <path class="st213" d="M1705.5,953.3l-7.9-5.9c-8.1,4.9-21.5,5-29.9,0.3c-2.4-1.3-4.2-2.9-5.2-4.6l-10.3,3.6
                        c1.6,2.6,4.3,5,7.9,7.1C1672.9,961,1693.3,960.7,1705.5,953.3L1705.5,953.3z"/>
                    <path class="st146" d="M1652.2,946.8l10.3-3.6c-2.7-4.3-1.2-9.2,4.6-12.7c8.1-4.9,21.5-5,29.9-0.3c7.7,4.3,8.6,11.1,2.5,16
                        l8.9,5.2c9.2-7.4,7.8-17.8-3.9-24.3c-12.8-7.1-33.2-6.9-45.4,0.5C1650.4,932.8,1648.1,940.3,1652.2,946.8L1652.2,946.8z"/>
                    <path class="st213" d="M1708.5,951.3l-8.9-5.2c-0.6,0.5-1.2,0.9-1.9,1.3l7.9,5.9C1706.6,952.7,1707.6,952,1708.5,951.3
                        L1708.5,951.3z"/>
                </g>
                <g class="st212">
                    <path class="st146" d="M1705.5,954.2l0-0.9c-0.9,0.5-1.8,1-2.7,1.5l0,0.9C1703.8,955.2,1704.7,954.7,1705.5,954.2L1705.5,954.2z
                        "/>
                    <path class="st213" d="M1702.8,955.7l0-0.9c-4.4,2.1-9.7,3.5-15.1,4l0,0.9C1693.2,959.1,1698.4,957.8,1702.8,955.7L1702.8,955.7
                        z"/>
                    <path class="st220" d="M1687.8,959.7l0-0.9c-6.4,0.6-13.1,0.1-19.1-1.5l0,0.9C1674.7,959.8,1681.4,960.3,1687.8,959.7
                        L1687.8,959.7z"/>
                    <path class="st213" d="M1668.7,958.1l0-0.9c-3.1-0.8-6-2-8.6-3.4c-1.6-0.9-3-1.9-4.2-2.9l0,0.9c1.2,1,2.6,2,4.2,2.9
                        C1662.7,956.1,1665.6,957.3,1668.7,958.1L1668.7,958.1z"/>
                    <path class="st146" d="M1655.9,951.8l0-0.9c-3.8-3.2-5.7-6.9-5.7-10.6l0,0.9C1650.2,944.9,1652.1,948.6,1655.9,951.8
                        L1655.9,951.8z"/>
                </g>
                <g>
                    <g class="st212">
                        <path class="st211" d="M1673.9,939.7c-0.2,0-0.4-0.1-0.6-0.2c-0.4-0.1-0.8-0.2-1.2-0.3c-0.2-0.1-0.4-0.1-0.6-0.2
                            c-0.4-0.1-0.8-0.3-1.2-0.5c-0.2-0.1-0.4-0.2-0.6-0.3c-0.4-0.2-0.8-0.4-1.2-0.6l-0.6-0.3l0,0c-0.1,0-0.2-0.1-0.2-0.1
                            c-0.3-0.2-0.6-0.4-0.9-0.6c-0.2-0.1-0.4-0.3-0.6-0.4l0,0c-0.4-0.3-0.8-0.6-1.2-0.9l0,0c-0.2-0.2-0.4-0.4-0.6-0.6
                            c-0.4-0.4-0.8-0.9-1.2-1.3c-0.2-0.3-0.4-0.6-0.6-0.9c-0.7-1.3-1.1-2.6-1.1-3.9l0,9.8c0,1.4,0.4,2.8,1.2,4.1
                            c0.2,0.3,0.4,0.6,0.6,0.9c0.3,0.4,0.7,0.9,1.2,1.3c0.2,0.2,0.4,0.4,0.6,0.5c0.4,0.3,0.7,0.6,1.2,0.9c0.2,0.1,0.4,0.3,0.6,0.4
                            c0.3,0.2,0.5,0.3,0.8,0.5c0.1,0.1,0.2,0.1,0.3,0.2c0.2,0.1,0.4,0.2,0.6,0.3c0.4,0.2,0.8,0.4,1.2,0.5c0.2,0.1,0.4,0.2,0.6,0.3
                            c0.4,0.2,0.8,0.3,1.2,0.4c0.2,0.1,0.4,0.1,0.6,0.2c0.4,0.1,0.8,0.2,1.2,0.3c0.2,0.1,0.4,0.1,0.6,0.2c0.3,0.1,0.7,0.2,1,0.2
                            l0-9.8C1674.7,939.9,1674.3,939.8,1673.9,939.7z"/>
                        <path class="st221" d="M1682.6,950.5l0-9.8c-0.2,0-0.3,0-0.5,0c-0.4,0-0.8,0-1.2,0c-0.2,0-0.4,0-0.6,0c-0.4,0-0.8,0-1.2-0.1
                            c-0.2,0-0.4,0-0.6-0.1c-0.4,0-0.8-0.1-1.2-0.1c-0.2,0-0.4-0.1-0.6-0.1c-0.4-0.1-0.8-0.1-1.2-0.2c-0.2,0-0.4-0.1-0.6-0.1
                            c0,0,0,0-0.1,0l0,9.8c0,0,0.1,0,0.1,0c0.2,0,0.4,0.1,0.6,0.1c0.4,0.1,0.8,0.2,1.2,0.2c0.2,0,0.4,0.1,0.6,0.1
                            c0.4,0.1,0.8,0.1,1.2,0.2c0.2,0,0.4,0,0.6,0.1c0.4,0,0.8,0.1,1.2,0.1c0.2,0,0.4,0,0.6,0c0.4,0,0.8,0,1.2,0
                            C1682.3,950.5,1682.4,950.5,1682.6,950.5z"/>
                        <path class="st211" d="M1703.3,928.8l0,9.8c0,1.4-0.4,2.8-1.3,4.2c-0.2,0.3-0.4,0.6-0.6,0.8c-0.3,0.4-0.7,0.9-1.2,1.2
                            c-0.2,0.2-0.4,0.4-0.6,0.5c-0.3,0.3-0.7,0.6-1.2,0.9c-0.2,0.1-0.4,0.3-0.6,0.4c-0.2,0.1-0.4,0.3-0.6,0.4
                            c-0.2,0.1-0.3,0.2-0.5,0.3c-0.2,0.1-0.4,0.2-0.6,0.3c-0.4,0.2-0.8,0.4-1.2,0.5c-0.2,0.1-0.4,0.2-0.6,0.3
                            c-0.4,0.2-0.8,0.3-1.2,0.4c-0.2,0.1-0.4,0.1-0.6,0.2c0,0-0.1,0-0.1,0c-0.3,0.1-0.7,0.2-1,0.3c-0.2,0.1-0.4,0.1-0.6,0.2
                            c-0.4,0.1-0.8,0.2-1.2,0.3c-0.2,0-0.4,0.1-0.6,0.1c-0.4,0.1-0.8,0.1-1.2,0.2c-0.2,0-0.4,0.1-0.6,0.1c-0.4,0.1-0.8,0.1-1.2,0.1
                            c-0.2,0-0.4,0-0.6,0.1c-0.4,0-0.8,0.1-1.2,0.1c-0.2,0-0.4,0-0.6,0c-0.4,0-0.8,0-1.2,0h-0.2l0-9.8h0.1c0.4,0,0.8,0,1.2,0
                            c0.2,0,0.4,0,0.6,0c0.4,0,0.8,0,1.2-0.1c0.2,0,0.4,0,0.6-0.1c0.4,0,0.8-0.1,1.2-0.1c0.2,0,0.4,0,0.6-0.1
                            c0.4-0.1,0.8-0.1,1.2-0.2c0.2,0,0.4-0.1,0.6-0.1c0.4-0.1,0.8-0.2,1.2-0.3c0.2,0,0.4-0.1,0.6-0.2c0.4-0.1,0.7-0.2,1.1-0.3
                            c0,0,0,0,0.1,0c0.2-0.1,0.4-0.1,0.6-0.2c0.4-0.1,0.8-0.3,1.2-0.4c0.2-0.1,0.4-0.2,0.6-0.3c0.4-0.2,0.8-0.3,1.2-0.5
                            c0.2-0.1,0.4-0.2,0.6-0.3c0.2-0.1,0.4-0.2,0.6-0.3c0.2-0.1,0.4-0.2,0.6-0.4c0.2-0.1,0.4-0.3,0.6-0.4c0.4-0.3,0.8-0.6,1.2-0.9
                            c0.2-0.2,0.4-0.3,0.6-0.5c0.4-0.4,0.8-0.8,1.2-1.2c0.2-0.3,0.4-0.5,0.6-0.8C1702.9,931.7,1703.3,930.2,1703.3,928.8z"/>
                        <path class="st222" d="M1703.3,928.8l0,9.8c0,1.4-0.4,2.8-1.3,4.2c-0.2,0.3-0.4,0.6-0.6,0.8c-0.3,0.4-0.7,0.9-1.2,1.2
                            c-0.2,0.2-0.4,0.4-0.6,0.5c-0.3,0.3-0.7,0.6-1.2,0.9c-0.2,0.1-0.4,0.3-0.6,0.4c-0.2,0.1-0.4,0.3-0.6,0.4
                            c-0.2,0.1-0.3,0.2-0.5,0.3c-0.2,0.1-0.4,0.2-0.6,0.3c-0.4,0.2-0.8,0.4-1.2,0.5c-0.2,0.1-0.4,0.2-0.6,0.3
                            c-0.4,0.2-0.8,0.3-1.2,0.4c-0.2,0.1-0.4,0.1-0.6,0.2c0,0-0.1,0-0.1,0v-9.7c0,0,0,0,0.1,0c0.2-0.1,0.4-0.1,0.6-0.2
                            c0.4-0.1,0.8-0.3,1.2-0.4c0.2-0.1,0.4-0.2,0.6-0.3c0.4-0.2,0.8-0.3,1.2-0.5c0.2-0.1,0.4-0.2,0.6-0.3c0.2-0.1,0.4-0.2,0.6-0.3
                            c0.2-0.1,0.4-0.2,0.6-0.4c0.2-0.1,0.4-0.3,0.6-0.4c0.4-0.3,0.8-0.6,1.2-0.9c0.2-0.2,0.4-0.3,0.6-0.5c0.4-0.4,0.8-0.8,1.2-1.2
                            c0.2-0.3,0.4-0.5,0.6-0.8C1702.9,931.7,1703.3,930.2,1703.3,928.8z"/>
                    </g>
                    <path class="st223" d="M1667.8,937.2c8.2,4.7,21.3,4.7,29.4,0c8.1-4.7,8.1-12.3-0.1-17.1c-8.2-4.7-21.3-4.7-29.4,0
                        C1659.6,924.9,1659.7,932.5,1667.8,937.2z"/>
                    <path class="st224" d="M1662.2,931.3c0,0,0.3,0.7,1,1.7c0.7,1,2,2.2,3.8,3.4c0.5,0.3,0.9,0.5,1.4,0.8c0.5,0.2,1.1,0.5,1.6,0.7
                        c1.1,0.5,2.3,0.9,3.6,1.2c0.6,0.2,1.3,0.3,2,0.4c0.7,0.1,1.3,0.2,2,0.3c0.7,0.1,1.4,0.2,2.1,0.2c0.7,0.1,1.4,0.1,2.1,0.1
                        c1.4,0,2.8,0,4.2-0.1c1.4-0.1,2.7-0.3,4-0.6c0.6-0.2,1.3-0.3,1.9-0.5c0.6-0.2,1.2-0.4,1.8-0.6c0.6-0.2,1.1-0.4,1.6-0.6
                        c0.5-0.2,1-0.5,1.5-0.7c1.9-1,3.3-2.1,4.1-3c0.9-0.9,1.2-1.5,1.2-1.5s-0.1,0.2-0.2,0.5c-0.2,0.3-0.4,0.7-0.8,1.2
                        c-0.8,1-2.1,2.3-4,3.5c-0.5,0.3-1,0.5-1.5,0.8c-0.5,0.2-1.1,0.5-1.7,0.8c-0.6,0.2-1.2,0.4-1.8,0.7c-0.6,0.2-1.3,0.4-1.9,0.6
                        c-1.3,0.3-2.7,0.6-4.2,0.7c-1.4,0.1-2.9,0.2-4.4,0.2c-0.7,0-1.5,0-2.2-0.1c-0.7-0.1-1.4-0.1-2.2-0.2c-0.7-0.1-1.4-0.2-2.1-0.4
                        c-0.7-0.1-1.4-0.3-2-0.5c-1.3-0.4-2.6-0.9-3.7-1.4c-0.6-0.2-1.1-0.6-1.6-0.8c-0.5-0.3-1-0.6-1.5-0.9c-1.8-1.3-3-2.7-3.7-3.8
                        c-0.3-0.5-0.5-1-0.6-1.3C1662.2,931.5,1662.2,931.3,1662.2,931.3z"/>
                    <path class="st225" d="M1670.9,934.9c6.2,3.6,28.4-9.4,22.2-12.9c-6.2-3.6-16.2-3.6-22.3,0
                        C1664.6,925.5,1664.7,931.3,1670.9,934.9z"/>
                </g>
            </g>
        </g>
        <g>
            <g>
                <g>
                    <g class="st212">
                        <path class="st146" d="M1631.9,875.9l0-1.4c0-7.2,4.7-14.4,14-20c1.3-0.8,2.8-1.6,4.2-2.3l0,1.4c-1.5,0.7-2.9,1.5-4.2,2.3
                            C1636.6,861.5,1632,868.7,1631.9,875.9L1631.9,875.9z"/>
                        <path class="st213" d="M1650.1,853.6l0-1.4c6.9-3.3,15.1-5.4,23.5-6.2l0,1.4C1665.2,848.2,1657,850.3,1650.1,853.6
                            L1650.1,853.6z"/>
                        <path class="st218" d="M1673.6,847.4l0-1.4c10-1,20.4-0.2,29.7,2.4l0,1.4C1694,847.2,1683.6,846.4,1673.6,847.4L1673.6,847.4z"
                            />
                        <path class="st213" d="M1703.3,849.8l0-1.4c4.8,1.3,9.3,3.1,13.4,5.4c2.5,1.4,4.7,2.9,6.6,4.5l0,1.4c-1.9-1.6-4.1-3.1-6.6-4.5
                            C1712.7,852.9,1708.2,851.1,1703.3,849.8L1703.3,849.8z"/>
                        <path class="st146" d="M1723.3,859.6l0-1.4c5.9,5,8.9,10.7,8.8,16.5l0,1.4C1732.2,870.4,1729.2,864.6,1723.3,859.6
                            L1723.3,859.6z"/>
                    </g>
                    <path class="st219" d="M1718.2,896.2c19.2-11.5,18.5-29.9-1.5-41c-20-11.1-51.7-10.8-70.9,0.7c-19.2,11.5-18.5,29.9,1.5,41
                        C1667.3,908,1699,907.7,1718.2,896.2z"/>
                    <g class="st212">
                        <path class="st146" d="M1732.2,876.2l0-1.4c0,7.2-4.7,14.4-14,20l0,1.4C1727.5,890.6,1732.1,883.4,1732.2,876.2L1732.2,876.2z"
                            />
                    </g>
                    <path class="st219" d="M1705.8,885.6c12.6-7.6,12.2-19.7-1-27c-13.1-7.3-34-7.1-46.6,0.5c-12.6,7.6-12.2,19.7,1,27
                        C1672.4,893.4,1693.2,893.2,1705.8,885.6z"/>
                    <g class="st212">
                        <path class="st213" d="M1718.2,894.8l-12.4-9.2c-12.6,7.6-33.5,7.8-46.6,0.5c-3.8-2.1-6.5-4.6-8.1-7.2l-16.1,5.7
                            c2.5,4,6.7,7.8,12.4,11C1667.3,906.7,1699.1,906.3,1718.2,894.8L1718.2,894.8z"/>
                        <path class="st146" d="M1635,884.5l16.1-5.7c-4.2-6.6-1.8-14.3,7.2-19.8c12.6-7.6,33.5-7.8,46.6-0.5c12,6.7,13.4,17.3,4,24.9
                            l13.9,8.1c14.3-11.5,12.2-27.7-6-37.9c-20-11.1-51.7-10.8-70.9,0.7C1632.2,862.7,1628.6,874.4,1635,884.5L1635,884.5z"/>
                        <path class="st213" d="M1722.8,891.6l-13.9-8.1c-0.9,0.7-1.9,1.4-3,2.1l12.4,9.2C1719.9,893.8,1721.4,892.7,1722.8,891.6
                            L1722.8,891.6z"/>
                    </g>
                    <g class="st212">
                        <path class="st146" d="M1718.2,896.2l0-1.4c-1.3,0.8-2.8,1.6-4.2,2.3l0,1.4C1715.5,897.7,1716.9,897,1718.2,896.2L1718.2,896.2
                            z"/>
                        <path class="st213" d="M1714,898.4l0-1.4c-6.9,3.3-15.1,5.4-23.5,6.2l0,1.4C1698.9,903.8,1707.1,901.8,1714,898.4L1714,898.4z"
                            />
                        <path class="st220" d="M1690.5,904.7l0-1.4c-10,1-20.4,0.2-29.7-2.4l0,1.4C1670.1,904.8,1680.5,905.6,1690.5,904.7
                            L1690.5,904.7z"/>
                        <path class="st213" d="M1660.7,902.3l0-1.4c-4.8-1.3-9.3-3.1-13.4-5.4c-2.5-1.4-4.7-2.9-6.6-4.5l0,1.4c1.9,1.6,4.1,3.1,6.6,4.5
                            C1651.4,899.2,1655.9,900.9,1660.7,902.3L1660.7,902.3z"/>
                        <path class="st146" d="M1640.8,892.4l0-1.4c-5.9-5-8.9-10.7-8.8-16.5l0,1.4C1631.9,881.7,1634.9,887.5,1640.8,892.4
                            L1640.8,892.4z"/>
                    </g>
                    <g>
                        <g class="st212">
                            <path class="st146" d="M1668.9,882.4c-0.3-0.1-0.6-0.2-0.9-0.3c-0.6-0.2-1.2-0.4-1.8-0.5c-0.3-0.1-0.6-0.2-0.9-0.3
                                c-0.6-0.2-1.2-0.4-1.8-0.7c-0.3-0.1-0.6-0.3-0.9-0.4c-0.6-0.3-1.2-0.6-1.8-0.9l-0.9-0.5l0,0c-0.1-0.1-0.3-0.1-0.4-0.2
                                c-0.5-0.3-1-0.6-1.4-0.9c-0.3-0.2-0.6-0.4-0.9-0.6l0,0c-0.6-0.5-1.3-0.9-1.8-1.4l0,0c-0.3-0.3-0.6-0.6-0.9-0.9
                                c-0.7-0.7-1.3-1.4-1.8-2.1c-0.3-0.5-0.7-0.9-0.9-1.4c-1.2-2-1.8-4.1-1.8-6.1l0,6.3c0,2.1,0.6,4.3,1.9,6.3
                                c0.3,0.5,0.6,0.9,0.9,1.3c0.5,0.7,1.1,1.4,1.8,2c0.3,0.3,0.6,0.6,0.9,0.9c0.6,0.5,1.2,1,1.8,1.4c0.3,0.2,0.6,0.4,0.9,0.6
                                c0.4,0.3,0.8,0.5,1.3,0.8c0.2,0.1,0.3,0.2,0.5,0.3c0.3,0.2,0.6,0.3,0.9,0.5c0.6,0.3,1.2,0.6,1.8,0.9c0.3,0.1,0.6,0.3,0.9,0.4
                                c0.6,0.2,1.2,0.5,1.8,0.7c0.3,0.1,0.6,0.2,0.9,0.3c0.6,0.2,1.2,0.4,1.8,0.5c0.3,0.1,0.6,0.2,0.9,0.3c0.5,0.1,1.1,0.3,1.6,0.4
                                l0-6.3C1670.1,882.7,1669.5,882.6,1668.9,882.4z"/>
                            <path class="st220" d="M1682.4,890.4l0-6.3c-0.3,0-0.5,0-0.8,0c-0.6,0-1.2,0-1.8-0.1c-0.3,0-0.6,0-0.9-0.1
                                c-0.6,0-1.2-0.1-1.8-0.1c-0.3,0-0.6-0.1-0.9-0.1c-0.6-0.1-1.2-0.1-1.8-0.2c-0.3,0-0.6-0.1-0.9-0.1c-0.6-0.1-1.2-0.2-1.8-0.3
                                c-0.3-0.1-0.6-0.1-0.9-0.2c0,0-0.1,0-0.1,0l0,6.3c0.1,0,0.1,0,0.2,0c0.3,0.1,0.6,0.1,0.9,0.2c0.6,0.1,1.2,0.2,1.8,0.3
                                c0.3,0.1,0.6,0.1,0.9,0.1c0.6,0.1,1.2,0.2,1.8,0.2c0.3,0,0.6,0.1,0.9,0.1c0.6,0.1,1.2,0.1,1.8,0.1c0.3,0,0.6,0,0.9,0
                                c0.6,0,1.2,0,1.8,0.1C1682,890.4,1682.2,890.4,1682.4,890.4z"/>
                            <g>
                                <path class="st146" d="M1714.7,865.4l0,6.2c0,2.2-0.7,4.4-2,6.5c-0.3,0.4-0.6,0.9-0.9,1.3c-0.5,0.7-1.1,1.3-1.8,1.9
                                    c-0.3,0.3-0.6,0.6-0.9,0.8c-0.6,0.5-1.2,0.9-1.8,1.4c-0.3,0.2-0.6,0.4-0.9,0.6c-0.3,0.2-0.7,0.4-1,0.6
                                    c-0.3,0.1-0.5,0.3-0.8,0.4c-0.3,0.2-0.6,0.3-0.9,0.5c-0.6,0.3-1.2,0.6-1.8,0.8c-0.3,0.1-0.6,0.3-0.9,0.4
                                    c-0.6,0.2-1.2,0.5-1.8,0.7c-0.2,0.1-0.3,0.1-0.5,0.2c-0.1,0-0.3,0.1-0.4,0.1c-0.6,0.2-1.2,0.4-1.8,0.5
                                    c-0.3,0.1-0.6,0.2-0.9,0.3c-0.6,0.2-1.2,0.3-1.8,0.4c-0.3,0.1-0.6,0.1-0.9,0.2c-0.6,0.1-1.2,0.2-1.8,0.3
                                    c-0.3,0.1-0.6,0.1-0.9,0.1c-0.6,0.1-1.2,0.2-1.8,0.2c-0.3,0-0.6,0.1-0.9,0.1c-0.6,0-1.2,0.1-1.8,0.1c-0.3,0-0.6,0-0.9,0
                                    c-0.6,0-1.2,0-1.8,0h-0.3l0-6.3h0.2c0.6,0,1.2,0,1.8,0c0.3,0,0.6,0,0.9,0c0.6,0,1.2-0.1,1.8-0.1c0.3,0,0.6,0,0.9-0.1
                                    c0.6,0,1.2-0.1,1.8-0.2c0.3,0,0.6-0.1,0.9-0.1c0.6-0.1,1.2-0.2,1.8-0.3c0.3,0,0.6-0.1,0.9-0.2c0.6-0.1,1.2-0.3,1.8-0.4
                                    c0.3-0.1,0.6-0.2,0.9-0.3c0.6-0.2,1.2-0.3,1.8-0.5c0.2,0,0.3-0.1,0.5-0.2c0.1,0,0.3-0.1,0.4-0.1c0.6-0.2,1.2-0.4,1.8-0.7
                                    c0.3-0.1,0.6-0.3,0.9-0.4c0.6-0.3,1.2-0.5,1.8-0.8c0.3-0.1,0.6-0.3,0.9-0.5c0.3-0.2,0.6-0.3,0.9-0.5c0.3-0.2,0.6-0.4,0.9-0.6
                                    c0.3-0.2,0.6-0.4,0.9-0.6c0.6-0.4,1.2-0.9,1.8-1.4c0.3-0.3,0.6-0.5,0.9-0.8c0.7-0.6,1.3-1.2,1.8-1.9c0.3-0.4,0.7-0.8,0.9-1.3
                                    C1714,870,1714.7,867.7,1714.7,865.4z"/>
                            </g>
                            <path class="st147" d="M1714.7,865.4l0,6.2c0,2.2-0.7,4.4-2,6.5c-0.3,0.4-0.6,0.9-0.9,1.3c-0.5,0.7-1.1,1.3-1.8,1.9
                                c-0.3,0.3-0.6,0.6-0.9,0.8c-0.6,0.5-1.2,0.9-1.8,1.4c-0.3,0.2-0.6,0.4-0.9,0.6c-0.3,0.2-0.7,0.4-1,0.6
                                c-0.3,0.1-0.5,0.3-0.8,0.4c-0.3,0.2-0.6,0.3-0.9,0.5c-0.6,0.3-1.2,0.6-1.8,0.8c-0.3,0.1-0.6,0.3-0.9,0.4
                                c-0.6,0.2-1.2,0.5-1.8,0.7c-0.2,0.1-0.3,0.1-0.5,0.2v-6.2c0.1,0,0.3-0.1,0.4-0.1c0.6-0.2,1.2-0.4,1.8-0.7
                                c0.3-0.1,0.6-0.3,0.9-0.4c0.6-0.3,1.2-0.5,1.8-0.8c0.3-0.1,0.6-0.3,0.9-0.5c0.3-0.2,0.6-0.3,0.9-0.5c0.3-0.2,0.6-0.4,0.9-0.6
                                c0.3-0.2,0.6-0.4,0.9-0.6c0.6-0.4,1.2-0.9,1.8-1.4c0.3-0.3,0.6-0.5,0.9-0.8c0.7-0.6,1.3-1.2,1.8-1.9c0.3-0.4,0.7-0.8,0.9-1.3
                                C1714,870,1714.7,867.7,1714.7,865.4z"/>
                        </g>
                        <path class="st213" d="M1659.4,878.6c12.7,7.3,33.3,7.3,45.9,0c12.6-7.3,12.6-19.2-0.1-26.6c-12.7-7.3-33.3-7.3-45.9,0
                            C1646.6,859.4,1646.7,871.3,1659.4,878.6z"/>
                        <path class="st226" d="M1674.9,873.9l-3.7,8.1c3.7,0.8,7.5,1.1,11.3,1.1l1.5-8.2C1680.7,875.1,1677.7,874.8,1674.9,873.9z"/>
                        <path class="st219" d="M1670.6,872.1c6.5,3.8,17,3.8,23.5,0c6.5-3.8,6.4-9.9-0.1-13.6c-6.5-3.8-17-3.8-23.5,0
                            C1664,862.3,1664,868.4,1670.6,872.1z"/>
                        <path class="st220" d="M1650.6,869.4c0,0,0.4,1.1,1.6,2.6c1.1,1.6,3.2,3.5,6,5.2c0.7,0.4,1.4,0.9,2.2,1.2
                            c0.8,0.4,1.7,0.9,2.5,1.2c1.7,0.7,3.6,1.3,5.6,1.8c1,0.3,2,0.5,3.1,0.7c1,0.2,2.1,0.4,3.2,0.5c1.1,0.2,2.2,0.3,3.3,0.3
                            c1.1,0.1,2.2,0.1,3.3,0.1c2.2,0.1,4.4,0,6.6-0.2c2.2-0.2,4.3-0.5,6.3-0.9c1-0.2,2-0.5,3-0.7c0.9-0.3,1.9-0.6,2.8-0.9
                            c0.9-0.3,1.7-0.7,2.6-1c0.8-0.4,1.6-0.8,2.3-1.1c2.9-1.5,5.1-3.3,6.4-4.7c1.3-1.4,1.9-2.4,1.9-2.4s-0.1,0.2-0.4,0.7
                            c-0.3,0.5-0.6,1.1-1.3,1.9c-1.2,1.6-3.2,3.6-6.2,5.4c-0.7,0.4-1.5,0.9-2.3,1.3c-0.8,0.4-1.7,0.8-2.6,1.2
                            c-0.9,0.3-1.9,0.7-2.8,1.1c-1,0.3-2,0.6-3,0.9c-2.1,0.5-4.3,0.9-6.5,1.1c-2.2,0.2-4.5,0.4-6.8,0.3c-1.1,0-2.3-0.1-3.4-0.2
                            c-1.1-0.1-2.3-0.2-3.4-0.4c-1.1-0.1-2.2-0.4-3.3-0.6c-1.1-0.2-2.1-0.5-3.2-0.8c-2.1-0.6-4-1.3-5.8-2.2
                            c-0.9-0.4-1.7-0.9-2.5-1.3c-0.8-0.4-1.6-0.9-2.3-1.4c-2.8-2-4.7-4.2-5.7-5.9c-0.5-0.8-0.8-1.6-1-2.1
                            C1650.7,869.6,1650.6,869.4,1650.6,869.4z"/>
                    </g>
                </g>
            </g>
            <g>
                <path class="st146" d="M1697.4,783.4v81.3c0,3.2-3,6-7.6,7.5c-1.8,0.6-3.7,1-5.9,1.1c-0.5,0-1.1,0.1-1.6,0.1c-2.5,0-4.9-0.4-7-1
                    c-4.8-1.5-8-4.4-8-7.7v-81.3c0-3.3,3.2-6.2,8-7.7c2.1-0.7,4.5-1,7-1c0.6,0,1.1,0,1.6,0.1C1691.5,775.3,1697.4,779,1697.4,783.4z"
                    />
                <path class="st220" d="M1683.9,774.8v98.5c-0.5,0-1.1,0.1-1.6,0.1c-2.5,0-4.9-0.4-7-1v-96.6c2.1-0.7,4.5-1,7-1
                    C1682.8,774.7,1683.4,774.7,1683.9,774.8z"/>
                <path class="st147" d="M1683.9,774.8c-0.5,0-1.1-0.1-1.6-0.1c-2.5,0-4.9,0.4-7,1c-4.8,1.5-8,4.4-8,7.7v28.5
                    c4.7,1.4,9.7,2.2,14.8,2.2c2.6,0,5.2-0.2,7.7-0.6v58.7c4.5-1.5,7.6-4.3,7.6-7.5v-52.9v-16.2v-12.1
                    C1697.4,779,1691.5,775.3,1683.9,774.8z"/>
            </g>
            <g>
                <circle class="st211" cx="1682" cy="760.6" r="50.6"/>
                <path class="st222" d="M1725.7,735.1c0.8,3.8,1.2,7.7,1.2,11.7c0,31.9-26.3,57.8-58.7,57.8c-4.7,0-9.3-0.6-13.7-1.6
                    c7.9,5.1,17.4,8.1,27.5,8.1c27.9,0,50.6-22.6,50.6-50.6C1732.6,751.3,1730.1,742.6,1725.7,735.1z"/>
                <path class="st227" d="M1636.1,758.4c0-24.1,19.6-43.7,43.7-43.7C1704,714.7,1636.1,782.5,1636.1,758.4z"/>
            </g>
        </g>
    </g>
    <rect id="b2" x="-1.5" y="584.9" class="st211" width="1373.8" height="219.6"/>
    <g id="b3">
    <rect x="-1.5" y="475.6" class="st211" width="390" height="109.3"/>
    <rect x="-1.5" y="366.3" class="st211" width="171.4" height="109.3"/>
    </g>
    <g id="b5">
    <rect x="1153.7" y="475.6" class="st228" width="109.3" height="109.3"/>
    <rect x="716.4" y="475.6" class="st229" width="109.3" height="109.3"/>
    <rect x="607.1" y="475.6" class="st230" width="109.3" height="109.3"/>
    <rect x="825.8" y="366.3" class="st231" width="109.3" height="109.3"/>
    <rect x="716.4" y="366.3" class="st230" width="109.3" height="109.3"/>
    <rect x="388.5" y="366.3" class="st231" width="109.3" height="109.3"/>
    <rect x="279.2" y="257" class="st231" width="109.3" height="109.3"/>
    <rect x="169.9" y="257" class="st232" width="109.3" height="109.3"/>
    </g>
    <g id="b4_1_">
        <rect x="497.8" y="475.6" class="st233" width="109.3" height="109.3"/>
        <g id="b66">
            <rect x="1263" y="475.6" class="st231" width="109.3" height="109.3"/>
            <rect x="1372.3" y="584.9" class="st231" width="109.3" height="109.3"/>
            <g>
                <rect x="388.5" y="475.6" class="st230" width="109.3" height="109.3"/>
                <rect x="279.2" y="366.3" class="st228" width="109.3" height="109.3"/>
                <rect x="169.9" y="366.3" class="st228" width="109.3" height="109.3"/>
            </g>
        </g>
        <rect x="825.8" y="475.6" class="st233" width="218.6" height="109.3"/>
    </g>
</svg>