<?xml version="1.0" encoding="utf-8"?>
<!-- Generator: Adobe Illustrator 19.0.0, SVG Export Plug-In . SVG Version: 6.00 Build 0)  -->
<svg version="1.1" id="Layer_1" xmlns="http://www.w3.org/2000/svg" xmlns:xlink="http://www.w3.org/1999/xlink" x="0px" y="0px"
	 viewBox="0 0 1920 1080" style="enable-background:new 0 0 1920 1080;" xml:space="preserve">
<style type="text/css">
	.st0{fill:#22222211;}


@-webkit-keyframes shake-horizontal
{
    0%,
    100% {
    -webkit-transform: translateY(0);
            transform: translateY(0);
    }
    10%,
    30%,
    50%,
    70% {
    -webkit-transform: translateY(-100px);
            transform: translateY(-100px);
    }
    20%,
    40%,
    60% {
    -webkit-transform: translateY(100px);
            transform: translateY(100px);
    }
    80% {
    -webkit-transform: translateY(80px);
            transform: translateY(80px);
    }
    90% {
    -webkit-transform: translateY(-80px);
            transform: translateY(-80px);
    }
}
@keyframes shake-horizontal
{
    0%,
    100% {
    -webkit-transform: translateY(0);
            transform: translateY(0);
    }
    10%,
    30%,
    50%,
    70% {
    -webkit-transform: translateY(-100px);
            transform: translateY(-100px);
    }
    20%,
    40%,
    60% {
    -webkit-transform: translateY(100px);
            transform: translateY(100px);
    }
    80% {
    -webkit-transform: translateY(80px);
            transform: translateY(80px);
    }
    90% {
    -webkit-transform: translateY(-80px);
            transform: translateY(-80px);
    }

}

#leftSec 
{
    -webkit-animation: shake-horizontal 8s cubic-bezier(0.455, 0.030, 0.515, 0.955) infinite both;
    animation: shake-horizontal 8s cubic-bezier(0.455, 0.030, 0.515, 0.955) infinite both;
}
#middelSec
{
    -webkit-animation: shake-horizontal 10s cubic-bezier(0.455, 0.030, 0.515, 0.955) infinite both;
    animation: shake-horizontal 10s cubic-bezier(0.455, 0.030, 0.515, 0.955) infinite both;
}
#RightSec
{
    -webkit-animation: shake-horizontal 16s cubic-bezier(0.455, 0.030, 0.515, 0.955) infinite both;
    animation: shake-horizontal 16s cubic-bezier(0.455, 0.030, 0.515, 0.955) infinite both;
}

</style>
<g id="leftSec">
	<polygon class="st0" points="4.8,0.9 4.8,202.1 24.2,202.1 24.2,249.6 28.8,249.6 28.8,202.1 45.6,202.1 45.6,0.9 	"/>
	<polygon class="st0" points="98.8,0.9 94.2,0.9 94.2,12 77.8,12 77.8,132.8 94.2,132.8 94.2,173.2 98.8,173.2 98.8,132.8 
		118.6,132.8 118.6,12 98.8,12 	"/>
	<polygon class="st0" points="174.3,15 169.7,15 169.7,67.9 151.7,67.9 151.7,308.7 169.7,308.7 169.7,321.2 174.3,321.2 
		174.3,308.7 192.4,308.7 192.4,67.9 174.3,67.9 	"/>
	<polygon class="st0" points="187.6,380.1 183,380.1 183,405.9 165.6,405.9 165.6,581.9 183,581.9 183,612 187.6,612 187.6,581.9 
		206.3,581.9 206.3,405.9 187.6,405.9 	"/>
	<polygon class="st0" points="260.7,420.6 256.1,420.6 256.1,484.9 240.3,484.9 240.3,812.9 256.1,812.9 256.1,904.7 260.7,904.7 
		260.7,812.9 281,812.9 281,484.9 260.7,484.9 	"/>
	<polygon class="st0" points="32.1,436.2 27.5,436.2 27.5,605.7 11.1,605.7 11.1,780.1 27.5,780.1 27.5,854.7 32.1,854.7 
		32.1,780.1 51.8,780.1 51.8,605.7 32.1,605.7 	"/>
	<polygon class="st0" points="114.5,409.2 109.8,409.2 109.8,493.9 90.9,493.9 90.9,669.8 109.8,669.8 109.8,741.8 114.5,741.8 
		114.5,669.8 131.6,669.8 131.6,493.9 114.5,493.9 	"/>
</g>
<g id="middelSec">
	<polygon class="st0" points="336.2,305 331.5,305 331.5,459.6 314.9,459.6 314.9,897.9 331.5,897.9 331.5,946 336.2,946 
		336.2,897.9 355.7,897.9 355.7,459.6 336.2,459.6 	"/>
	<polygon class="st0" points="420.5,340.2 415.9,340.2 415.9,413.4 396.4,413.4 396.4,851.7 415.9,851.7 415.9,916.2 420.5,916.2 
		420.5,851.7 437.1,851.7 437.1,413.4 420.5,413.4 	"/>
	<polygon class="st0" points="500.6,387.9 496,387.9 496,498 477.9,498 477.9,758.9 496,758.9 496,872 500.6,872 500.6,758.9 
		518.6,758.9 518.6,498 500.6,498 	"/>
	<polygon class="st0" points="581.5,284.1 576.9,284.1 576.9,395.1 559.3,395.1 559.3,553.1 576.9,553.1 576.9,661.4 581.5,661.4 
		581.5,553.1 600.1,553.1 600.1,395.1 581.5,395.1 	"/>
	<polygon class="st0" points="742.7,366.2 738.1,366.2 738.1,538.2 722.2,538.2 722.2,811 738.1,811 738.1,942.3 742.7,942.3 
		742.7,811 763,811 763,538.2 742.7,538.2 	"/>
	<polygon class="st0" points="662.6,431.2 657.9,431.2 657.9,469.6 640.8,469.6 640.8,627.7 657.9,627.7 657.9,638 662.6,638 
		662.6,627.7 681.5,627.7 681.5,469.6 662.6,469.6 	"/>
	<polygon class="st0" points="1152,409.9 1147.3,409.9 1147.3,424.9 1129.5,424.9 1129.5,608.3 1147.3,608.3 1147.3,677.6 
		1152,677.6 1152,608.3 1170.3,608.3 1170.3,424.9 1152,424.9 	"/>
	<polygon class="st0" points="1232,531.6 1227.4,531.6 1227.4,577 1211,577 1211,760.4 1227.4,760.4 1227.4,797.3 1232,797.3 
		1232,760.4 1251.7,760.4 1251.7,577 1232,577 	"/>
	<polygon class="st0" points="1316.6,505.2 1311.9,505.2 1311.9,614.3 1292.4,614.3 1292.4,797.6 1311.9,797.6 1311.9,879.4 
		1316.6,879.4 1316.6,797.6 1333.2,797.6 1333.2,614.3 1316.6,614.3 	"/>
	<polygon class="st0" points="826.1,409.9 821.5,409.9 821.5,424.9 803.7,424.9 803.7,608.3 821.5,608.3 821.5,677.6 826.1,677.6 
		826.1,608.3 844.4,608.3 844.4,424.9 826.1,424.9 	"/>
	<polygon class="st0" points="906.2,531.6 901.6,531.6 901.6,577 885.2,577 885.2,760.4 901.6,760.4 901.6,797.3 906.2,797.3 
		906.2,760.4 925.9,760.4 925.9,577 906.2,577 	"/>
	<polygon class="st0" points="990.7,505.2 986.1,505.2 986.1,614.3 966.6,614.3 966.6,797.6 986.1,797.6 986.1,879.4 990.7,879.4 
		990.7,797.6 1007.3,797.6 1007.3,614.3 990.7,614.3 	"/>
	<polygon class="st0" points="1395.9,459.6 1391.2,459.6 1391.2,523.3 1373.9,523.3 1373.9,706.7 1391.2,706.7 1391.2,761.8 
		1395.9,761.8 1395.9,706.7 1414.6,706.7 1414.6,523.3 1395.9,523.3 	"/>
	<polygon class="st0" points="1070,459.6 1065.4,459.6 1065.4,523.3 1048.1,523.3 1048.1,706.7 1065.4,706.7 1065.4,761.8 
		1070,761.8 1070,706.7 1088.8,706.7 1088.8,523.3 1070,523.3 	"/>
	<polygon class="st0" points="1478.4,381.5 1473.8,381.5 1473.8,418.2 1455.3,418.2 1455.3,594.2 1473.8,594.2 1473.8,761.8 
		1478.4,761.8 1478.4,594.2 1496.1,594.2 1496.1,418.2 1478.4,418.2 	"/>
</g>
<g id="RightSec">
	<polygon class="st0" points="1818.3,595 1813.6,595 1813.6,669.7 1797.6,669.7 1797.6,1051.3 1813.6,1051.3 1813.6,1079.1 
		1818.3,1079.1 1818.3,1051.3 1838.4,1051.3 1838.4,669.7 1818.3,669.7 	"/>
	<polygon class="st0" points="1741.7,504.8 1737,504.8 1737,552.6 1720.4,552.6 1720.4,793.4 1737,793.4 1737,957.1 1741.7,957.1 
		1741.7,793.4 1761.1,793.4 1761.1,552.6 1741.7,552.6 	"/>
	<polygon class="st0" points="1893.3,633.2 1888.7,633.2 1888.7,716.6 1870.6,716.6 1870.6,957.4 1888.7,957.4 1888.7,1051.7 
		1893.3,1051.7 1893.3,957.4 1911.3,957.4 1911.3,716.6 1893.3,716.6 	"/>
	<polygon class="st0" points="1671.9,635.4 1667.3,635.4 1667.3,737.1 1649.5,737.1 1649.5,986.1 1667.3,986.1 1667.3,1053.9 
		1671.9,1053.9 1671.9,986.1 1690.2,986.1 1690.2,737.1 1671.9,737.1 	"/>
	<polygon class="st0" points="1551.2,36.1 1546.5,36.1 1546.5,132.6 1527.7,132.6 1527.7,460.6 1546.5,460.6 1546.5,505.6 
		1551.2,505.6 1551.2,460.6 1568.5,460.6 1568.5,132.6 1551.2,132.6 	"/>
	<polygon class="st0" points="1625.1,75.5 1620.4,75.5 1620.4,129.4 1602.4,129.4 1602.4,567.7 1620.4,567.7 1620.4,630.2 
		1625.1,630.2 1625.1,567.7 1643.2,567.7 1643.2,129.4 1625.1,129.4 	"/>
	<polygon class="st0" points="1697.8,65.5 1693.2,65.5 1693.2,161.8 1676.3,161.8 1676.3,326.6 1693.2,326.6 1693.2,413.4 
		1697.8,413.4 1697.8,326.6 1717,326.6 1717,161.8 1697.8,161.8 	"/>
	<polygon class="st0" points="1751,0.9 1751,301.2 1769.4,301.2 1769.4,343.4 1774,343.4 1774,301.2 1791.7,301.2 1791.7,0.9 	"/>
	<polygon class="st0" points="1823.7,0.9 1823.7,29.5 1842.5,29.5 1842.5,132.8 1847.1,132.8 1847.1,29.5 1864.4,29.5 1864.4,0.9 	
		"/>
</g>
</svg>
