<?xml version="1.0" encoding="utf-8"?>
<!-- Generator: Adobe Illustrator 19.0.0, SVG Export Plug-In . SVG Version: 6.00 Build 0)  -->
<svg version="1.1" id="Layer_1" xmlns="http://www.w3.org/2000/svg" xmlns:xlink="http://www.w3.org/1999/xlink" x="0px" y="0px"
	 viewBox="0 0 1920 1080" style="enable-background:new 0 0 1920 1080;" xml:space="preserve">
<style type="text/css">
	.st0{fill:#94959B;}
	.st1{fill:#494C56;}
	.st2{fill:#F05B78;}
	.st3{fill:#F2767C;}
	.st4{fill:#FFFFFF;}
	.st5{fill:url(#SVGID_1_);}

#floor
{
    -webkit-animation: slide-in-bl 1s cubic-bezier(0.250, 0.460, 0.450, 0.940) both;
    animation: slide-in-bl 1s cubic-bezier(0.250, 0.460, 0.450, 0.940) both;
}
#bottle1
{
    -webkit-animation: puff-in-center 1s cubic-bezier(0.470, 0.000, 0.745, 0.715) 1s both;
    animation: puff-in-center 1s cubic-bezier(0.470, 0.000, 0.745, 0.715) 1s both;
}
#bottle2
{
    -webkit-animation: puff-in-center 1s cubic-bezier(0.470, 0.000, 0.745, 0.715) 2s both;
    animation: puff-in-center 1s cubic-bezier(0.470, 0.000, 0.745, 0.715) 2s both;
}
#bottle3
{
    -webkit-animation: puff-in-center 1s cubic-bezier(0.470, 0.000, 0.745, 0.715) 3s both;
    animation: puff-in-center 1s cubic-bezier(0.470, 0.000, 0.745, 0.715) 3s both;
}
#bottle4
{
    -webkit-animation: puff-in-center 1s cubic-bezier(0.470, 0.000, 0.745, 0.715) 4s both;
    animation: puff-in-center 1s cubic-bezier(0.470, 0.000, 0.745, 0.715) 4s both;
}
#BALL
{
    -webkit-animation: bounce-in-top 1.1s 5s both;
    animation: bounce-in-top 1.1s 5s both;
}

/**
 * ----------------------------------------
 * animation puff-in-center
 * ----------------------------------------
 */
@-webkit-keyframes puff-in-center {
  0% {
    -webkit-transform: scale(2);
            transform: scale(2);
    -webkit-filter: blur(4px);
            filter: blur(4px);
    opacity: 0;
  }
  100% {
    -webkit-transform: scale(1);
            transform: scale(1);
    -webkit-filter: blur(0px);
            filter: blur(0px);
    opacity: 1;
  }
}
@keyframes puff-in-center {
  0% {
    -webkit-transform: scale(2);
            transform: scale(2);
    -webkit-filter: blur(4px);
            filter: blur(4px);
    opacity: 0;
  }
  100% {
    -webkit-transform: scale(1);
            transform: scale(1);
    -webkit-filter: blur(0px);
            filter: blur(0px);
    opacity: 1;
  }
}

/**
 * ----------------------------------------
 * animation bounce-in-top
 * ----------------------------------------
 */
@-webkit-keyframes bounce-in-top {
  0% {
    -webkit-transform: translateY(-500px);
            transform: translateY(-500px);
    -webkit-animation-timing-function: ease-in;
            animation-timing-function: ease-in;
    opacity: 0;
  }
  38% {
    -webkit-transform: translateY(0);
            transform: translateY(0);
    -webkit-animation-timing-function: ease-out;
            animation-timing-function: ease-out;
    opacity: 1;
  }
  55% {
    -webkit-transform: translateY(-65px);
            transform: translateY(-65px);
    -webkit-animation-timing-function: ease-in;
            animation-timing-function: ease-in;
  }
  72% {
    -webkit-transform: translateY(0);
            transform: translateY(0);
    -webkit-animation-timing-function: ease-out;
            animation-timing-function: ease-out;
  }
  81% {
    -webkit-transform: translateY(-28px);
            transform: translateY(-28px);
    -webkit-animation-timing-function: ease-in;
            animation-timing-function: ease-in;
  }
  90% {
    -webkit-transform: translateY(0);
            transform: translateY(0);
    -webkit-animation-timing-function: ease-out;
            animation-timing-function: ease-out;
  }
  95% {
    -webkit-transform: translateY(-8px);
            transform: translateY(-8px);
    -webkit-animation-timing-function: ease-in;
            animation-timing-function: ease-in;
  }
  100% {
    -webkit-transform: translateY(0);
            transform: translateY(0);
    -webkit-animation-timing-function: ease-out;
            animation-timing-function: ease-out;
  }
}
@keyframes bounce-in-top {
  0% {
    -webkit-transform: translateY(-500px);
            transform: translateY(-500px);
    -webkit-animation-timing-function: ease-in;
            animation-timing-function: ease-in;
    opacity: 0;
  }
  38% {
    -webkit-transform: translateY(0);
            transform: translateY(0);
    -webkit-animation-timing-function: ease-out;
            animation-timing-function: ease-out;
    opacity: 1;
  }
  55% {
    -webkit-transform: translateY(-65px);
            transform: translateY(-65px);
    -webkit-animation-timing-function: ease-in;
            animation-timing-function: ease-in;
  }
  72% {
    -webkit-transform: translateY(0);
            transform: translateY(0);
    -webkit-animation-timing-function: ease-out;
            animation-timing-function: ease-out;
  }
  81% {
    -webkit-transform: translateY(-28px);
            transform: translateY(-28px);
    -webkit-animation-timing-function: ease-in;
            animation-timing-function: ease-in;
  }
  90% {
    -webkit-transform: translateY(0);
            transform: translateY(0);
    -webkit-animation-timing-function: ease-out;
            animation-timing-function: ease-out;
  }
  95% {
    -webkit-transform: translateY(-8px);
            transform: translateY(-8px);
    -webkit-animation-timing-function: ease-in;
            animation-timing-function: ease-in;
  }
  100% {
    -webkit-transform: translateY(0);
            transform: translateY(0);
    -webkit-animation-timing-function: ease-out;
            animation-timing-function: ease-out;
  }
}

/**
 * ----------------------------------------
 * animation slide-in-bl
 * ----------------------------------------
 */
@-webkit-keyframes slide-in-bl {
  0% {
    -webkit-transform: translateY(1000px) translateX(-1000px);
            transform: translateY(1000px) translateX(-1000px);
    opacity: 0;
  }
  100% {
    -webkit-transform: translateY(0) translateX(0);
            transform: translateY(0) translateX(0);
    opacity: 1;
  }
}
@keyframes slide-in-bl {
  0% {
    -webkit-transform: translateY(1000px) translateX(-1000px);
            transform: translateY(1000px) translateX(-1000px);
    opacity: 0;
  }
  100% {
    -webkit-transform: translateY(0) translateX(0);
            transform: translateY(0) translateX(0);
    opacity: 1;
  }
}

</style>
<g id="floor">
	<polygon class="st0" points="-517.8,1324.9 379.5,427.7 814.9,427.7 1712.2,1324.9 	"/>
	<g>
		
	</g>
</g>
<g id="bottle1">
	<g>
		<path class="st0" d="M902.2,609.2c-13.8,0-25-1.5-35.1-9c-10.4-7.7-18.8-21.1-27.2-43.4c-3.3-8.8-9.4-31.7-11.2-61.5
			c-2.4-41.2,3.8-81.6,18.5-120.2c4.3-11.3,9.2-22.9,14.4-35.3c2.3-5.5,4.7-11.1,7.1-17c2.4-5.9,4.3-12.1,5.4-18.4
			c0.4-2.2,0.7-4.3,0.9-6.5c0.2-2,0.3-3.9,0.4-5.9c0.2-6.1-0.2-12.1-1.2-17.8c-0.2-1.1-0.4-2.3-0.6-3.4c-0.4-2.2-0.8-4.3-1.1-6.4
			c-0.4-2.4-0.8-4.7-1.2-7c-1.5-9.4-2.8-18.2-3.7-26.2c-1.5-13,1.6-24.9,8.7-33.4c6.5-7.8,16-12.2,26.1-12.2
			c10.1,0,19.6,4.5,26.1,12.2c7.1,8.5,10.2,20.4,8.7,33.4c-1,8.7-2.6,18.2-4.1,26.3c-0.4,2.3-0.8,4.6-1.3,6.9
			c-0.4,2.1-1.8,9.7-1.8,9.7c-1.1,5.7-1.5,11.7-1.2,17.8c0.1,2,0.2,4,0.4,5.9c0.2,2.1,0.5,4.3,0.9,6.5c1.1,6.3,3,12.5,5.4,18.4
			c3.2,7.7,6.3,14.9,9.4,22c4.6,10.5,8.9,20.5,12.6,30.2c14.7,38.6,20.9,79,18.5,120.2c-1.8,29.8-7.9,52.7-11.2,61.5
			c-8.4,22.3-16.8,35.6-27.2,43.4C927.2,607.7,916,609.2,902.2,609.2z"/>
		<g>
			<path class="st1" d="M923.1,292.3h-42.4c-0.1,2.1-0.2,4.2-0.4,6.3h43.3C923.4,296.5,923.2,294.4,923.1,292.3z"/>
			<path class="st1" d="M931.6,230.7c2.7-24-12-39.2-29.4-39.2c-17.4,0-32.1,15.2-29.4,39.2c0.9,7.8,2.1,16.4,3.7,25.9h51
				C929.2,247.1,930.7,238.5,931.6,230.7z"/>
			<path class="st1" d="M926.3,263.5h-48.6c0.4,2.1,0.7,4.2,1.1,6.3h46.3C925.5,267.7,925.9,265.6,926.3,263.5z"/>
			<path class="st1" d="M952.3,377.3c-6.1-16.1-14-32.8-22-52.1c-2.7-6.5-4.6-13.1-5.8-19.7h-45.3c-1.2,6.6-3.1,13.2-5.8,19.7
				c-8,19.2-15.3,35.9-21.4,52.1c-34,89.3-11.8,165.3-7.3,177.4c16.5,43.7,31.9,48.7,57.3,48.7c25.5,0,40.8-5,57.3-48.7
				C964.1,542.6,986.2,466.6,952.3,377.3z"/>
			<g>
				<path class="st2" d="M926.3,263.5c0.4-2.4,0.9-4.7,1.3-6.9h-35.2c0.4,2.3,0.8,4.6,1.2,6.9H926.3z"/>
				<path class="st2" d="M876.5,256.6c0.4,2.3,0.8,4.6,1.2,6.9h7.1c-0.4-2.4-0.8-4.7-1.2-6.9H876.5z"/>
				<path class="st2" d="M880.3,298.7c-0.2,2.3-0.6,4.6-1,6.9h7.1c0.4-2.3,0.7-4.6,0.9-6.9H880.3z"/>
				<path class="st2" d="M924.6,305.6c-0.4-2.3-0.7-4.6-1-6.9H896c-0.2,2.3-0.5,4.6-0.9,6.9H924.6z"/>
				<path class="st2" d="M886.3,272.1c-0.1-0.8-0.3-1.5-0.4-2.3h-7.2c0.2,1.1,0.4,2.2,0.6,3.4c1.1,6,1.6,12.5,1.3,19.1h7.1
					C888,285.5,887.6,278.7,886.3,272.1z"/>
				<path class="st2" d="M896.5,292.3h26.7c-0.3-6.7,0.2-13.1,1.3-19.1c0.2-1.1,0.4-2.2,0.6-3.4h-30.5c0.1,0.8,0.3,1.5,0.4,2.3
					C896.2,278.7,896.7,285.5,896.5,292.3z"/>
				<path class="st0" d="M888.5,230c-1.1-9.7,1-18.3,6.1-24.3c3.5-4.3,8.3-7,13.6-8c-1.4-0.3-2.9-0.4-4.3-0.4
					c-7.1,0-13.5,3-17.9,8.4c-5,6-7.2,14.7-6.1,24.3c0.9,8.2,2.2,17,3.8,26.6h8.7C890.7,247,889.5,238.2,888.5,230z"/>
				<path class="st0" d="M887.4,298.7h8.7c0.2-2.1,0.4-4.2,0.4-6.3h-8.7C887.7,294.4,887.6,296.6,887.4,298.7z"/>
				<path class="st0" d="M880.1,327.6c-2.4,5.9-4.8,11.6-7.1,17c-5.1,12.2-10,23.8-14.2,34.9c-36,94.7-7.5,172.3-7.3,173.1
					c9.2,26.5,23.4,38.2,23.4,38.2s-8.2-12.4-14.7-38.2c-0.2-0.8-28.8-78.3,7.3-173.1c4.2-11.1,9.1-22.6,14.2-34.9
					c2.3-5.5,4.7-11.1,7.1-17c2.9-7.1,5-14.5,6.3-22h-8.7C885.2,313.1,883.1,320.5,880.1,327.6z"/>
				<path class="st0" d="M884.8,263.5c0.4,2.1,0.7,4.2,1.1,6.3h8.7c-0.4-2.2-0.8-4.3-1.1-6.3H884.8z"/>
				<path class="st3" d="M892.3,256.6h-8.7c0.4,2.3,0.8,4.6,1.2,6.9h8.7C893.1,261.2,892.7,258.9,892.3,256.6z"/>
				<path class="st3" d="M886.4,305.6h8.7c0.4-2.3,0.7-4.6,0.9-6.9h-8.7C887.1,301,886.8,303.3,886.4,305.6z"/>
				<path class="st3" d="M886.3,272.1c1.2,6.6,1.7,13.4,1.4,20.2h8.7c0.2-6.8-0.2-13.6-1.4-20.2c-0.1-0.8-0.3-1.5-0.4-2.3h-8.7
					C886.1,270.6,886.2,271.3,886.3,272.1z"/>
			</g>
		</g>
	</g>
	<g>
		<path class="st0" d="M297.6,609.2c-13.8,0-25-1.5-35.1-9c-10.4-7.7-18.8-21.1-27.2-43.4c-3.3-8.8-9.4-31.7-11.2-61.5
			c-2.4-41.2,3.8-81.6,18.5-120.2c4.3-11.3,9.2-22.9,14.4-35.3c2.3-5.5,4.7-11.1,7.1-17c2.4-5.9,4.3-12.1,5.4-18.4
			c0.4-2.2,0.7-4.3,0.9-6.5c0.2-2,0.3-3.9,0.4-5.9c0.2-6.1-0.2-12.1-1.2-17.8c-0.2-1.1-0.4-2.3-0.6-3.4c-0.4-2.2-0.8-4.3-1.1-6.4
			c-0.4-2.4-0.8-4.7-1.2-7c-1.5-9.4-2.8-18.2-3.7-26.2c-1.5-13,1.6-24.9,8.7-33.4c6.5-7.8,16-12.2,26.1-12.2
			c10.1,0,19.6,4.5,26.1,12.2c7.1,8.5,10.2,20.4,8.7,33.4c-1,8.7-2.6,18.2-4.1,26.3c-0.4,2.3-0.8,4.6-1.3,6.9
			c-0.4,2.1-1.8,9.7-1.8,9.7c-1.1,5.7-1.5,11.7-1.2,17.8c0.1,2,0.2,4,0.4,5.9c0.2,2.1,0.5,4.3,0.9,6.5c1.1,6.3,3,12.5,5.4,18.4
			c3.2,7.7,6.3,14.9,9.4,22c4.6,10.5,8.9,20.5,12.6,30.2c14.7,38.6,20.9,79,18.5,120.2c-1.8,29.8-7.9,52.7-11.2,61.5
			c-8.4,22.3-16.8,35.6-27.2,43.4C322.6,607.7,311.4,609.2,297.6,609.2z"/>
		<g>
			<path class="st1" d="M318.5,292.3h-42.4c-0.1,2.1-0.2,4.2-0.4,6.3H319C318.8,296.5,318.6,294.4,318.5,292.3z"/>
			<path class="st1" d="M327,230.7c2.7-24-12-39.2-29.4-39.2c-17.4,0-32.1,15.2-29.4,39.2c0.9,7.8,2.1,16.4,3.7,25.9h51
				C324.6,247.1,326.1,238.5,327,230.7z"/>
			<path class="st1" d="M321.7,263.5h-48.6c0.4,2.1,0.7,4.2,1.1,6.3h46.3C320.9,267.7,321.3,265.6,321.7,263.5z"/>
			<path class="st1" d="M347.7,377.3c-6.1-16.1-14-32.8-22-52.1c-2.7-6.5-4.6-13.1-5.8-19.7h-45.3c-1.2,6.6-3.1,13.2-5.8,19.7
				c-8,19.2-15.3,35.9-21.4,52.1c-34,89.3-11.8,165.3-7.3,177.4c16.5,43.7,31.9,48.7,57.3,48.7c25.5,0,40.8-5,57.3-48.7
				C359.5,542.6,381.7,466.6,347.7,377.3z"/>
			<g>
				<path class="st2" d="M321.7,263.5c0.4-2.4,0.9-4.7,1.3-6.9h-35.2c0.4,2.3,0.8,4.6,1.2,6.9H321.7z"/>
				<path class="st2" d="M271.9,256.6c0.4,2.3,0.8,4.6,1.2,6.9h7.1c-0.4-2.4-0.8-4.7-1.2-6.9H271.9z"/>
				<path class="st2" d="M275.7,298.7c-0.2,2.3-0.6,4.6-1,6.9h7.1c0.4-2.3,0.7-4.6,0.9-6.9H275.7z"/>
				<path class="st2" d="M320,305.6c-0.4-2.3-0.7-4.6-1-6.9h-27.5c-0.2,2.3-0.5,4.6-0.9,6.9H320z"/>
				<path class="st2" d="M281.8,272.1c-0.1-0.8-0.3-1.5-0.4-2.3h-7.2c0.2,1.1,0.4,2.2,0.6,3.4c1.1,6,1.6,12.5,1.3,19.1h7.1
					C283.4,285.5,283,278.7,281.8,272.1z"/>
				<path class="st2" d="M291.9,292.3h26.7c-0.3-6.7,0.2-13.1,1.3-19.1c0.2-1.1,0.4-2.2,0.6-3.4H290c0.1,0.8,0.3,1.5,0.4,2.3
					C291.6,278.7,292.1,285.5,291.9,292.3z"/>
				<path class="st0" d="M283.9,230c-1.1-9.7,1-18.3,6.1-24.3c3.5-4.3,8.3-7,13.6-8c-1.4-0.3-2.9-0.4-4.3-0.4
					c-7.1,0-13.5,3-17.9,8.4c-5,6-7.2,14.7-6.1,24.3c0.9,8.2,2.2,17,3.8,26.6h8.7C286.1,247,284.9,238.2,283.9,230z"/>
				<path class="st0" d="M282.8,298.7h8.7c0.2-2.1,0.4-4.2,0.4-6.3h-8.7C283.1,294.4,283,296.6,282.8,298.7z"/>
				<path class="st0" d="M275.5,327.6c-2.4,5.9-4.8,11.6-7.1,17c-5.1,12.2-10,23.8-14.2,34.9c-36,94.7-7.5,172.3-7.3,173.1
					c9.2,26.5,23.4,38.2,23.4,38.2s-8.2-12.4-14.7-38.2c-0.2-0.8-28.8-78.3,7.3-173.1c4.2-11.1,9.1-22.6,14.2-34.9
					c2.3-5.5,4.7-11.1,7.1-17c2.9-7.1,5-14.5,6.3-22h-8.7C280.6,313.1,278.5,320.5,275.5,327.6z"/>
				<path class="st0" d="M280.2,263.5c0.4,2.1,0.7,4.2,1.1,6.3h8.7c-0.4-2.2-0.8-4.3-1.1-6.3H280.2z"/>
				<path class="st3" d="M287.7,256.6H279c0.4,2.3,0.8,4.6,1.2,6.9h8.7C288.5,261.2,288.1,258.9,287.7,256.6z"/>
				<path class="st3" d="M281.8,305.6h8.7c0.4-2.3,0.7-4.6,0.9-6.9h-8.7C282.5,301,282.2,303.3,281.8,305.6z"/>
				<path class="st3" d="M281.8,272.1c1.2,6.6,1.7,13.4,1.4,20.2h8.7c0.2-6.8-0.2-13.6-1.4-20.2c-0.1-0.8-0.3-1.5-0.4-2.3h-8.7
					C281.5,270.6,281.6,271.3,281.8,272.1z"/>
			</g>
		</g>
	</g>
</g>
<g id="bottle2">
	<g>
		<path class="st0" d="M393.6,609.2c-15.5,0-28.1-1.7-39.5-10.1c-11.7-8.7-21.1-23.7-30.6-48.7c-3.7-9.9-10.6-35.6-12.6-69.1
			c-2.7-46.2,4.3-91.7,20.7-135c4.8-12.7,10.3-25.8,16.2-39.6c2.6-6.1,5.2-12.5,8-19c2.7-6.6,4.8-13.6,6.1-20.7
			c0.4-2.4,0.8-4.9,1-7.3c0.2-2.2,0.4-4.4,0.5-6.7c0.3-6.9-0.2-13.6-1.4-20c-0.2-1.3-0.5-2.5-0.7-3.8c-0.4-2.4-0.9-4.8-1.3-7.2
			c-0.5-2.7-0.9-5.3-1.3-7.8c-1.7-10.5-3.1-20.4-4.2-29.4c-1.7-14.6,1.8-27.9,9.8-37.5c7.3-8.7,17.9-13.7,29.3-13.8
			c11.3,0,22,5,29.3,13.8c8,9.6,11.4,22.9,9.8,37.5c-1.1,9.7-3,20.4-4.6,29.5c-0.5,2.5-0.9,5.1-1.4,7.8c-0.4,2.3-2,10.9-2,10.9
			c-1.2,6.4-1.6,13.1-1.4,20c0.1,2.2,0.2,4.5,0.5,6.7c0.3,2.4,0.6,4.9,1,7.3c1.3,7.1,3.3,14.1,6.1,20.7c3.6,8.6,7.1,16.8,10.6,24.7
			c5.1,11.8,10,23,14.2,34c16.5,43.3,23.5,88.7,20.7,135c-2,33.5-8.8,59.2-12.6,69.1c-9.4,25-18.9,40-30.6,48.7
			C421.7,607.5,409.1,609.2,393.6,609.2z"/>
		<g>
			<path class="st1" d="M417.1,253.3h-47.6c-0.1,2.4-0.3,4.7-0.5,7.1h48.6C417.4,258,417.2,255.7,417.1,253.3z"/>
			<path class="st1" d="M426.6,184.1c3.1-26.9-13.5-44-33-44c-19.5,0-36.1,17.1-33,44c1,8.8,2.4,18.4,4.1,29.1H422
				C424,202.6,425.6,192.9,426.6,184.1z"/>
			<path class="st1" d="M420.6,220.9H366c0.4,2.3,0.8,4.7,1.3,7.1h52C419.8,225.6,420.2,223.3,420.6,220.9z"/>
			<path class="st1" d="M449.9,348.8c-6.9-18.1-15.7-36.9-24.7-58.5c-3-7.3-5.1-14.7-6.5-22.1h-50.8c-1.3,7.4-3.5,14.8-6.5,22.1
				c-8.9,21.6-17.2,40.3-24.1,58.5c-38.1,100.3-13.3,185.7-8.1,199.2c18.6,49.1,35.8,54.7,64.4,54.7c28.6,0,45.8-5.6,64.4-54.7
				C463.1,534.4,488,449.1,449.9,348.8z"/>
			<g>
				<path class="st2" d="M420.6,220.9c0.5-2.6,1-5.2,1.4-7.8h-39.6c0.4,2.5,0.9,5.1,1.3,7.8H420.6z"/>
				<path class="st2" d="M364.7,213.2c0.4,2.5,0.9,5.1,1.3,7.8h8c-0.5-2.6-0.9-5.2-1.3-7.8H364.7z"/>
				<path class="st2" d="M418.7,268.2c-0.5-2.6-0.8-5.2-1.1-7.8h-30.9c-0.3,2.6-0.6,5.2-1,7.8H418.7z"/>
				<path class="st2" d="M369,260.4c-0.3,2.6-0.6,5.2-1.1,7.8h8c0.4-2.6,0.8-5.2,1-7.8H369z"/>
				<path class="st2" d="M375.8,230.6c-0.2-0.9-0.3-1.7-0.5-2.5h-8c0.2,1.2,0.5,2.5,0.7,3.8c1.2,6.8,1.8,14,1.5,21.5h7.9
					C377.7,245.6,377.2,238,375.8,230.6z"/>
				<path class="st2" d="M387.2,253.3h30c-0.3-7.5,0.2-14.7,1.5-21.5c0.2-1.3,0.5-2.5,0.7-3.8h-34.2c0.2,0.8,0.3,1.7,0.5,2.5
					C386.9,238,387.4,245.6,387.2,253.3z"/>
				<path class="st0" d="M374.1,220.9c0.4,2.3,0.8,4.7,1.3,7.1h9.7c-0.4-2.4-0.9-4.8-1.3-7.1H374.1z"/>
				<path class="st0" d="M376.9,260.4h9.7c0.2-2.4,0.4-4.7,0.5-7.1h-9.7C377.3,255.7,377.2,258.1,376.9,260.4z"/>
				<path class="st0" d="M368.8,292.9c-2.7,6.6-5.4,13-8,19.1c-5.8,13.7-11.2,26.7-16,39.2c-40.5,106.4-8.5,193.5-8.1,194.4
					c10.3,29.7,26.3,42.9,26.3,42.9s-9.2-14-16.5-42.9c-0.2-0.9-32.3-88,8.1-194.4c4.7-12.5,10.2-25.4,16-39.2
					c2.6-6.1,5.3-12.5,8-19.1c3.3-8,5.7-16.3,7.1-24.7h-9.7C374.5,276.6,372.1,284.9,368.8,292.9z"/>
				<path class="st0" d="M378.2,183.3c-1.2-10.9,1.2-20.6,6.8-27.3c4-4.8,9.3-7.9,15.3-8.9c-1.6-0.3-3.2-0.4-4.9-0.4
					c-8,0-15.1,3.3-20.2,9.4c-5.6,6.8-8,16.5-6.8,27.3c1.1,9.2,2.5,19.1,4.3,29.9h9.7C380.7,202.4,379.3,192.5,378.2,183.3z"/>
				<path class="st3" d="M382.5,213.2h-9.7c0.4,2.5,0.9,5.1,1.3,7.8h9.7C383.3,218.3,382.9,215.7,382.5,213.2z"/>
				<path class="st3" d="M375.9,268.2h9.7c0.4-2.6,0.8-5.2,1-7.8h-9.7C376.7,263,376.3,265.6,375.9,268.2z"/>
				<path class="st3" d="M375.8,230.6c1.4,7.4,1.9,15,1.6,22.7h9.7c0.3-7.7-0.3-15.3-1.6-22.7c-0.2-0.9-0.3-1.7-0.5-2.5h-9.7
					C375.5,228.9,375.6,229.7,375.8,230.6z"/>
			</g>
		</g>
	</g>
	<g>
		<path class="st0" d="M806.2,609.2c-15.5,0-28.1-1.7-39.5-10.1c-11.7-8.7-21.1-23.7-30.6-48.7c-3.7-9.9-10.6-35.6-12.6-69.1
			c-2.7-46.2,4.3-91.7,20.7-135c4.8-12.7,10.3-25.8,16.2-39.6c2.6-6.1,5.2-12.5,8-19c2.7-6.6,4.8-13.6,6.1-20.7
			c0.4-2.4,0.8-4.9,1-7.3c0.2-2.2,0.4-4.4,0.5-6.7c0.3-6.9-0.2-13.6-1.4-20c-0.2-1.3-0.5-2.5-0.7-3.8c-0.4-2.4-0.9-4.8-1.3-7.2
			c-0.5-2.7-0.9-5.3-1.3-7.8c-1.7-10.5-3.1-20.4-4.2-29.4c-1.7-14.6,1.8-27.9,9.8-37.5c7.3-8.7,17.9-13.7,29.3-13.8
			c11.3,0,22,5,29.3,13.8c8,9.6,11.4,22.9,9.8,37.5c-1.1,9.7-3,20.4-4.6,29.5c-0.5,2.5-0.9,5.1-1.4,7.8c-0.4,2.3-2,10.9-2,10.9
			c-1.2,6.4-1.6,13.1-1.4,20c0.1,2.2,0.2,4.5,0.5,6.7c0.3,2.4,0.6,4.9,1,7.3c1.3,7.1,3.3,14.1,6.1,20.7c3.6,8.6,7.1,16.8,10.6,24.7
			c5.1,11.8,10,23,14.2,34c16.5,43.3,23.4,88.7,20.7,135c-2,33.5-8.8,59.2-12.6,69.1c-9.5,25-18.9,40-30.6,48.7
			C834.3,607.5,821.7,609.2,806.2,609.2z"/>
		<g>
			<path class="st1" d="M829.7,253.3h-47.6c-0.1,2.4-0.3,4.7-0.5,7.1h48.6C830,258,829.8,255.7,829.7,253.3z"/>
			<path class="st1" d="M839.2,184.1c3.1-26.9-13.5-44-33-44c-19.5,0-36.1,17.1-33,44c1,8.8,2.4,18.4,4.1,29.1h57.3
				C836.6,202.6,838.2,192.9,839.2,184.1z"/>
			<path class="st1" d="M833.2,220.9h-54.6c0.4,2.3,0.8,4.7,1.3,7.1h52C832.4,225.6,832.8,223.3,833.2,220.9z"/>
			<path class="st1" d="M862.5,348.8c-6.9-18.1-15.7-36.9-24.7-58.5c-3-7.3-5.1-14.7-6.5-22.1h-50.8c-1.3,7.4-3.5,14.8-6.5,22.1
				c-8.9,21.6-17.2,40.3-24.1,58.5c-38.1,100.3-13.3,185.7-8.2,199.2c18.6,49.1,35.8,54.7,64.4,54.7c28.6,0,45.8-5.6,64.4-54.7
				C875.7,534.4,900.6,449.1,862.5,348.8z"/>
			<g>
				<path class="st2" d="M833.2,220.9c0.5-2.6,1-5.2,1.4-7.8h-39.6c0.4,2.5,0.9,5.1,1.3,7.8H833.2z"/>
				<path class="st2" d="M777.3,213.2c0.4,2.5,0.9,5.1,1.3,7.8h8c-0.5-2.6-0.9-5.2-1.3-7.8H777.3z"/>
				<path class="st2" d="M781.6,260.4c-0.3,2.6-0.6,5.2-1.1,7.8h8c0.4-2.6,0.8-5.2,1-7.8H781.6z"/>
				<path class="st2" d="M831.3,268.2c-0.5-2.6-0.8-5.2-1.1-7.8h-30.9c-0.3,2.6-0.6,5.2-1,7.8H831.3z"/>
				<path class="st2" d="M788.4,230.6c-0.2-0.9-0.3-1.7-0.5-2.5h-8c0.2,1.2,0.5,2.5,0.7,3.8c1.2,6.8,1.8,14,1.5,21.5h7.9
					C790.3,245.6,789.8,238,788.4,230.6z"/>
				<path class="st2" d="M799.8,253.3h29.9c-0.3-7.5,0.2-14.7,1.5-21.5c0.2-1.3,0.5-2.5,0.7-3.8h-34.2c0.2,0.8,0.3,1.7,0.5,2.5
					C799.5,238,800,245.6,799.8,253.3z"/>
				<path class="st0" d="M790.8,183.3c-1.2-10.9,1.2-20.6,6.8-27.3c4-4.8,9.3-7.9,15.3-8.9c-1.6-0.3-3.2-0.4-4.9-0.4
					c-8,0-15.1,3.3-20.2,9.4c-5.6,6.8-8,16.5-6.8,27.3c1.1,9.2,2.5,19.1,4.3,29.9h9.7C793.3,202.4,791.9,192.5,790.8,183.3z"/>
				<path class="st0" d="M789.5,260.4h9.7c0.2-2.4,0.4-4.7,0.5-7.1H790C789.9,255.7,789.8,258.1,789.5,260.4z"/>
				<path class="st0" d="M781.4,292.9c-2.7,6.6-5.4,13-8,19.1c-5.8,13.7-11.2,26.7-16,39.2c-40.5,106.4-8.4,193.5-8.1,194.4
					c10.3,29.7,26.3,42.9,26.3,42.9s-9.2-14-16.5-42.9c-0.2-0.9-32.3-88,8.1-194.4c4.7-12.5,10.2-25.4,16-39.2
					c2.6-6.1,5.3-12.5,8-19.1c3.3-8,5.7-16.3,7.1-24.7h-9.7C787.1,276.6,784.7,284.9,781.4,292.9z"/>
				<path class="st0" d="M786.7,220.9c0.4,2.3,0.8,4.7,1.3,7.1h9.7c-0.4-2.4-0.9-4.8-1.3-7.1H786.7z"/>
				<path class="st3" d="M795.1,213.2h-9.7c0.4,2.5,0.9,5.1,1.3,7.8h9.7C795.9,218.3,795.5,215.7,795.1,213.2z"/>
				<path class="st3" d="M788.5,268.2h9.7c0.4-2.6,0.8-5.2,1-7.8h-9.7C789.3,263,788.9,265.6,788.5,268.2z"/>
				<path class="st3" d="M788.4,230.6c1.4,7.4,1.9,15,1.6,22.7h9.7c0.3-7.7-0.3-15.3-1.6-22.7c-0.2-0.9-0.3-1.7-0.5-2.5h-9.7
					C788.1,228.9,788.2,229.7,788.4,230.6z"/>
			</g>
		</g>
	</g>
</g>
<g id="bottle3">
	<g>
		<path class="st0" d="M564.6,341.7c-4.7-12.5-10.2-25.1-16.1-38.5c-3.9-9-7.9-18.2-12-28c-3.1-7.5-5.4-15.4-6.9-23.5
			c-0.5-2.7-0.9-5.5-1.2-8.2c-0.3-2.5-0.4-5-0.5-7.5c-0.3-7.8,0.2-15.4,1.6-22.6c0,0,1.8-9.7,2.3-12.4c0.6-3,1.1-6,1.6-8.8
			c1.9-10.4,4-22.4,5.2-33.5c1.9-16.6-2-31.7-11.1-42.5c-8.2-9.9-20.3-15.6-33.2-15.6c-12.8,0-24.9,5.7-33.2,15.6
			c-9,10.9-13,26-11.1,42.5c1.2,10.2,2.8,21.4,4.7,33.3c0.5,2.9,1,5.9,1.5,8.9c0.5,2.7,0.9,5.4,1.4,8.1c0.3,1.4,0.5,2.9,0.8,4.3
			c1.3,7.2,1.9,14.8,1.6,22.6c-0.1,2.5-0.3,5.1-0.5,7.6c-0.3,2.7-0.7,5.5-1.2,8.2c-1.4,8.1-3.8,16-6.9,23.5
			c-3.1,7.5-6.1,14.7-9.1,21.6c-6.6,15.7-12.9,30.5-18.3,44.9c-18.7,49.1-26.6,100.6-23.5,153.1c2.2,38,10,67.1,14.3,78.4
			c6.1,16.1,12.2,28.5,18.7,38.1h121.5c6.5-9.5,12.6-22,18.7-38.1c4.2-11.2,12-40.4,14.3-78.4C591.2,442.3,583.3,390.8,564.6,341.7z
			"/>
		<g>
			<path class="st1" d="M521,236.2h-54c-0.1,2.7-0.3,5.4-0.6,8.1h55.2C521.3,241.6,521.1,238.9,521,236.2z"/>
			<path class="st1" d="M531.8,157.7c3.5-30.6-15.3-49.9-37.4-49.9c-22.2,0-40.9,19.3-37.4,49.9c1.2,10,2.7,20.9,4.7,33h65
				C528.8,178.6,530.6,167.7,531.8,157.7z"/>
			<path class="st1" d="M525,199.5h-61.9c0.5,2.6,0.9,5.3,1.4,8.1h59C524,204.8,524.5,202.2,525,199.5z"/>
			<path class="st1" d="M442.4,611.2h104c7.2-9.2,14-22.3,21.1-40.8c5.8-15.4,34-112.2-9.2-226c-7.8-20.5-17.8-41.8-28-66.3
				c-3.4-8.3-5.8-16.7-7.3-25.1h-57.7c-1.5,8.4-3.9,16.8-7.3,25.1c-10.1,24.5-19.5,45.8-27.3,66.3c-43.3,113.7-15.1,210.6-9.2,226
				C428.3,589,435.2,602,442.4,611.2z"/>
			<g>
				<path class="st2" d="M525,199.5c0.6-3,1.1-5.9,1.6-8.8h-44.9c0.5,2.9,1,5.8,1.5,8.8H525z"/>
				<path class="st2" d="M461.6,190.7c0.5,2.9,1,5.8,1.5,8.8h9.1c-0.5-3-1-5.9-1.5-8.8H461.6z"/>
				<path class="st2" d="M522.9,253.1c-0.5-2.9-0.9-5.9-1.3-8.8h-35.1c-0.3,2.9-0.7,5.9-1.2,8.8H522.9z"/>
				<path class="st2" d="M466.4,244.3c-0.3,2.9-0.7,5.9-1.3,8.8h9.1c0.5-2.9,0.9-5.9,1.2-8.8H466.4z"/>
				<path class="st2" d="M487.1,236.2h34c-0.3-8.5,0.3-16.7,1.7-24.3c0.3-1.4,0.5-2.9,0.8-4.3h-38.8c0.2,1,0.3,1.9,0.5,2.9
					C486.8,218.8,487.4,227.5,487.1,236.2z"/>
				<path class="st2" d="M474.2,210.5c-0.2-1-0.3-1.9-0.5-2.9h-9.1c0.3,1.4,0.5,2.8,0.8,4.3c1.4,7.7,2,15.9,1.7,24.3h9
					C476.3,227.5,475.7,218.8,474.2,210.5z"/>
				<path class="st0" d="M475.5,244.3h11.1c0.3-2.7,0.5-5.4,0.6-8.1H476C475.9,238.9,475.7,241.6,475.5,244.3z"/>
				<path class="st0" d="M454.5,611.2h2.2c-3.7-7-10.2-21.4-15.8-43.5c-0.3-1-36.7-99.8,9.2-220.5c5.4-14.1,11.6-28.8,18.1-44.4
					c2.9-7,6-14.2,9.1-21.7c3.7-9,6.4-18.5,8-28h-11.1c-1.6,9.5-4.3,19-8,28c-3.1,7.5-6.1,14.7-9.1,21.7
					c-6.6,15.6-12.7,30.3-18.1,44.4c-45.9,120.7-9.6,219.5-9.2,220.5C437.6,590.2,448.3,604.3,454.5,611.2z"/>
				<path class="st0" d="M476.9,156.8c-1.4-12.3,1.3-23.3,7.7-31c4.5-5.4,10.5-8.9,17.3-10.1c-1.8-0.3-3.6-0.5-5.5-0.5
					c-9,0-17.1,3.8-22.9,10.6c-6.4,7.7-9.1,18.7-7.7,31c1.2,10.4,2.8,21.6,4.8,33.9h11C479.7,178.5,478.1,167.3,476.9,156.8z"/>
				<path class="st0" d="M472.2,199.5c0.5,2.6,0.9,5.3,1.4,8.1h11.1c-0.5-2.7-1-5.4-1.4-8.1H472.2z"/>
				<path class="st3" d="M481.7,190.7h-11c0.5,2.9,1,5.8,1.5,8.8h11C482.7,196.5,482.2,193.6,481.7,190.7z"/>
				<path class="st3" d="M474.3,253.1h11.1c0.5-2.9,0.9-5.9,1.2-8.8h-11.1C475.2,247.2,474.8,250.2,474.3,253.1z"/>
				<path class="st3" d="M474.2,210.5c1.5,8.4,2.1,17,1.8,25.8h11.1c0.3-8.7-0.3-17.4-1.8-25.8c-0.2-1-0.3-1.9-0.5-2.9h-11.1
					C473.8,208.5,474,209.5,474.2,210.5z"/>
			</g>
		</g>
	</g>
	<g>
		<path class="st0" d="M705.4,639.9c-17.6,0-31.9-2-44.7-11.5c-13.3-9.8-24-26.9-34.7-55.2c-4.3-11.2-12-40.4-14.3-78.4
			c-3.1-52.4,4.8-103.9,23.5-153.1c5.5-14.4,11.7-29.2,18.3-44.9c2.9-7,6-14.1,9-21.6c3.1-7.5,5.4-15.4,6.9-23.5
			c0.5-2.7,0.9-5.5,1.2-8.2c0.3-2.5,0.4-5,0.5-7.6c0.3-7.8-0.2-15.4-1.6-22.6c-0.3-1.4-0.5-2.9-0.8-4.3c-0.5-2.8-1-5.5-1.4-8.1
			c-0.5-3-1-6-1.5-8.9c-2-12-3.5-23.2-4.7-33.3c-1.9-16.6,2-31.7,11.1-42.5c8.2-9.9,20.3-15.6,33.2-15.6c12.9,0,24.9,5.7,33.2,15.6
			c9,10.9,13,26,11.1,42.5c-1.3,11-3.4,23.1-5.2,33.5c-0.5,2.9-1.1,5.8-1.6,8.8c-0.5,2.6-2.3,12.4-2.3,12.4
			c-1.3,7.2-1.9,14.8-1.6,22.6c0.1,2.5,0.3,5.1,0.5,7.5c0.3,2.7,0.7,5.5,1.2,8.2c1.4,8.1,3.8,16,6.9,23.5c4,9.8,8.1,19,12,28
			c5.8,13.4,11.3,26.1,16.1,38.5c18.7,49.1,26.6,100.6,23.5,153.1c-2.2,38-10,67.1-14.3,78.4c-10.7,28.4-21.4,45.4-34.7,55.2
			C737.3,637.9,723,639.9,705.4,639.9z"/>
		<g>
			<path class="st1" d="M732.1,236.2h-54c-0.1,2.7-0.3,5.4-0.6,8.1h55.2C732.4,241.6,732.2,238.9,732.1,236.2z"/>
			<path class="st1" d="M742.9,157.7c3.5-30.6-15.3-49.9-37.4-49.9c-22.2,0-40.9,19.3-37.4,49.9c1.2,10,2.7,20.9,4.7,33h65
				C739.9,178.6,741.7,167.7,742.9,157.7z"/>
			<path class="st1" d="M736.1,199.5h-61.9c0.5,2.6,0.9,5.3,1.4,8.1h59C735.1,204.8,735.6,202.2,736.1,199.5z"/>
			<path class="st1" d="M769.2,344.5c-7.8-20.5-17.8-41.8-28-66.3c-3.4-8.3-5.8-16.7-7.3-25.1h-57.7c-1.5,8.4-3.9,16.8-7.3,25.1
				c-10.1,24.5-19.5,45.8-27.3,66.3c-43.3,113.7-15.1,210.6-9.2,226c21,55.7,40.6,62.1,73,62.1c32.5,0,52-6.4,73-62.1
				C784.3,555,812.5,458.2,769.2,344.5z"/>
			<g>
				<path class="st2" d="M672.7,190.7c0.5,2.9,1,5.8,1.5,8.8h9.1c-0.5-3-1-5.9-1.5-8.8H672.7z"/>
				<path class="st2" d="M736.1,199.5c0.6-3,1.1-5.9,1.6-8.8h-44.9c0.5,2.9,1,5.8,1.5,8.8H736.1z"/>
				<path class="st2" d="M677.5,244.3c-0.3,2.9-0.7,5.9-1.3,8.8h9.1c0.5-2.9,0.9-5.9,1.2-8.8H677.5z"/>
				<path class="st2" d="M733.9,253.1c-0.5-2.9-0.9-5.9-1.3-8.8h-35.1c-0.3,2.9-0.7,5.9-1.2,8.8H733.9z"/>
				<path class="st2" d="M698.1,236.2h34c-0.3-8.5,0.3-16.7,1.7-24.3c0.3-1.4,0.5-2.9,0.8-4.3h-38.8c0.2,1,0.3,1.9,0.5,2.9
					C697.8,218.8,698.4,227.5,698.1,236.2z"/>
				<path class="st2" d="M685.2,210.5c-0.2-1-0.3-1.9-0.5-2.9h-9.1c0.3,1.4,0.5,2.8,0.8,4.3c1.4,7.7,2,15.9,1.7,24.3h9
					C687.4,227.5,686.8,218.8,685.2,210.5z"/>
				<path class="st0" d="M686.5,244.3h11.1c0.3-2.7,0.5-5.4,0.6-8.1h-11.1C687,238.9,686.8,241.6,686.5,244.3z"/>
				<path class="st0" d="M677.3,281.1c-3.1,7.5-6.1,14.7-9.1,21.7c-6.6,15.6-12.7,30.3-18.1,44.4c-45.9,120.7-9.6,219.5-9.2,220.5
					c11.7,33.7,29.8,48.7,29.8,48.7s-10.5-15.8-18.7-48.7c-0.3-1-36.7-99.8,9.2-220.5c5.4-14.1,11.6-28.8,18.1-44.4
					c2.9-7,6-14.2,9.1-21.7c3.7-9,6.4-18.5,8-28h-11C683.7,262.6,681.1,272.1,677.3,281.1z"/>
				<path class="st0" d="M683.3,199.5c0.5,2.6,0.9,5.3,1.4,8.1h11c-0.5-2.7-1-5.4-1.4-8.1H683.3z"/>
				<path class="st0" d="M688,156.8c-1.4-12.3,1.3-23.3,7.7-31c4.5-5.4,10.5-8.9,17.3-10.1c-1.8-0.3-3.6-0.5-5.5-0.5
					c-9,0-17.1,3.8-22.9,10.6c-6.4,7.7-9.1,18.7-7.7,31c1.2,10.4,2.8,21.6,4.8,33.9h11C690.8,178.5,689.2,167.3,688,156.8z"/>
				<path class="st3" d="M692.8,190.7h-11c0.5,2.9,1,5.8,1.5,8.8h11C693.8,196.5,693.3,193.6,692.8,190.7z"/>
				<path class="st3" d="M685.4,253.1h11c0.5-2.9,0.9-5.9,1.2-8.8h-11.1C686.2,247.2,685.8,250.2,685.4,253.1z"/>
				<path class="st3" d="M685.2,210.5c1.5,8.4,2.1,17,1.8,25.8h11.1c0.3-8.7-0.3-17.4-1.8-25.8c-0.2-1-0.3-1.9-0.5-2.9h-11
					C684.9,208.5,685.1,209.5,685.2,210.5z"/>
			</g>
		</g>
	</g>
</g>
<g id="bottle4">
	<path class="st0" d="M599.9,662.5c-20.1,0-36.5-2.2-51.2-13.1c-15.2-11.3-27.5-30.8-39.7-63.2c-4.9-12.9-13.8-46.3-16.3-89.7
		c-3.5-60,5.5-119,26.9-175.2c6.3-16.5,13.4-33.4,21-51.4c3.3-8,6.8-16.2,10.4-24.7c3.6-8.6,6.2-17.7,7.9-26.9
		c0.6-3.1,1-6.3,1.3-9.4c0.3-2.8,0.5-5.8,0.6-8.6c0.3-8.9-0.3-17.6-1.8-25.9c-0.3-1.7-0.6-3.3-0.9-4.9c-0.6-3.2-1.1-6.3-1.7-9.3
		c-0.6-3.5-1.2-6.9-1.7-10.2c-2.2-13.7-4.1-26.5-5.4-38.2c-2.2-19,2.3-36.3,12.7-48.7c9.4-11.3,23.3-17.8,38-17.9
		c14.7,0,28.6,6.5,38,17.9c10.4,12.4,14.9,29.7,12.7,48.7c-1.5,12.6-3.8,26.5-6,38.3c-0.6,3.3-1.2,6.7-1.9,10.1
		c-0.6,3-2.6,14.1-2.6,14.1c-1.5,8.3-2.1,17-1.8,25.9c0.1,2.9,0.3,5.8,0.6,8.6c0.3,3.1,0.8,6.3,1.3,9.4c1.7,9.2,4.3,18.3,7.9,26.9
		c4.6,11.2,9.2,21.8,13.7,32c6.7,15.3,13,29.8,18.4,44.1c21.4,56.2,30.4,115.2,26.9,175.2c-2.6,43.5-11.5,76.9-16.3,89.7
		c-12.3,32.5-24.5,52-39.7,63.2C636.4,660.3,620,662.5,599.9,662.5z"/>
	<g>
		<path class="st1" d="M630.4,200.4h-61.8c-0.1,3.1-0.3,6.1-0.7,9.2h63.1C630.8,206.5,630.5,203.4,630.4,200.4z"/>
		<path class="st1" d="M642.7,110.5c4-35-17.5-57.1-42.8-57.1c-25.4,0-46.8,22.1-42.8,57.1c1.3,11.4,3.1,24,5.3,37.8h74.4
			C639.3,134.5,641.4,121.9,642.7,110.5z"/>
		<path class="st1" d="M635,158.4h-70.9c0.5,3,1.1,6.1,1.6,9.2h67.5C633.9,164.5,634.4,161.4,635,158.4z"/>
		<path class="st1" d="M672.9,324.3c-8.9-23.5-20.4-47.9-32-75.9c-3.9-9.5-6.7-19.1-8.4-28.7h-66c-1.7,9.6-4.5,19.2-8.4,28.7
			c-11.6,28-22.3,52.4-31.2,75.9c-49.5,130.2-17.2,241.1-10.6,258.7c24.1,63.8,46.5,71.1,83.6,71.1c37.2,0,59.5-7.3,83.6-71.1
			C690.2,565.4,722.5,454.6,672.9,324.3z"/>
		<g>
			<path class="st2" d="M635,158.4c0.6-3.4,1.3-6.8,1.8-10.1h-51.4c0.5,3.3,1.1,6.7,1.7,10.1H635z"/>
			<path class="st2" d="M562.4,148.3c0.5,3.3,1.1,6.6,1.7,10.1h10.4c-0.6-3.4-1.2-6.8-1.7-10.1H562.4z"/>
			<path class="st2" d="M567.9,209.6c-0.4,3.3-0.8,6.7-1.4,10.1h10.4c0.6-3.4,1-6.7,1.4-10.1H567.9z"/>
			<path class="st2" d="M632.5,219.7c-0.6-3.4-1.1-6.7-1.4-10.1h-40.2c-0.3,3.4-0.8,6.7-1.4,10.1H632.5z"/>
			<path class="st2" d="M576.8,170.9c-0.2-1.1-0.4-2.2-0.6-3.3h-10.4c0.3,1.6,0.6,3.3,0.9,4.9c1.6,8.8,2.3,18.2,1.9,27.9h10.3
				C579.2,190.4,578.5,180.5,576.8,170.9z"/>
			<path class="st2" d="M591.5,200.4h38.9c-0.4-9.7,0.3-19.1,1.9-27.9c0.3-1.7,0.6-3.3,0.9-4.9h-44.5c0.2,1.1,0.4,2.2,0.6,3.3
				C591.2,180.5,591.9,190.4,591.5,200.4z"/>
			<path class="st0" d="M578.3,209.6h12.7c0.3-3.1,0.5-6.2,0.6-9.2h-12.6C578.8,203.5,578.6,206.5,578.3,209.6z"/>
			<path class="st0" d="M567.7,251.8c-3.6,8.6-7,16.8-10.4,24.8c-7.5,17.8-14.6,34.7-20.8,50.8c-52.5,138.2-11,251.3-10.6,252.4
				c13.4,38.6,34.1,55.7,34.1,55.7s-12-18.1-21.4-55.7c-0.3-1.2-42-114.3,10.6-252.4c6.2-16.2,13.2-33,20.7-50.8
				c3.4-8,6.8-16.2,10.4-24.8c4.3-10.4,7.3-21.2,9.2-32.1h-12.7C575.1,230.6,572,241.5,567.7,251.8z"/>
			<path class="st0" d="M574.5,158.4c0.5,3,1.1,6.1,1.7,9.2h12.7c-0.6-3.1-1.1-6.2-1.7-9.2H574.5z"/>
			<path class="st0" d="M579.9,109.5c-1.6-14.1,1.5-26.7,8.8-35.5c5.2-6.2,12.1-10.2,19.8-11.6c-2.1-0.4-4.2-0.6-6.3-0.6
				c-10.3,0-19.6,4.3-26.2,12.2c-7.3,8.8-10.4,21.4-8.8,35.5c1.4,11.9,3.2,24.8,5.5,38.8h12.7C583.1,134.3,581.3,121.4,579.9,109.5z
				"/>
			<path class="st3" d="M585.5,148.3h-12.7c0.5,3.3,1.1,6.7,1.7,10.1h12.7C586.6,154.9,586,151.6,585.5,148.3z"/>
			<path class="st3" d="M576.9,219.7h12.7c0.6-3.4,1-6.7,1.4-10.1h-12.7C577.9,213,577.5,216.4,576.9,219.7z"/>
			<path class="st3" d="M576.8,170.9c1.8,9.6,2.5,19.5,2.1,29.5h12.6c0.3-10-0.3-19.9-2.1-29.5c-0.2-1.1-0.4-2.2-0.6-3.3h-12.7
				C576.4,168.7,576.6,169.8,576.8,170.9z"/>
		</g>
	</g>
</g>
<g id="BALL">
	<g>
		<path class="st4" d="M737.3,931.5c-121.2,0-219.8-98.6-219.8-219.8s98.6-219.8,219.8-219.8c121.2,0,219.8,98.6,219.8,219.8
			S858.5,931.5,737.3,931.5z"/>
		<radialGradient id="SVGID_1_" cx="642.4053" cy="595.4876" r="358.3853" gradientUnits="userSpaceOnUse">
			<stop  offset="0" style="stop-color:#F05B78"/>
			<stop  offset="0.1476" style="stop-color:#EC5976"/>
			<stop  offset="0.2983" style="stop-color:#E0536F"/>
			<stop  offset="0.4505" style="stop-color:#CB4A64"/>
			<stop  offset="0.6037" style="stop-color:#AF3D55"/>
			<stop  offset="0.7563" style="stop-color:#8A2D41"/>
			<stop  offset="0.8121" style="stop-color:#7B2639"/>
		</radialGradient>
		<circle class="st5" cx="737.3" cy="711.7" r="209.2"/>
	</g>
	<g>
		<path class="st4" d="M872.9,800.1c-2.1,0.9-4.1,1.4-6.1,1.5c4.5,4.3,10.9,5.6,17.3,2.7c10.2-4.6,16.5-18,14-30
			c-1.9-9.6-8.9-15.3-16.7-14.9c2.7,2.6,4.7,6.2,5.6,10.7C889.3,782,883.1,795.5,872.9,800.1z"/>
		<path class="st4" d="M859.5,788.9c-1.1-13.8,7.3-27.5,18.7-30.7c3-0.8,5.8-0.8,8.5-0.2c-3.2-1.3-6.8-1.5-10.6-0.4
			c-11.5,3.2-19.9,17-18.7,30.7c0.8,10.2,6.7,17.4,14.3,19.3C865.1,805,860.3,798.2,859.5,788.9z"/>
	</g>
	<g>
		<path class="st4" d="M815.6,755.7c-2.7,1.1-5.4,1.7-8.1,1.8c5.9,5,14.4,6.5,22.8,3.2c13.4-5.4,21.7-21.1,18.5-35
			c-2.6-11.2-11.7-17.8-22.1-17.4c3.5,3,6.2,7.2,7.4,12.4C837.3,734.6,829,750.3,815.6,755.7z"/>
		<path class="st4" d="M798,742.7c-1.5-16.1,9.6-32.1,24.7-35.8c3.9-1,7.7-1,11.2-0.2c-4.2-1.5-9-1.7-14-0.5
			c-15.2,3.8-26.2,19.8-24.7,35.9c1.1,11.9,8.8,20.3,18.9,22.5C805.4,761.4,799,753.4,798,742.7z"/>
	</g>
	<g>
		<path class="st4" d="M885,729.7c-2,0.9-4.1,1.4-6,1.5c4.4,4.3,10.7,5.6,17,2.7c10-4.6,16.2-18,13.8-30
			c-1.9-9.6-8.7-15.3-16.5-14.9c2.6,2.6,4.6,6.2,5.5,10.7C901.3,711.6,895.1,725.1,885,729.7z"/>
		<path class="st4" d="M871.9,718.5c-1.1-13.8,7.2-27.5,18.5-30.7c2.9-0.8,5.8-0.8,8.4-0.2c-3.2-1.3-6.7-1.5-10.4-0.4
			c-11.3,3.2-19.6,17-18.5,30.7c0.8,10.2,6.6,17.4,14.1,19.3C877.4,734.6,872.6,727.8,871.9,718.5z"/>
	</g>
	<path class="st4" d="M555.3,723c0-109.6,89.1-198.7,198.7-198.7c38.4,0,74.2,11,104.6,29.9c-33.3-25.3-74.9-40.4-119.8-40.4
		c-109.5,0-198.6,89.1-198.6,198.6c0,70.4,36.9,132.3,92.3,167.6C585.5,843.6,555.3,786.8,555.3,723z"/>
</g>
</svg>
